SplineFontDB: 3.0
FontName: VectrexFakeRaster
FullName: Vectrex Fake Raster
FamilyName: Vectrex Fake Raster
Weight: Regular
Copyright: Created with Vectotype - https://github.com/farique1
UComments: "2019-6-19: Created with FontForge (http://fontforge.org)"
Version: 001.000
ItalicAngle: 0
UnderlinePosition: -100
UnderlineWidth: 50
Ascent: 896
Descent: 128
InvalidEm: 0
LayerCount: 2
Layer: 0 0 "Back" 1
Layer: 1 0 "Fore" 0
XUID: [1021 379 -1044410058 7563073]
StyleMap: 0x0000
FSType: 0
OS2Version: 0
OS2_WeightWidthSlopeOnly: 0
OS2_UseTypoMetrics: 0
CreationTime: 1560955106
ModificationTime: 1560955114
PfmFamily: 16
TTFWeight: 400
TTFWidth: 5
LineGap: 0
VLineGap: 92
Panose: 2 0 5 9 0 0 0 0 0 0
OS2TypoAscent: 896
OS2TypoAOffset: 0
OS2TypoDescent: -768
OS2TypoDOffset: 0
OS2TypoLinegap: 0
OS2WinAscent: 896
OS2WinAOffset: 0
OS2WinDescent: 768
OS2WinDOffset: 0
HheadAscent: 896
HheadAOffset: 0
HheadDescent: -768
HheadDOffset: 0
OS2SubXSize: 665
OS2SubYSize: 716
OS2SubXOff: 0
OS2SubYOff: 143
OS2SupXSize: 665
OS2SupYSize: 716
OS2SupXOff: 0
OS2SupYOff: 491
OS2StrikeYSize: 51
OS2StrikeYPos: 265
OS2CapHeight: 896
OS2XHeight: 1024
OS2Vendor: '    '
DEI: 91125
Encoding: ISO8859-1
UnicodeInterp: none
NameList: AGL For New Fonts
DisplaySize: -48
AntiAlias: 1
FitToEm: 0
WinInfo: 0 26 9
BeginChars: 272 107

StartChar: o
Encoding: 111 111 0
Width: 1024
VWidth: 0
Flags: W
HStem: 9 61<2.31177 662.596> 146 61<2.31177 180.688 483.404 662.596> 284 61<2.31177 181.596 483.404 662.596> 421 61<2.31177 181.596 483.404 662.596> 559 61<2.31177 181.596 483.404 662.596> 696 61<2.31177 181.596 483.404 662.596> 834 61<2.31177 662.596>
VStem: 1 182<147.404 205.688 285.312 343.596 422.404 480.688 560.312 618.596 697.404 755.688> 482 182<147.404 205.688 285.312 343.596 422.404 480.688 560.312 618.596 697.404 755.688>
LayerCount: 2
Fore
SplineSet
633 834 m 2
 31 834 l 2
 14 834 1 847 1 864 c 0
 1 881 14 895 31 895 c 2
 633 895 l 2
 650 895 664 881 664 864 c 0
 664 847 650 834 633 834 c 2
633 9 m 2
 31 9 l 2
 14 9 1 22 1 39 c 0
 1 56 14 70 31 70 c 2
 633 70 l 2
 650 70 664 56 664 39 c 0
 664 22 650 9 633 9 c 2
152 146 m 2
 31 146 l 2
 14 146 1 160 1 177 c 0
 1 194 14 207 31 207 c 2
 152 207 l 2
 169 207 182 194 182 177 c 0
 182 160 169 146 152 146 c 2
152 284 m 2
 31 284 l 2
 14 284 1 297 1 314 c 0
 1 331 14 345 31 345 c 2
 152 345 l 2
 169 345 183 331 183 314 c 0
 183 297 169 284 152 284 c 2
152 421 m 2
 31 421 l 2
 14 421 1 435 1 452 c 0
 1 469 14 482 31 482 c 2
 152 482 l 2
 169 482 183 469 183 452 c 0
 183 435 169 421 152 421 c 2
152 559 m 2
 31 559 l 2
 14 559 1 572 1 589 c 0
 1 606 14 620 31 620 c 2
 152 620 l 2
 169 620 183 606 183 589 c 0
 183 572 169 559 152 559 c 2
152 696 m 2
 31 696 l 2
 14 696 1 710 1 727 c 0
 1 744 14 757 31 757 c 2
 152 757 l 2
 169 757 183 744 183 727 c 0
 183 710 169 696 152 696 c 2
633 146 m 2
 513 146 l 2
 496 146 482 160 482 177 c 0
 482 194 496 207 513 207 c 2
 633 207 l 2
 650 207 664 194 664 177 c 0
 664 160 650 146 633 146 c 2
633 284 m 2
 513 284 l 2
 496 284 482 297 482 314 c 0
 482 331 496 345 513 345 c 2
 633 345 l 2
 650 345 664 331 664 314 c 0
 664 297 650 284 633 284 c 2
633 421 m 2
 513 421 l 2
 496 421 482 435 482 452 c 0
 482 469 496 482 513 482 c 2
 633 482 l 2
 650 482 664 469 664 452 c 0
 664 435 650 421 633 421 c 2
633 559 m 2
 513 559 l 2
 496 559 482 572 482 589 c 0
 482 606 496 620 513 620 c 2
 633 620 l 2
 650 620 664 606 664 589 c 0
 664 572 650 559 633 559 c 2
633 696 m 2
 513 696 l 2
 496 696 482 710 482 727 c 0
 482 744 496 757 513 757 c 2
 633 757 l 2
 650 757 664 744 664 727 c 0
 664 710 650 696 633 696 c 2
EndSplineSet
Validated: 1
EndChar

StartChar: i
Encoding: 105 105 1
Width: 1024
VWidth: 0
Flags: W
HStem: 9 61<122.404 542.596> 146 61<242.404 421.596> 284 61<242.404 421.688> 421 61<242.404 421.688> 559 61<242.404 421.688> 696 61<242.404 421.688> 834 61<122.404 542.596>
VStem: 241 182<147.404 205.688 285.312 343.596 422.404 480.688 560.312 618.596 697.404 755.688>
LayerCount: 2
Fore
SplineSet
513 834 m 2
 152 834 l 2
 135 834 121 847 121 864 c 0
 121 881 135 895 152 895 c 2
 513 895 l 2
 530 895 544 881 544 864 c 0
 544 847 530 834 513 834 c 2
513 9 m 2
 152 9 l 2
 135 9 121 22 121 39 c 0
 121 56 135 70 152 70 c 2
 513 70 l 2
 530 70 544 56 544 39 c 0
 544 22 530 9 513 9 c 2
392 146 m 2
 272 146 l 2
 255 146 241 160 241 177 c 0
 241 194 255 207 272 207 c 2
 392 207 l 2
 409 207 423 194 423 177 c 0
 423 160 409 146 392 146 c 2
393 284 m 2
 272 284 l 2
 255 284 241 297 241 314 c 0
 241 331 255 345 272 345 c 2
 393 345 l 2
 410 345 423 331 423 314 c 0
 423 297 410 284 393 284 c 2
393 421 m 2
 272 421 l 2
 255 421 241 435 241 452 c 0
 241 469 255 482 272 482 c 2
 393 482 l 2
 410 482 423 469 423 452 c 0
 423 435 410 421 393 421 c 2
393 559 m 2
 272 559 l 2
 255 559 241 572 241 589 c 0
 241 606 255 620 272 620 c 2
 393 620 l 2
 410 620 423 606 423 589 c 0
 423 572 410 559 393 559 c 2
393 696 m 2
 272 696 l 2
 255 696 241 710 241 727 c 0
 241 744 255 757 272 757 c 2
 393 757 l 2
 410 757 423 744 423 727 c 0
 423 710 410 696 393 696 c 2
EndSplineSet
Validated: 1
EndChar

StartChar: ampersand
Encoding: 38 38 2
Width: 1024
VWidth: 0
Flags: W
HStem: 9 61<122.404 421.596 483.404 662.596> 146 61<2.31177 180.688 363.312 542.596> 284 61<2.31177 180.688 242.404 421.596 483.404 662.596> 421 61<122.404 421.596> 559 61<122.404 301.596 363.312 542.596> 696 61<122.404 301.596 363.312 542.596> 834 61<242.404 421.596>
VStem: 1 181<146.983 206.082 284.918 344.017> 121 182<560.312 618.596 697.404 755.688> 241 182<285.312 343.596 835.312 893.596> 362 182<147.404 205.688 560.312 618.596 697.404 755.688> 482 182<10.3118 68.5959 285.312 343.596>
LayerCount: 2
Fore
SplineSet
392 9 m 2xfe40
 152 9 l 2
 135 9 121 22 121 39 c 0xfe80
 121 56 135 70 152 70 c 2
 392 70 l 2
 409 70 423 56 423 39 c 0
 423 22 409 9 392 9 c 2xfe40
633 9 m 2
 513 9 l 2
 496 9 482 22 482 39 c 0
 482 56 496 70 513 70 c 2
 633 70 l 2
 650 70 664 56 664 39 c 0xfe10
 664 22 650 9 633 9 c 2
152 146 m 2
 31 146 l 2
 14 146 1 160 1 177 c 0
 1 194 14 207 31 207 c 2
 152 207 l 2
 169 207 182 194 182 177 c 0xff
 182 160 169 146 152 146 c 2
513 146 m 2
 392 146 l 2
 375 146 362 160 362 177 c 0
 362 194 375 207 392 207 c 2
 513 207 l 2
 530 207 544 194 544 177 c 0xfe20
 544 160 530 146 513 146 c 2
152 284 m 2
 31 284 l 2
 14 284 1 297 1 314 c 0
 1 331 14 345 31 345 c 2
 152 345 l 2
 169 345 182 331 182 314 c 0xff
 182 297 169 284 152 284 c 2
392 284 m 2
 272 284 l 2
 255 284 241 297 241 314 c 0
 241 331 255 345 272 345 c 2
 392 345 l 2
 409 345 423 331 423 314 c 0xfe40
 423 297 409 284 392 284 c 2
633 284 m 2
 513 284 l 2
 496 284 482 297 482 314 c 0
 482 331 496 345 513 345 c 2
 633 345 l 2
 650 345 664 331 664 314 c 0xfe10
 664 297 650 284 633 284 c 2
392 421 m 2
 152 421 l 2
 135 421 121 435 121 452 c 0xfe80
 121 469 135 482 152 482 c 2
 392 482 l 2
 409 482 423 469 423 452 c 0xfe40
 423 435 409 421 392 421 c 2
272 559 m 2
 152 559 l 2
 135 559 121 572 121 589 c 0
 121 606 135 620 152 620 c 2
 272 620 l 2
 289 620 303 606 303 589 c 0
 303 572 289 559 272 559 c 2
272 696 m 2
 152 696 l 2
 135 696 121 710 121 727 c 0
 121 744 135 757 152 757 c 2
 272 757 l 2
 289 757 303 744 303 727 c 0
 303 710 289 696 272 696 c 2
392 834 m 2
 272 834 l 2
 255 834 241 847 241 864 c 0
 241 881 255 895 272 895 c 2
 392 895 l 2
 409 895 423 881 423 864 c 0xfe40
 423 847 409 834 392 834 c 2
513 696 m 2
 392 696 l 2
 375 696 362 710 362 727 c 0
 362 744 375 757 392 757 c 2
 513 757 l 2
 530 757 544 744 544 727 c 0xfe20
 544 710 530 696 513 696 c 2
513 559 m 2
 392 559 l 2
 375 559 362 572 362 589 c 0
 362 606 375 620 392 620 c 2
 513 620 l 2
 530 620 544 606 544 589 c 0
 544 572 530 559 513 559 c 2
EndSplineSet
Validated: 1
EndChar

StartChar: glyph3
Encoding: 256 9608 3
Width: 1024
VWidth: 0
Flags: W
HStem: 9 61<2.31177 1023.6> 146 61<2.31177 1023.6> 284 61<2.31177 1023.6> 421 61<2.31177 1023.6> 559 61<2.31177 1023.6> 696 61<2.31177 1021.6> 834 61<2.31177 1023.6>
LayerCount: 2
Fore
SplineSet
992 696 m 2
 31 696 l 2
 14 696 1 710 1 727 c 0
 1 744 14 757 31 757 c 2
 992 757 l 2
 1009 757 1023 744 1023 727 c 0
 1023 710 1009 696 992 696 c 2
994 559 m 2
 31 559 l 2
 14 559 1 572 1 589 c 0
 1 606 14 620 31 620 c 2
 994 620 l 2
 1011 620 1025 606 1025 589 c 0
 1025 572 1011 559 994 559 c 2
994 421 m 2
 31 421 l 2
 14 421 1 435 1 452 c 0
 1 469 14 482 31 482 c 2
 994 482 l 2
 1011 482 1025 469 1025 452 c 0
 1025 435 1011 421 994 421 c 2
994 284 m 2
 31 284 l 2
 14 284 1 297 1 314 c 0
 1 331 14 345 31 345 c 2
 994 345 l 2
 1011 345 1025 331 1025 314 c 0
 1025 297 1011 284 994 284 c 2
994 146 m 2
 31 146 l 2
 14 146 1 160 1 177 c 0
 1 194 14 207 31 207 c 2
 994 207 l 2
 1011 207 1025 194 1025 177 c 0
 1025 160 1011 146 994 146 c 2
994 9 m 2
 31 9 l 2
 14 9 1 22 1 39 c 0
 1 56 14 70 31 70 c 2
 994 70 l 2
 1011 70 1025 56 1025 39 c 0
 1025 22 1011 9 994 9 c 2
994 834 m 2
 31 834 l 2
 14 834 1 847 1 864 c 0
 1 881 14 895 31 895 c 2
 994 895 l 2
 1011 895 1025 881 1025 864 c 0
 1025 847 1011 834 994 834 c 2
EndSplineSet
Validated: 1
EndChar

StartChar: glyph4
Encoding: 257 8729 4
Width: 1024
VWidth: 0
Flags: W
HStem: 146 61<122.404 421.596> 284 61<2.31177 542.596> 421 61<2.31177 542.596> 559 61<122.404 421.596>
LayerCount: 2
Fore
SplineSet
392 146 m 2
 152 146 l 2
 135 146 121 160 121 177 c 0
 121 194 135 207 152 207 c 2
 392 207 l 2
 409 207 423 194 423 177 c 0
 423 160 409 146 392 146 c 2
513 284 m 2
 31 284 l 2
 14 284 1 297 1 314 c 0
 1 331 14 345 31 345 c 2
 513 345 l 2
 530 345 544 331 544 314 c 0
 544 297 530 284 513 284 c 2
513 421 m 2
 31 421 l 2
 14 421 1 435 1 452 c 0
 1 469 14 482 31 482 c 2
 513 482 l 2
 530 482 544 469 544 452 c 0
 544 435 530 421 513 421 c 2
392 559 m 2
 152 559 l 2
 135 559 121 572 121 589 c 0
 121 606 135 620 152 620 c 2
 392 620 l 2
 409 620 423 606 423 589 c 0
 423 572 409 559 392 559 c 2
EndSplineSet
Validated: 1
EndChar

StartChar: quotesingle
Encoding: 39 39 5
Width: 1024
VWidth: 0
Flags: W
HStem: 559 61<122.404 301.596> 696 61<242.404 421.596> 834 61<363.312 542.596>
LayerCount: 2
Fore
SplineSet
272 559 m 2
 152 559 l 2
 135 559 121 572 121 589 c 0
 121 606 135 620 152 620 c 2
 272 620 l 2
 289 620 303 606 303 589 c 0
 303 572 289 559 272 559 c 2
392 696 m 2
 272 696 l 2
 255 696 241 710 241 727 c 0
 241 744 255 757 272 757 c 2
 392 757 l 2
 409 757 423 744 423 727 c 0
 423 710 409 696 392 696 c 2
513 834 m 2
 392 834 l 2
 375 834 362 847 362 864 c 0
 362 881 375 895 392 895 c 2
 513 895 l 2
 530 895 544 881 544 864 c 0
 544 847 530 834 513 834 c 2
EndSplineSet
Validated: 1
EndChar

StartChar: h
Encoding: 104 104 6
Width: 1024
VWidth: 0
Flags: W
HStem: 9 61<2.31177 181.596 483.404 662.596> 146 61<2.31177 181.596 483.404 662.596> 284 61<2.31177 181.596 483.404 662.596> 421 61<2.31177 662.596> 559 61<2.31177 181.596 483.404 662.596> 696 61<2.31177 181.596 483.404 662.596> 834 61<2.31177 181.596 483.404 662.596>
VStem: 1 182<10.3118 68.5959 147.404 205.688 285.312 343.596 560.312 618.596 697.404 755.688 835.312 893.596> 482 182<10.3118 68.5959 147.404 205.688 285.312 343.596 560.312 618.596 697.404 755.688 835.312 893.596>
LayerCount: 2
Fore
SplineSet
152 834 m 2
 31 834 l 2
 14 834 1 847 1 864 c 0
 1 881 14 895 31 895 c 2
 152 895 l 2
 169 895 183 881 183 864 c 0
 183 847 169 834 152 834 c 2
152 696 m 2
 31 696 l 2
 14 696 1 710 1 727 c 0
 1 744 14 757 31 757 c 2
 152 757 l 2
 169 757 183 744 183 727 c 0
 183 710 169 696 152 696 c 2
152 559 m 2
 31 559 l 2
 14 559 1 572 1 589 c 0
 1 606 14 620 31 620 c 2
 152 620 l 2
 169 620 183 606 183 589 c 0
 183 572 169 559 152 559 c 2
152 284 m 2
 31 284 l 2
 14 284 1 297 1 314 c 0
 1 331 14 345 31 345 c 2
 152 345 l 2
 169 345 183 331 183 314 c 0
 183 297 169 284 152 284 c 2
152 146 m 2
 31 146 l 2
 14 146 1 160 1 177 c 0
 1 194 14 207 31 207 c 2
 152 207 l 2
 169 207 183 194 183 177 c 0
 183 160 169 146 152 146 c 2
152 9 m 2
 31 9 l 2
 14 9 1 22 1 39 c 0
 1 56 14 70 31 70 c 2
 152 70 l 2
 169 70 183 56 183 39 c 0
 183 22 169 9 152 9 c 2
633 834 m 2
 513 834 l 2
 496 834 482 847 482 864 c 0
 482 881 496 895 513 895 c 2
 633 895 l 2
 650 895 664 881 664 864 c 0
 664 847 650 834 633 834 c 2
633 696 m 2
 513 696 l 2
 496 696 482 710 482 727 c 0
 482 744 496 757 513 757 c 2
 633 757 l 2
 650 757 664 744 664 727 c 0
 664 710 650 696 633 696 c 2
633 559 m 2
 513 559 l 2
 496 559 482 572 482 589 c 0
 482 606 496 620 513 620 c 2
 633 620 l 2
 650 620 664 606 664 589 c 0
 664 572 650 559 633 559 c 2
633 284 m 2
 513 284 l 2
 496 284 482 297 482 314 c 0
 482 331 496 345 513 345 c 2
 633 345 l 2
 650 345 664 331 664 314 c 0
 664 297 650 284 633 284 c 2
633 146 m 2
 513 146 l 2
 496 146 482 160 482 177 c 0
 482 194 496 207 513 207 c 2
 633 207 l 2
 650 207 664 194 664 177 c 0
 664 160 650 146 633 146 c 2
633 9 m 2
 513 9 l 2
 496 9 482 22 482 39 c 0
 482 56 496 70 513 70 c 2
 633 70 l 2
 650 70 664 56 664 39 c 0
 664 22 650 9 633 9 c 2
633 421 m 2
 31 421 l 2
 14 421 1 435 1 452 c 0
 1 469 14 482 31 482 c 2
 633 482 l 2
 650 482 664 469 664 452 c 0
 664 435 650 421 633 421 c 2
EndSplineSet
Validated: 1
EndChar

StartChar: n
Encoding: 110 110 7
Width: 1024
VWidth: 0
Flags: W
HStem: 9 61<2.31177 181.596 483.404 662.596> 146 61<2.31177 181.596 483.404 662.596> 284 61<2.31177 181.596 483.404 662.596> 421 61<2.31177 181.596 363.312 662.596> 559 61<2.31177 181.596 242.404 421.688 483.404 662.596> 696 61<2.31177 301.596 483.404 662.596> 834 61<2.31177 180.688 483.404 662.596>
VStem: 1 182<10.3118 68.5959 147.404 205.688 285.312 343.596 422.404 480.688 560.312 618.596 835.312 893.596> 482 182<10.3118 68.5959 147.404 205.688 285.312 343.596 560.312 618.596 697.404 755.688 835.312 893.596>
LayerCount: 2
Fore
SplineSet
152 9 m 2
 31 9 l 2
 14 9 1 22 1 39 c 0
 1 56 14 70 31 70 c 2
 152 70 l 2
 169 70 183 56 183 39 c 0
 183 22 169 9 152 9 c 2
152 146 m 2
 31 146 l 2
 14 146 1 160 1 177 c 0
 1 194 14 207 31 207 c 2
 152 207 l 2
 169 207 183 194 183 177 c 0
 183 160 169 146 152 146 c 2
152 284 m 2
 31 284 l 2
 14 284 1 297 1 314 c 0
 1 331 14 345 31 345 c 2
 152 345 l 2
 169 345 183 331 183 314 c 0
 183 297 169 284 152 284 c 2
152 421 m 2
 31 421 l 2
 14 421 1 435 1 452 c 0
 1 469 14 482 31 482 c 2
 152 482 l 2
 169 482 183 469 183 452 c 0
 183 435 169 421 152 421 c 2
152 559 m 2
 31 559 l 2
 14 559 1 572 1 589 c 0
 1 606 14 620 31 620 c 2
 152 620 l 2
 169 620 183 606 183 589 c 0
 183 572 169 559 152 559 c 2
272 696 m 2
 31 696 l 2
 14 696 1 710 1 727 c 0
 1 744 14 757 31 757 c 2
 272 757 l 2
 289 757 303 744 303 727 c 0
 303 710 289 696 272 696 c 2
152 834 m 2
 31 834 l 2
 14 834 1 847 1 864 c 0
 1 881 14 895 31 895 c 2
 152 895 l 2
 169 895 182 881 182 864 c 0
 182 847 169 834 152 834 c 2
393 559 m 2
 272 559 l 2
 255 559 241 572 241 589 c 0
 241 606 255 620 272 620 c 2
 393 620 l 2
 410 620 423 606 423 589 c 0
 423 572 410 559 393 559 c 2
392 421 m 2
 375 421 362 435 362 452 c 0
 362 469 375 482 392 482 c 2
 633 482 l 2
 650 482 664 469 664 452 c 0
 664 435 650 421 633 421 c 2
 392 421 l 2
633 559 m 2
 513 559 l 2
 496 559 482 572 482 589 c 0
 482 606 496 620 513 620 c 2
 633 620 l 2
 650 620 664 606 664 589 c 0
 664 572 650 559 633 559 c 2
633 696 m 2
 513 696 l 2
 496 696 482 710 482 727 c 0
 482 744 496 757 513 757 c 2
 633 757 l 2
 650 757 664 744 664 727 c 0
 664 710 650 696 633 696 c 2
633 834 m 2
 513 834 l 2
 496 834 482 847 482 864 c 0
 482 881 496 895 513 895 c 2
 633 895 l 2
 650 895 664 881 664 864 c 0
 664 847 650 834 633 834 c 2
633 284 m 2
 513 284 l 2
 496 284 482 297 482 314 c 0
 482 331 496 345 513 345 c 2
 633 345 l 2
 650 345 664 331 664 314 c 0
 664 297 650 284 633 284 c 2
633 146 m 2
 513 146 l 2
 496 146 482 160 482 177 c 0
 482 194 496 207 513 207 c 2
 633 207 l 2
 650 207 664 194 664 177 c 0
 664 160 650 146 633 146 c 2
633 9 m 2
 513 9 l 2
 496 9 482 22 482 39 c 0
 482 56 496 70 513 70 c 2
 633 70 l 2
 650 70 664 56 664 39 c 0
 664 22 650 9 633 9 c 2
EndSplineSet
Validated: 1
EndChar

StartChar: j
Encoding: 106 106 8
Width: 1024
VWidth: 0
Flags: W
HStem: 9 61<122.404 542.596> 146 61<2.31177 181.596 483.404 662.596> 284 61<483.404 662.596> 421 61<483.404 662.596> 559 61<483.404 662.596> 696 61<483.404 662.596> 834 61<483.404 662.596>
VStem: 482 182<147.404 205.688 285.312 343.596 422.404 480.688 560.312 618.596 697.404 755.688 835.312 893.596>
LayerCount: 2
Fore
SplineSet
152 146 m 2
 31 146 l 2
 14 146 1 160 1 177 c 0
 1 194 14 207 31 207 c 2
 152 207 l 2
 169 207 183 194 183 177 c 0
 183 160 169 146 152 146 c 2
633 146 m 2
 513 146 l 2
 496 146 482 160 482 177 c 0
 482 194 496 207 513 207 c 2
 633 207 l 2
 650 207 664 194 664 177 c 0
 664 160 650 146 633 146 c 2
633 284 m 2
 513 284 l 2
 496 284 482 297 482 314 c 0
 482 331 496 345 513 345 c 2
 633 345 l 2
 650 345 664 331 664 314 c 0
 664 297 650 284 633 284 c 2
633 421 m 2
 513 421 l 2
 496 421 482 435 482 452 c 0
 482 469 496 482 513 482 c 2
 633 482 l 2
 650 482 664 469 664 452 c 0
 664 435 650 421 633 421 c 2
633 559 m 2
 513 559 l 2
 496 559 482 572 482 589 c 0
 482 606 496 620 513 620 c 2
 633 620 l 2
 650 620 664 606 664 589 c 0
 664 572 650 559 633 559 c 2
633 696 m 2
 513 696 l 2
 496 696 482 710 482 727 c 0
 482 744 496 757 513 757 c 2
 633 757 l 2
 650 757 664 744 664 727 c 0
 664 710 650 696 633 696 c 2
633 834 m 2
 513 834 l 2
 496 834 482 847 482 864 c 0
 482 881 496 895 513 895 c 2
 633 895 l 2
 650 895 664 881 664 864 c 0
 664 847 650 834 633 834 c 2
513 9 m 2
 152 9 l 2
 135 9 121 22 121 39 c 0
 121 56 135 70 152 70 c 2
 513 70 l 2
 530 70 544 56 544 39 c 0
 544 22 530 9 513 9 c 2
EndSplineSet
Validated: 1
EndChar

StartChar: p
Encoding: 112 112 9
Width: 1024
VWidth: 0
Flags: W
HStem: 9 61<2.31177 181.596> 146 61<2.31177 181.596> 284 61<2.31177 181.596> 421 61<2.31177 542.596> 559 61<2.31177 181.596 483.404 662.596> 696 61<2.31177 181.596 483.404 662.596> 834 61<2.31177 542.596>
VStem: 1 182<10.3118 68.5959 147.404 205.688 285.312 343.596 560.312 618.596 697.404 755.688> 482 182<560.312 618.596 697.404 755.688>
LayerCount: 2
Fore
SplineSet
513 834 m 2
 31 834 l 2
 14 834 1 847 1 864 c 0
 1 881 14 895 31 895 c 2
 513 895 l 2
 530 895 544 881 544 864 c 0
 544 847 530 834 513 834 c 2
513 696 m 2
 496 696 482 710 482 727 c 0
 482 744 496 757 513 757 c 2
 633 757 l 2
 650 757 664 744 664 727 c 0
 664 710 650 696 633 696 c 2
 513 696 l 2
513 559 m 2
 496 559 482 572 482 589 c 0
 482 606 496 620 513 620 c 2
 633 620 l 2
 650 620 664 606 664 589 c 0
 664 572 650 559 633 559 c 2
 513 559 l 2
152 696 m 2
 31 696 l 2
 14 696 1 710 1 727 c 0
 1 744 14 757 31 757 c 2
 152 757 l 2
 169 757 183 744 183 727 c 0
 183 710 169 696 152 696 c 2
31 559 m 2
 14 559 1 572 1 589 c 0
 1 606 14 620 31 620 c 2
 152 620 l 2
 169 620 183 606 183 589 c 0
 183 572 169 559 152 559 c 2
 31 559 l 2
152 284 m 2
 31 284 l 2
 14 284 1 297 1 314 c 0
 1 331 14 345 31 345 c 2
 152 345 l 2
 169 345 183 331 183 314 c 0
 183 297 169 284 152 284 c 2
31 146 m 2
 14 146 1 160 1 177 c 0
 1 194 14 207 31 207 c 2
 152 207 l 2
 169 207 183 194 183 177 c 0
 183 160 169 146 152 146 c 2
 31 146 l 2
31 9 m 2
 14 9 1 22 1 39 c 0
 1 56 14 70 31 70 c 2
 152 70 l 2
 169 70 183 56 183 39 c 0
 183 22 169 9 152 9 c 2
 31 9 l 2
513 421 m 2
 31 421 l 2
 14 421 1 435 1 452 c 0
 1 469 14 482 31 482 c 2
 513 482 l 2
 530 482 544 469 544 452 c 0
 544 435 530 421 513 421 c 2
EndSplineSet
Validated: 1
EndChar

StartChar: q
Encoding: 113 113 10
Width: 1024
VWidth: 0
Flags: W
HStem: 9 61<112.312 421.596 483.404 662.596> 146 61<2.31177 181.596 363.312 542.596> 284 61<2.31177 181.596 242.404 421.688 483.404 662.596> 421 61<2.31177 181.596 483.404 662.596> 559 61<2.31177 181.596 483.404 662.596> 696 61<2.31177 180.688 483.404 662.596> 834 61<122.404 542.596>
VStem: 1 182<147.404 205.688 285.312 343.596 422.404 480.688 560.312 618.596 697.404 755.688> 482 182<10.3118 68.5959 285.312 343.596 422.404 480.688 560.312 618.596 697.404 755.688>
LayerCount: 2
Fore
SplineSet
513 834 m 2
 152 834 l 2
 135 834 121 847 121 864 c 0
 121 881 135 895 152 895 c 2
 513 895 l 2
 530 895 544 881 544 864 c 0
 544 847 530 834 513 834 c 2
152 696 m 2
 31 696 l 2
 14 696 1 710 1 727 c 0
 1 744 14 757 31 757 c 2
 152 757 l 2
 169 757 182 744 182 727 c 0
 182 710 169 696 152 696 c 2
152 559 m 2
 31 559 l 2
 14 559 1 572 1 589 c 0
 1 606 14 620 31 620 c 2
 152 620 l 2
 169 620 183 606 183 589 c 0
 183 572 169 559 152 559 c 2
152 421 m 2
 31 421 l 2
 14 421 1 435 1 452 c 0
 1 469 14 482 31 482 c 2
 152 482 l 2
 169 482 183 469 183 452 c 0
 183 435 169 421 152 421 c 2
152 284 m 2
 31 284 l 2
 14 284 1 297 1 314 c 0
 1 331 14 345 31 345 c 2
 152 345 l 2
 169 345 183 331 183 314 c 0
 183 297 169 284 152 284 c 2
152 146 m 2
 31 146 l 2
 14 146 1 160 1 177 c 0
 1 194 14 207 31 207 c 2
 152 207 l 2
 169 207 183 194 183 177 c 0
 183 160 169 146 152 146 c 2
392 9 m 2
 141 9 l 2
 124 9 111 22 111 39 c 0
 111 56 124 70 141 70 c 2
 392 70 l 2
 409 70 423 56 423 39 c 0
 423 22 409 9 392 9 c 2
513 146 m 2
 392 146 l 2
 375 146 362 160 362 177 c 0
 362 194 375 207 392 207 c 2
 513 207 l 2
 530 207 544 194 544 177 c 0
 544 160 530 146 513 146 c 2
633 284 m 2
 513 284 l 2
 496 284 482 297 482 314 c 0
 482 331 496 345 513 345 c 2
 633 345 l 2
 650 345 664 331 664 314 c 0
 664 297 650 284 633 284 c 2
393 284 m 2
 272 284 l 2
 255 284 241 297 241 314 c 0
 241 331 255 345 272 345 c 2
 393 345 l 2
 410 345 423 331 423 314 c 0
 423 297 410 284 393 284 c 2
633 9 m 2
 513 9 l 2
 496 9 482 22 482 39 c 0
 482 56 496 70 513 70 c 2
 633 70 l 2
 650 70 664 56 664 39 c 0
 664 22 650 9 633 9 c 2
633 421 m 2
 513 421 l 2
 496 421 482 435 482 452 c 0
 482 469 496 482 513 482 c 2
 633 482 l 2
 650 482 664 469 664 452 c 0
 664 435 650 421 633 421 c 2
633 559 m 2
 513 559 l 2
 496 559 482 572 482 589 c 0
 482 606 496 620 513 620 c 2
 633 620 l 2
 650 620 664 606 664 589 c 0
 664 572 650 559 633 559 c 2
633 696 m 2
 513 696 l 2
 496 696 482 710 482 727 c 0
 482 744 496 757 513 757 c 2
 633 757 l 2
 650 757 664 744 664 727 c 0
 664 710 650 696 633 696 c 2
EndSplineSet
Validated: 1
EndChar

StartChar: k
Encoding: 107 107 11
Width: 1024
VWidth: 0
Flags: W
HStem: 9 61<2.31177 181.596 483.404 662.596> 146 61<2.31177 181.596 363.404 542.596> 284 61<2.31177 181.596 242.404 421.688> 421 61<2.31177 301.596> 559 61<2.31177 180.688 242.404 421.688> 696 61<2.31177 181.596 363.312 542.596> 834 61<2.31177 181.596 483.404 662.596>
VStem: 1 182<10.3118 68.5959 147.404 205.688 285.312 343.596 560.312 618.596 697.404 755.688 835.312 893.596> 241 182<285.312 343.596 560.312 618.596> 362 182<147.404 205.688 697.404 755.688> 482 182<10.3118 68.5959 835.312 893.596>
LayerCount: 2
Fore
SplineSet
272 421 m 2xff
 31 421 l 2
 14 421 1 435 1 452 c 0
 1 469 14 482 31 482 c 2
 272 482 l 2
 289 482 303 469 303 452 c 0
 303 435 289 421 272 421 c 2xff
152 559 m 2
 31 559 l 2
 14 559 1 572 1 589 c 0
 1 606 14 620 31 620 c 2
 152 620 l 2
 169 620 182 606 182 589 c 0
 182 572 169 559 152 559 c 2
152 696 m 2
 31 696 l 2
 14 696 1 710 1 727 c 0
 1 744 14 757 31 757 c 2
 152 757 l 2
 169 757 183 744 183 727 c 0
 183 710 169 696 152 696 c 2
152 834 m 2
 31 834 l 2
 14 834 1 847 1 864 c 0
 1 881 14 895 31 895 c 2
 152 895 l 2
 169 895 183 881 183 864 c 0
 183 847 169 834 152 834 c 2
393 559 m 2
 272 559 l 2
 255 559 241 572 241 589 c 0
 241 606 255 620 272 620 c 2
 393 620 l 2
 410 620 423 606 423 589 c 0xff80
 423 572 410 559 393 559 c 2
513 696 m 2
 392 696 l 2
 375 696 362 710 362 727 c 0
 362 744 375 757 392 757 c 2
 513 757 l 2
 530 757 544 744 544 727 c 0xff40
 544 710 530 696 513 696 c 2
633 834 m 2
 513 834 l 2
 496 834 482 847 482 864 c 0
 482 881 496 895 513 895 c 2
 633 895 l 2
 650 895 664 881 664 864 c 0xff20
 664 847 650 834 633 834 c 2
393 284 m 2
 272 284 l 2
 255 284 241 297 241 314 c 0
 241 331 255 345 272 345 c 2
 393 345 l 2
 410 345 423 331 423 314 c 0xff80
 423 297 410 284 393 284 c 2
513 146 m 2
 393 146 l 2
 376 146 362 160 362 177 c 0
 362 194 376 207 393 207 c 2
 513 207 l 2
 530 207 544 194 544 177 c 0xff40
 544 160 530 146 513 146 c 2
633 9 m 2
 513 9 l 2
 496 9 482 22 482 39 c 0
 482 56 496 70 513 70 c 2
 633 70 l 2
 650 70 664 56 664 39 c 0xff20
 664 22 650 9 633 9 c 2
152 284 m 2
 31 284 l 2
 14 284 1 297 1 314 c 0
 1 331 14 345 31 345 c 2
 152 345 l 2
 169 345 183 331 183 314 c 0
 183 297 169 284 152 284 c 2
152 146 m 2
 31 146 l 2
 14 146 1 160 1 177 c 0
 1 194 14 207 31 207 c 2
 152 207 l 2
 169 207 183 194 183 177 c 0
 183 160 169 146 152 146 c 2
152 9 m 2
 31 9 l 2
 14 9 1 22 1 39 c 0
 1 56 14 70 31 70 c 2
 152 70 l 2
 169 70 183 56 183 39 c 0
 183 22 169 9 152 9 c 2
EndSplineSet
Validated: 1
EndChar

StartChar: glyph12
Encoding: 258 9785 12
Width: 1024
VWidth: 0
Flags: W
HStem: 146 61<2.31177 181.596 724.312 903.596> 284 61<122.404 301.596 603.404 782.596> 421 61<242.404 662.596> 834 61<122.404 301.596 603.404 782.688>
VStem: 121 182<285.312 343.596 835.312 893.596> 602 182<285.312 343.596 835.312 893.596>
LayerCount: 2
Fore
SplineSet
633 421 m 2
 272 421 l 2
 255 421 241 435 241 452 c 0
 241 469 255 482 272 482 c 2
 633 482 l 2
 650 482 664 469 664 452 c 0
 664 435 650 421 633 421 c 2
753 284 m 2
 633 284 l 2
 616 284 602 297 602 314 c 0
 602 331 616 345 633 345 c 2
 753 345 l 2
 770 345 784 331 784 314 c 0
 784 297 770 284 753 284 c 2
874 146 m 2
 753 146 l 2
 736 146 723 160 723 177 c 0
 723 194 736 207 753 207 c 2
 874 207 l 2
 891 207 905 194 905 177 c 0
 905 160 891 146 874 146 c 2
272 284 m 2
 152 284 l 2
 135 284 121 297 121 314 c 0
 121 331 135 345 152 345 c 2
 272 345 l 2
 289 345 303 331 303 314 c 0
 303 297 289 284 272 284 c 2
152 146 m 2
 31 146 l 2
 14 146 1 160 1 177 c 0
 1 194 14 207 31 207 c 2
 152 207 l 2
 169 207 183 194 183 177 c 0
 183 160 169 146 152 146 c 2
272 834 m 2
 152 834 l 2
 135 834 121 847 121 864 c 0
 121 881 135 895 152 895 c 2
 272 895 l 2
 289 895 303 881 303 864 c 0
 303 847 289 834 272 834 c 2
754 834 m 2
 633 834 l 2
 616 834 602 847 602 864 c 0
 602 881 616 895 633 895 c 2
 754 895 l 2
 771 895 784 881 784 864 c 0
 784 847 771 834 754 834 c 2
EndSplineSet
Validated: 1
EndChar

StartChar: g
Encoding: 103 103 13
Width: 1024
VWidth: 0
Flags: W
HStem: 9 61<122.404 662.596> 146 61<2.31177 181.596 483.404 662.596> 284 61<2.31177 181.596 483.404 662.596> 421 61<2.31177 181.596 363.312 662.596> 559 61<2.31177 181.596> 696 61<2.31177 181.596> 834 61<122.404 662.596>
VStem: 1 182<147.404 205.688 285.312 343.596 422.404 480.688 560.312 618.596 697.404 755.688> 482 182<147.404 205.688 285.312 343.596>
LayerCount: 2
Fore
SplineSet
633 834 m 2
 152 834 l 2
 135 834 121 847 121 864 c 0
 121 881 135 895 152 895 c 2
 633 895 l 2
 650 895 664 881 664 864 c 0
 664 847 650 834 633 834 c 2
633 9 m 2
 152 9 l 2
 135 9 121 22 121 39 c 0
 121 56 135 70 152 70 c 2
 633 70 l 2
 650 70 664 56 664 39 c 0
 664 22 650 9 633 9 c 2
633 421 m 2
 392 421 l 2
 375 421 362 435 362 452 c 0
 362 469 375 482 392 482 c 2
 633 482 l 2
 650 482 664 469 664 452 c 0
 664 435 650 421 633 421 c 2
633 284 m 2
 513 284 l 2
 496 284 482 297 482 314 c 0
 482 331 496 345 513 345 c 2
 633 345 l 2
 650 345 664 331 664 314 c 0
 664 297 650 284 633 284 c 2
633 146 m 2
 513 146 l 2
 496 146 482 160 482 177 c 0
 482 194 496 207 513 207 c 2
 633 207 l 2
 650 207 664 194 664 177 c 0
 664 160 650 146 633 146 c 2
152 146 m 2
 31 146 l 2
 14 146 1 160 1 177 c 0
 1 194 14 207 31 207 c 2
 152 207 l 2
 169 207 183 194 183 177 c 0
 183 160 169 146 152 146 c 2
152 284 m 2
 31 284 l 2
 14 284 1 297 1 314 c 0
 1 331 14 345 31 345 c 2
 152 345 l 2
 169 345 183 331 183 314 c 0
 183 297 169 284 152 284 c 2
152 421 m 2
 31 421 l 2
 14 421 1 435 1 452 c 0
 1 469 14 482 31 482 c 2
 152 482 l 2
 169 482 183 469 183 452 c 0
 183 435 169 421 152 421 c 2
152 559 m 2
 31 559 l 2
 14 559 1 572 1 589 c 0
 1 606 14 620 31 620 c 2
 152 620 l 2
 169 620 183 606 183 589 c 0
 183 572 169 559 152 559 c 2
152 696 m 2
 31 696 l 2
 14 696 1 710 1 727 c 0
 1 744 14 757 31 757 c 2
 152 757 l 2
 169 757 183 744 183 727 c 0
 183 710 169 696 152 696 c 2
EndSplineSet
Validated: 1
EndChar

StartChar: u
Encoding: 117 117 14
Width: 1024
VWidth: 0
Flags: W
HStem: 9 61<122.404 542.596> 146 61<2.31177 181.596 483.404 662.596> 284 61<2.31177 181.596 483.404 662.596> 421 61<2.31177 181.596 483.404 662.596> 559 61<2.31177 181.596 483.404 662.596> 696 61<2.31177 181.596 483.404 662.596> 834 61<2.31177 180.688 483.404 662.596>
VStem: 1 182<147.404 205.688 285.312 343.596 422.404 480.688 560.312 618.596 697.404 755.688 835.312 893.596> 482 182<147.404 205.688 285.312 343.596 422.404 480.688 560.312 618.596 697.404 755.688 835.312 893.596>
LayerCount: 2
Fore
SplineSet
152 834 m 2
 31 834 l 2
 14 834 1 847 1 864 c 0
 1 881 14 895 31 895 c 2
 152 895 l 2
 169 895 182 881 182 864 c 0
 182 847 169 834 152 834 c 2
152 696 m 2
 31 696 l 2
 14 696 1 710 1 727 c 0
 1 744 14 757 31 757 c 2
 152 757 l 2
 169 757 183 744 183 727 c 0
 183 710 169 696 152 696 c 2
152 559 m 2
 31 559 l 2
 14 559 1 572 1 589 c 0
 1 606 14 620 31 620 c 2
 152 620 l 2
 169 620 183 606 183 589 c 0
 183 572 169 559 152 559 c 2
152 421 m 2
 31 421 l 2
 14 421 1 435 1 452 c 0
 1 469 14 482 31 482 c 2
 152 482 l 2
 169 482 183 469 183 452 c 0
 183 435 169 421 152 421 c 2
152 284 m 2
 31 284 l 2
 14 284 1 297 1 314 c 0
 1 331 14 345 31 345 c 2
 152 345 l 2
 169 345 183 331 183 314 c 0
 183 297 169 284 152 284 c 2
152 146 m 2
 31 146 l 2
 14 146 1 160 1 177 c 0
 1 194 14 207 31 207 c 2
 152 207 l 2
 169 207 183 194 183 177 c 0
 183 160 169 146 152 146 c 2
633 834 m 2
 513 834 l 2
 496 834 482 847 482 864 c 0
 482 881 496 895 513 895 c 2
 633 895 l 2
 650 895 664 881 664 864 c 0
 664 847 650 834 633 834 c 2
633 696 m 2
 513 696 l 2
 496 696 482 710 482 727 c 0
 482 744 496 757 513 757 c 2
 633 757 l 2
 650 757 664 744 664 727 c 0
 664 710 650 696 633 696 c 2
633 559 m 2
 513 559 l 2
 496 559 482 572 482 589 c 0
 482 606 496 620 513 620 c 2
 633 620 l 2
 650 620 664 606 664 589 c 0
 664 572 650 559 633 559 c 2
633 421 m 2
 513 421 l 2
 496 421 482 435 482 452 c 0
 482 469 496 482 513 482 c 2
 633 482 l 2
 650 482 664 469 664 452 c 0
 664 435 650 421 633 421 c 2
633 284 m 2
 513 284 l 2
 496 284 482 297 482 314 c 0
 482 331 496 345 513 345 c 2
 633 345 l 2
 650 345 664 331 664 314 c 0
 664 297 650 284 633 284 c 2
633 146 m 2
 513 146 l 2
 496 146 482 160 482 177 c 0
 482 194 496 207 513 207 c 2
 633 207 l 2
 650 207 664 194 664 177 c 0
 664 160 650 146 633 146 c 2
152 9 m 2
 135 9 121 22 121 39 c 0
 121 56 135 70 152 70 c 2
 513 70 l 2
 530 70 544 56 544 39 c 0
 544 22 530 9 513 9 c 2
 152 9 l 2
EndSplineSet
Validated: 1
EndChar

StartChar: glyph15
Encoding: 259 128697 15
Width: 1024
VWidth: 0
Flags: W
HStem: 9 61<2.31177 181.596 483.404 662.596> 146 61<122.404 301.596 363.312 542.596> 284 61<243.312 422.596> 421 61<2.31177 662.596> 559 61<243.312 422.596> 696 61<122.404 542.596> 834 61<242.404 421.596>
VStem: 242 182<285.312 343.596 560.312 618.596 835.534 893.359>
LayerCount: 2
Fore
SplineSet
392 834 m 2
 272 834 l 2
 255 834 241 847 241 864 c 0
 241 881 255 895 272 895 c 2
 392 895 l 2
 409 895 423 881 423 864 c 0
 423 847 409 834 392 834 c 2
393 559 m 2
 272 559 l 2
 255 559 242 572 242 589 c 0
 242 606 255 620 272 620 c 2
 393 620 l 2
 410 620 424 606 424 589 c 0
 424 572 410 559 393 559 c 2
393 284 m 2
 272 284 l 2
 255 284 242 297 242 314 c 0
 242 331 255 345 272 345 c 2
 393 345 l 2
 410 345 424 331 424 314 c 0
 424 297 410 284 393 284 c 2
272 146 m 2
 152 146 l 2
 135 146 121 160 121 177 c 0
 121 194 135 207 152 207 c 2
 272 207 l 2
 289 207 303 194 303 177 c 0
 303 160 289 146 272 146 c 2
152 9 m 2
 31 9 l 2
 14 9 1 22 1 39 c 0
 1 56 14 70 31 70 c 2
 152 70 l 2
 169 70 183 56 183 39 c 0
 183 22 169 9 152 9 c 2
513 146 m 2
 392 146 l 2
 375 146 362 160 362 177 c 0
 362 194 375 207 392 207 c 2
 513 207 l 2
 530 207 544 194 544 177 c 0
 544 160 530 146 513 146 c 2
633 9 m 2
 513 9 l 2
 496 9 482 22 482 39 c 0
 482 56 496 70 513 70 c 2
 633 70 l 2
 650 70 664 56 664 39 c 0
 664 22 650 9 633 9 c 2
633 421 m 2
 31 421 l 2
 14 421 1 435 1 452 c 0
 1 469 14 482 31 482 c 2
 633 482 l 2
 650 482 664 469 664 452 c 0
 664 435 650 421 633 421 c 2
513 696 m 2
 152 696 l 2
 135 696 121 710 121 727 c 0
 121 744 135 757 152 757 c 2
 513 757 l 2
 530 757 544 744 544 727 c 0
 544 710 530 696 513 696 c 2
EndSplineSet
Validated: 1
EndChar

StartChar: glyph16
Encoding: 260 9632 16
Width: 1024
VWidth: 0
Flags: W
HStem: 9 61<2.31177 903.596> 146 61<2.31177 903.596> 284 61<2.31177 903.596> 421 61<2.31177 903.596> 559 61<2.31177 903.596> 696 61<2.31177 901.596> 834 61<2.31177 902.688>
LayerCount: 2
Fore
SplineSet
872 696 m 2
 31 696 l 2
 14 696 1 710 1 727 c 0
 1 744 14 757 31 757 c 2
 872 757 l 2
 889 757 903 744 903 727 c 0
 903 710 889 696 872 696 c 2
874 559 m 2
 31 559 l 2
 14 559 1 572 1 589 c 0
 1 606 14 620 31 620 c 2
 874 620 l 2
 891 620 905 606 905 589 c 0
 905 572 891 559 874 559 c 2
874 421 m 2
 31 421 l 2
 14 421 1 435 1 452 c 0
 1 469 14 482 31 482 c 2
 874 482 l 2
 891 482 905 469 905 452 c 0
 905 435 891 421 874 421 c 2
874 284 m 2
 31 284 l 2
 14 284 1 297 1 314 c 0
 1 331 14 345 31 345 c 2
 874 345 l 2
 891 345 905 331 905 314 c 0
 905 297 891 284 874 284 c 2
874 146 m 2
 31 146 l 2
 14 146 1 160 1 177 c 0
 1 194 14 207 31 207 c 2
 874 207 l 2
 891 207 905 194 905 177 c 0
 905 160 891 146 874 146 c 2
874 9 m 2
 31 9 l 2
 14 9 1 22 1 39 c 0
 1 56 14 70 31 70 c 2
 874 70 l 2
 891 70 905 56 905 39 c 0
 905 22 891 9 874 9 c 2
874 834 m 2
 31 834 l 2
 14 834 1 847 1 864 c 0
 1 881 14 895 31 895 c 2
 874 895 l 2
 891 895 904 881 904 864 c 0
 904 847 891 834 874 834 c 2
EndSplineSet
Validated: 1
EndChar

StartChar: glyph17
Encoding: 261 9633 17
Width: 1024
VWidth: 0
Flags: W
HStem: 9 61<2.31177 903.596> 146 61<2.31177 181.596 724.312 903.596> 284 61<2.31177 181.596 724.312 903.596> 421 61<2.31177 181.596 724.312 903.596> 559 61<2.31177 181.596 724.312 903.596> 696 61<2.31177 180.688 724.312 903.596> 834 61<2.31177 903.596>
VStem: 1 182<147.404 205.688 285.312 343.596 422.404 480.688 560.312 618.596 697.404 755.688> 723 182<147.404 205.688 285.312 343.596 422.404 480.688 560.312 618.596 697.404 755.688>
LayerCount: 2
Fore
SplineSet
152 696 m 2
 31 696 l 2
 14 696 1 710 1 727 c 0
 1 744 14 757 31 757 c 2
 152 757 l 2
 169 757 182 744 182 727 c 0
 182 710 169 696 152 696 c 2
152 559 m 2
 31 559 l 2
 14 559 1 572 1 589 c 0
 1 606 14 620 31 620 c 2
 152 620 l 2
 169 620 183 606 183 589 c 0
 183 572 169 559 152 559 c 2
152 421 m 2
 31 421 l 2
 14 421 1 435 1 452 c 0
 1 469 14 482 31 482 c 2
 152 482 l 2
 169 482 183 469 183 452 c 0
 183 435 169 421 152 421 c 2
152 284 m 2
 31 284 l 2
 14 284 1 297 1 314 c 0
 1 331 14 345 31 345 c 2
 152 345 l 2
 169 345 183 331 183 314 c 0
 183 297 169 284 152 284 c 2
152 146 m 2
 31 146 l 2
 14 146 1 160 1 177 c 0
 1 194 14 207 31 207 c 2
 152 207 l 2
 169 207 183 194 183 177 c 0
 183 160 169 146 152 146 c 2
874 696 m 2
 753 696 l 2
 736 696 723 710 723 727 c 0
 723 744 736 757 753 757 c 2
 874 757 l 2
 891 757 905 744 905 727 c 0
 905 710 891 696 874 696 c 2
874 559 m 2
 753 559 l 2
 736 559 723 572 723 589 c 0
 723 606 736 620 753 620 c 2
 874 620 l 2
 891 620 905 606 905 589 c 0
 905 572 891 559 874 559 c 2
874 421 m 2
 753 421 l 2
 736 421 723 435 723 452 c 0
 723 469 736 482 753 482 c 2
 874 482 l 2
 891 482 905 469 905 452 c 0
 905 435 891 421 874 421 c 2
874 284 m 2
 753 284 l 2
 736 284 723 297 723 314 c 0
 723 331 736 345 753 345 c 2
 874 345 l 2
 891 345 905 331 905 314 c 0
 905 297 891 284 874 284 c 2
874 146 m 2
 753 146 l 2
 736 146 723 160 723 177 c 0
 723 194 736 207 753 207 c 2
 874 207 l 2
 891 207 905 194 905 177 c 0
 905 160 891 146 874 146 c 2
874 9 m 2
 31 9 l 2
 14 9 1 22 1 39 c 0
 1 56 14 70 31 70 c 2
 874 70 l 2
 891 70 905 56 905 39 c 0
 905 22 891 9 874 9 c 2
874 834 m 2
 31 834 l 2
 14 834 1 847 1 864 c 0
 1 881 14 895 31 895 c 2
 874 895 l 2
 891 895 905 881 905 864 c 0
 905 847 891 834 874 834 c 2
EndSplineSet
Validated: 1
EndChar

StartChar: t
Encoding: 116 116 18
Width: 1024
VWidth: 0
Flags: W
HStem: 9 61<242.404 421.688> 146 61<242.404 421.688> 284 61<242.404 421.688> 421 61<242.404 421.688> 559 61<242.404 421.688> 696 61<2.31177 181.596 242.404 421.688 483.404 662.596> 834 61<2.31177 662.596>
VStem: 241 182<10.3118 68.5959 147.404 205.688 285.312 343.596 422.404 480.688 560.312 618.596 697.404 755.688>
LayerCount: 2
Fore
SplineSet
152 696 m 2
 31 696 l 2
 14 696 1 710 1 727 c 0
 1 744 14 757 31 757 c 2
 152 757 l 2
 169 757 183 744 183 727 c 0
 183 710 169 696 152 696 c 2
393 696 m 2
 272 696 l 2
 255 696 241 710 241 727 c 0
 241 744 255 757 272 757 c 2
 393 757 l 2
 410 757 423 744 423 727 c 0
 423 710 410 696 393 696 c 2
633 696 m 2
 513 696 l 2
 496 696 482 710 482 727 c 0
 482 744 496 757 513 757 c 2
 633 757 l 2
 650 757 664 744 664 727 c 0
 664 710 650 696 633 696 c 2
393 559 m 2
 272 559 l 2
 255 559 241 572 241 589 c 0
 241 606 255 620 272 620 c 2
 393 620 l 2
 410 620 423 606 423 589 c 0
 423 572 410 559 393 559 c 2
393 421 m 2
 272 421 l 2
 255 421 241 435 241 452 c 0
 241 469 255 482 272 482 c 2
 393 482 l 2
 410 482 423 469 423 452 c 0
 423 435 410 421 393 421 c 2
393 284 m 2
 272 284 l 2
 255 284 241 297 241 314 c 0
 241 331 255 345 272 345 c 2
 393 345 l 2
 410 345 423 331 423 314 c 0
 423 297 410 284 393 284 c 2
393 146 m 2
 272 146 l 2
 255 146 241 160 241 177 c 0
 241 194 255 207 272 207 c 2
 393 207 l 2
 410 207 423 194 423 177 c 0
 423 160 410 146 393 146 c 2
393 9 m 2
 272 9 l 2
 255 9 241 22 241 39 c 0
 241 56 255 70 272 70 c 2
 393 70 l 2
 410 70 423 56 423 39 c 0
 423 22 410 9 393 9 c 2
633 834 m 2
 31 834 l 2
 14 834 1 847 1 864 c 0
 1 881 14 895 31 895 c 2
 633 895 l 2
 650 895 664 881 664 864 c 0
 664 847 650 834 633 834 c 2
EndSplineSet
Validated: 1
EndChar

StartChar: f
Encoding: 102 102 19
Width: 1024
VWidth: 0
Flags: W
HStem: 9 61<2.31177 180.688> 146 61<2.31177 181.596> 284 61<2.31177 181.596> 421 61<2.31177 421.596> 559 61<2.31177 181.596> 696 61<2.31177 180.688> 834 61<2.31177 662.596>
VStem: 1 182<10.3118 68.5959 147.404 205.688 285.312 343.596 560.312 618.596 697.404 755.688>
LayerCount: 2
Fore
SplineSet
633 834 m 2
 31 834 l 2
 14 834 1 847 1 864 c 0
 1 881 14 895 31 895 c 2
 633 895 l 2
 650 895 664 881 664 864 c 0
 664 847 650 834 633 834 c 2
152 9 m 2
 31 9 l 2
 14 9 1 22 1 39 c 0
 1 56 14 70 31 70 c 2
 152 70 l 2
 169 70 182 56 182 39 c 0
 182 22 169 9 152 9 c 2
392 421 m 2
 31 421 l 2
 14 421 1 435 1 452 c 0
 1 469 14 482 31 482 c 2
 392 482 l 2
 409 482 423 469 423 452 c 0
 423 435 409 421 392 421 c 2
152 696 m 2
 31 696 l 2
 14 696 1 710 1 727 c 0
 1 744 14 757 31 757 c 2
 152 757 l 2
 169 757 182 744 182 727 c 0
 182 710 169 696 152 696 c 2
31 559 m 2
 14 559 1 572 1 589 c 0
 1 606 14 620 31 620 c 2
 152 620 l 2
 169 620 183 606 183 589 c 0
 183 572 169 559 152 559 c 2
 31 559 l 2
152 284 m 2
 31 284 l 2
 14 284 1 297 1 314 c 0
 1 331 14 345 31 345 c 2
 152 345 l 2
 169 345 183 331 183 314 c 0
 183 297 169 284 152 284 c 2
31 146 m 2
 14 146 1 160 1 177 c 0
 1 194 14 207 31 207 c 2
 152 207 l 2
 169 207 183 194 183 177 c 0
 183 160 169 146 152 146 c 2
 31 146 l 2
EndSplineSet
Validated: 1
EndChar

StartChar: glyph20
Encoding: 262 9786 20
Width: 1024
VWidth: 0
Flags: W
HStem: 146 61<242.404 662.596> 284 61<122.404 301.596 603.404 782.596> 421 61<2.31177 181.596 724.312 903.596> 834 61<122.404 301.596 603.404 782.688>
VStem: 121 182<285.312 343.596 835.312 893.596> 602 182<285.312 343.596 835.312 893.596>
LayerCount: 2
Fore
SplineSet
633 146 m 2
 272 146 l 2
 255 146 241 160 241 177 c 0
 241 194 255 207 272 207 c 2
 633 207 l 2
 650 207 664 194 664 177 c 0
 664 160 650 146 633 146 c 2
753 284 m 2
 633 284 l 2
 616 284 602 297 602 314 c 0
 602 331 616 345 633 345 c 2
 753 345 l 2
 770 345 784 331 784 314 c 0
 784 297 770 284 753 284 c 2
874 421 m 2
 753 421 l 2
 736 421 723 435 723 452 c 0
 723 469 736 482 753 482 c 2
 874 482 l 2
 891 482 905 469 905 452 c 0
 905 435 891 421 874 421 c 2
272 284 m 2
 152 284 l 2
 135 284 121 297 121 314 c 0
 121 331 135 345 152 345 c 2
 272 345 l 2
 289 345 303 331 303 314 c 0
 303 297 289 284 272 284 c 2
152 421 m 2
 31 421 l 2
 14 421 1 435 1 452 c 0
 1 469 14 482 31 482 c 2
 152 482 l 2
 169 482 183 469 183 452 c 0
 183 435 169 421 152 421 c 2
272 834 m 2
 152 834 l 2
 135 834 121 847 121 864 c 0
 121 881 135 895 152 895 c 2
 272 895 l 2
 289 895 303 881 303 864 c 0
 303 847 289 834 272 834 c 2
754 834 m 2
 633 834 l 2
 616 834 602 847 602 864 c 0
 602 881 616 895 633 895 c 2
 754 895 l 2
 771 895 784 881 784 864 c 0
 784 847 771 834 754 834 c 2
EndSplineSet
Validated: 1
EndChar

StartChar: r
Encoding: 114 114 21
Width: 1024
VWidth: 0
Flags: W
HStem: 9 61<2.31177 181.596 483.404 662.596> 146 61<2.31177 181.596 363.312 542.596> 284 61<2.31177 181.596 242.404 421.688> 421 61<2.31177 542.596> 559 61<2.31177 181.596 483.404 662.596> 696 61<2.31177 181.596 483.404 662.688> 834 61<2.31177 542.596>
VStem: 1 182<10.3118 68.5959 147.404 205.688 285.312 343.596 560.312 618.596 697.404 755.688> 482 182<10.3118 68.5959 560.312 618.596 697.404 755.688>
LayerCount: 2
Fore
SplineSet
513 834 m 2
 31 834 l 2
 14 834 1 847 1 864 c 0
 1 881 14 895 31 895 c 2
 513 895 l 2
 530 895 544 881 544 864 c 0
 544 847 530 834 513 834 c 2
513 421 m 2
 31 421 l 2
 14 421 1 435 1 452 c 0
 1 469 14 482 31 482 c 2
 513 482 l 2
 530 482 544 469 544 452 c 0
 544 435 530 421 513 421 c 2
152 696 m 2
 31 696 l 2
 14 696 1 710 1 727 c 0
 1 744 14 757 31 757 c 2
 152 757 l 2
 169 757 183 744 183 727 c 0
 183 710 169 696 152 696 c 2
152 559 m 2
 31 559 l 2
 14 559 1 572 1 589 c 0
 1 606 14 620 31 620 c 2
 152 620 l 2
 169 620 183 606 183 589 c 0
 183 572 169 559 152 559 c 2
152 284 m 2
 31 284 l 2
 14 284 1 297 1 314 c 0
 1 331 14 345 31 345 c 2
 152 345 l 2
 169 345 183 331 183 314 c 0
 183 297 169 284 152 284 c 2
152 146 m 2
 31 146 l 2
 14 146 1 160 1 177 c 0
 1 194 14 207 31 207 c 2
 152 207 l 2
 169 207 183 194 183 177 c 0
 183 160 169 146 152 146 c 2
152 9 m 2
 31 9 l 2
 14 9 1 22 1 39 c 0
 1 56 14 70 31 70 c 2
 152 70 l 2
 169 70 183 56 183 39 c 0
 183 22 169 9 152 9 c 2
393 284 m 2
 272 284 l 2
 255 284 241 297 241 314 c 0
 241 331 255 345 272 345 c 2
 393 345 l 2
 410 345 423 331 423 314 c 0
 423 297 410 284 393 284 c 2
513 146 m 2
 392 146 l 2
 375 146 362 160 362 177 c 0
 362 194 375 207 392 207 c 2
 513 207 l 2
 530 207 544 194 544 177 c 0
 544 160 530 146 513 146 c 2
633 9 m 2
 513 9 l 2
 496 9 482 22 482 39 c 0
 482 56 496 70 513 70 c 2
 633 70 l 2
 650 70 664 56 664 39 c 0
 664 22 650 9 633 9 c 2
634 696 m 2
 513 696 l 2
 496 696 482 710 482 727 c 0
 482 744 496 757 513 757 c 2
 634 757 l 2
 651 757 664 744 664 727 c 0
 664 710 651 696 634 696 c 2
633 559 m 2
 513 559 l 2
 496 559 482 572 482 589 c 0
 482 606 496 620 513 620 c 2
 633 620 l 2
 650 620 664 606 664 589 c 0
 664 572 650 559 633 559 c 2
EndSplineSet
Validated: 1
EndChar

StartChar: d
Encoding: 100 100 22
Width: 1024
VWidth: 0
Flags: W
HStem: 9 61<2.31177 542.596> 146 61<122.404 301.596 483.404 662.596> 284 61<122.404 301.596 483.404 662.596> 421 61<122.404 301.596 483.404 662.596> 559 61<122.404 301.596 483.404 662.596> 696 61<122.404 301.596 483.404 662.596> 834 61<2.31177 542.596>
VStem: 121 182<147.404 205.688 285.312 343.596 422.404 480.688 560.312 618.596 697.404 755.688> 482 182<147.404 205.688 285.312 343.596 422.404 480.688 560.312 618.596 697.404 755.688>
LayerCount: 2
Fore
SplineSet
513 834 m 2
 31 834 l 2
 14 834 1 847 1 864 c 0
 1 881 14 895 31 895 c 2
 513 895 l 2
 530 895 544 881 544 864 c 0
 544 847 530 834 513 834 c 2
513 9 m 2
 31 9 l 2
 14 9 1 22 1 39 c 0
 1 56 14 70 31 70 c 2
 513 70 l 2
 530 70 544 56 544 39 c 0
 544 22 530 9 513 9 c 2
272 146 m 2
 152 146 l 2
 135 146 121 160 121 177 c 0
 121 194 135 207 152 207 c 2
 272 207 l 2
 289 207 303 194 303 177 c 0
 303 160 289 146 272 146 c 2
272 284 m 2
 152 284 l 2
 135 284 121 297 121 314 c 0
 121 331 135 345 152 345 c 2
 272 345 l 2
 289 345 303 331 303 314 c 0
 303 297 289 284 272 284 c 2
272 421 m 2
 152 421 l 2
 135 421 121 435 121 452 c 0
 121 469 135 482 152 482 c 2
 272 482 l 2
 289 482 303 469 303 452 c 0
 303 435 289 421 272 421 c 2
272 559 m 2
 152 559 l 2
 135 559 121 572 121 589 c 0
 121 606 135 620 152 620 c 2
 272 620 l 2
 289 620 303 606 303 589 c 0
 303 572 289 559 272 559 c 2
272 696 m 2
 152 696 l 2
 135 696 121 710 121 727 c 0
 121 744 135 757 152 757 c 2
 272 757 l 2
 289 757 303 744 303 727 c 0
 303 710 289 696 272 696 c 2
633 696 m 2
 513 696 l 2
 496 696 482 710 482 727 c 0
 482 744 496 757 513 757 c 2
 633 757 l 2
 650 757 664 744 664 727 c 0
 664 710 650 696 633 696 c 2
633 559 m 2
 513 559 l 2
 496 559 482 572 482 589 c 0
 482 606 496 620 513 620 c 2
 633 620 l 2
 650 620 664 606 664 589 c 0
 664 572 650 559 633 559 c 2
633 421 m 2
 513 421 l 2
 496 421 482 435 482 452 c 0
 482 469 496 482 513 482 c 2
 633 482 l 2
 650 482 664 469 664 452 c 0
 664 435 650 421 633 421 c 2
633 284 m 2
 513 284 l 2
 496 284 482 297 482 314 c 0
 482 331 496 345 513 345 c 2
 633 345 l 2
 650 345 664 331 664 314 c 0
 664 297 650 284 633 284 c 2
633 146 m 2
 513 146 l 2
 496 146 482 160 482 177 c 0
 482 194 496 207 513 207 c 2
 633 207 l 2
 650 207 664 194 664 177 c 0
 664 160 650 146 633 146 c 2
EndSplineSet
Validated: 1
EndChar

StartChar: glyph23
Encoding: 263 9619 23
Width: 1024
VWidth: 0
Flags: W
HStem: -129 61<2.31177 1023.6> 8 61<2.31177 1023.6> 145 61<2.31177 1023.6> 283 61<2.31177 1023.6> 420 62<2.31177 1023.6> 558 61<2.31177 1023.6> 695 62<2.31177 1021.6> 833 61<2.31177 1023.6>
LayerCount: 2
Fore
SplineSet
992 695 m 2
 31 695 l 2
 14 695 1 709 1 726 c 0
 1 743 14 757 31 757 c 2
 992 757 l 2
 1009 757 1023 743 1023 726 c 0
 1023 709 1009 695 992 695 c 2
994 558 m 2
 31 558 l 2
 14 558 1 571 1 588 c 0
 1 605 14 619 31 619 c 2
 994 619 l 2
 1011 619 1025 605 1025 588 c 0
 1025 571 1011 558 994 558 c 2
994 420 m 2
 31 420 l 2
 14 420 1 434 1 451 c 0
 1 468 14 482 31 482 c 2
 994 482 l 2
 1011 482 1025 468 1025 451 c 0
 1025 434 1011 420 994 420 c 2
994 283 m 2
 31 283 l 2
 14 283 1 296 1 313 c 0
 1 330 14 344 31 344 c 2
 994 344 l 2
 1011 344 1025 330 1025 313 c 0
 1025 296 1011 283 994 283 c 2
994 145 m 2
 31 145 l 2
 14 145 1 159 1 176 c 0
 1 193 14 206 31 206 c 2
 994 206 l 2
 1011 206 1025 193 1025 176 c 0
 1025 159 1011 145 994 145 c 2
994 8 m 2
 31 8 l 2
 14 8 1 21 1 38 c 0
 1 55 14 69 31 69 c 2
 994 69 l 2
 1011 69 1025 55 1025 38 c 0
 1025 21 1011 8 994 8 c 2
994 -129 m 2
 31 -129 l 2
 14 -129 1 -115 1 -98 c 0
 1 -81 14 -68 31 -68 c 2
 994 -68 l 2
 1011 -68 1025 -81 1025 -98 c 0
 1025 -115 1011 -129 994 -129 c 2
994 833 m 2
 31 833 l 2
 14 833 1 846 1 863 c 0
 1 880 14 894 31 894 c 2
 994 894 l 2
 1011 894 1025 880 1025 863 c 0
 1025 846 1011 833 994 833 c 2
EndSplineSet
Validated: 1
EndChar

StartChar: e
Encoding: 101 101 24
Width: 1024
VWidth: 0
Flags: W
HStem: 9 61<2.31177 662.596> 146 61<2.31177 181.596> 284 61<2.31177 181.596> 421 61<2.31177 421.596> 559 61<2.31177 181.596> 696 61<2.31177 180.688> 834 61<2.31177 662.596>
VStem: 1 182<147.404 205.688 285.312 343.596 560.312 618.596 697.404 755.688>
LayerCount: 2
Fore
SplineSet
633 834 m 2
 31 834 l 2
 14 834 1 847 1 864 c 0
 1 881 14 895 31 895 c 2
 633 895 l 2
 650 895 664 881 664 864 c 0
 664 847 650 834 633 834 c 2
633 9 m 2
 31 9 l 2
 14 9 1 22 1 39 c 0
 1 56 14 70 31 70 c 2
 633 70 l 2
 650 70 664 56 664 39 c 0
 664 22 650 9 633 9 c 2
392 421 m 2
 31 421 l 2
 14 421 1 435 1 452 c 0
 1 469 14 482 31 482 c 2
 392 482 l 2
 409 482 423 469 423 452 c 0
 423 435 409 421 392 421 c 2
152 696 m 2
 31 696 l 2
 14 696 1 710 1 727 c 0
 1 744 14 757 31 757 c 2
 152 757 l 2
 169 757 182 744 182 727 c 0
 182 710 169 696 152 696 c 2
31 559 m 2
 14 559 1 572 1 589 c 0
 1 606 14 620 31 620 c 2
 152 620 l 2
 169 620 183 606 183 589 c 0
 183 572 169 559 152 559 c 2
 31 559 l 2
152 284 m 2
 31 284 l 2
 14 284 1 297 1 314 c 0
 1 331 14 345 31 345 c 2
 152 345 l 2
 169 345 183 331 183 314 c 0
 183 297 169 284 152 284 c 2
31 146 m 2
 14 146 1 160 1 177 c 0
 1 194 14 207 31 207 c 2
 152 207 l 2
 169 207 183 194 183 177 c 0
 183 160 169 146 152 146 c 2
 31 146 l 2
EndSplineSet
Validated: 1
EndChar

StartChar: s
Encoding: 115 115 25
Width: 1024
VWidth: 0
Flags: W
HStem: 9 61<122.404 542.596> 146 61<2.31177 180.688 483.404 662.596> 284 61<363.312 542.596> 421 61<242.404 421.688> 559 61<122.404 301.688> 696 61<2.31177 181.596 483.404 662.688> 834 61<122.404 542.596>
VStem: 1 181<146.983 206.082 696.983 756.082> 482 182<147.404 205.688 697.404 755.688>
LayerCount: 2
Fore
SplineSet
513 834 m 2
 152 834 l 2
 135 834 121 847 121 864 c 0
 121 881 135 895 152 895 c 2
 513 895 l 2
 530 895 544 881 544 864 c 0
 544 847 530 834 513 834 c 2
152 9 m 2
 135 9 121 22 121 39 c 0
 121 56 135 70 152 70 c 2
 513 70 l 2
 530 70 544 56 544 39 c 0
 544 22 530 9 513 9 c 2
 152 9 l 2
152 146 m 2
 31 146 l 2
 14 146 1 160 1 177 c 0
 1 194 14 207 31 207 c 2
 152 207 l 2
 169 207 182 194 182 177 c 0
 182 160 169 146 152 146 c 2
633 146 m 2
 513 146 l 2
 496 146 482 160 482 177 c 0
 482 194 496 207 513 207 c 2
 633 207 l 2
 650 207 664 194 664 177 c 0
 664 160 650 146 633 146 c 2
513 284 m 2
 392 284 l 2
 375 284 362 297 362 314 c 0
 362 331 375 345 392 345 c 2
 513 345 l 2
 530 345 544 331 544 314 c 0
 544 297 530 284 513 284 c 2
393 421 m 2
 272 421 l 2
 255 421 241 435 241 452 c 0
 241 469 255 482 272 482 c 2
 393 482 l 2
 410 482 423 469 423 452 c 0
 423 435 410 421 393 421 c 2
273 559 m 2
 152 559 l 2
 135 559 121 572 121 589 c 0
 121 606 135 620 152 620 c 2
 273 620 l 2
 290 620 303 606 303 589 c 0
 303 572 290 559 273 559 c 2
152 696 m 2
 31 696 l 2
 14 696 1 710 1 727 c 0
 1 744 14 757 31 757 c 2
 152 757 l 2
 169 757 183 744 183 727 c 0
 183 710 169 696 152 696 c 2
634 696 m 2
 513 696 l 2
 496 696 482 710 482 727 c 0
 482 744 496 757 513 757 c 2
 634 757 l 2
 651 757 664 744 664 727 c 0
 664 710 651 696 634 696 c 2
EndSplineSet
Validated: 1
EndChar

StartChar: b
Encoding: 98 98 26
Width: 1024
VWidth: 0
Flags: W
HStem: 9 61<2.31177 542.596> 146 61<122.404 301.596 483.404 662.596> 284 61<122.404 301.596 483.404 662.596> 421 61<122.404 542.596> 559 61<122.404 301.596 483.404 662.596> 696 61<122.404 301.596 483.404 662.596> 834 61<2.31177 542.596>
VStem: 121 182<147.404 205.688 285.312 343.596 560.312 618.596 697.404 755.688> 482 182<147.404 205.688 285.312 343.596 560.312 618.596 697.404 755.688>
LayerCount: 2
Fore
SplineSet
513 834 m 2
 31 834 l 2
 14 834 1 847 1 864 c 0
 1 881 14 895 31 895 c 2
 513 895 l 2
 530 895 544 881 544 864 c 0
 544 847 530 834 513 834 c 2
513 421 m 2
 152 421 l 2
 135 421 121 435 121 452 c 0
 121 469 135 482 152 482 c 2
 513 482 l 2
 530 482 544 469 544 452 c 0
 544 435 530 421 513 421 c 2
513 9 m 2
 31 9 l 2
 14 9 1 22 1 39 c 0
 1 56 14 70 31 70 c 2
 513 70 l 2
 530 70 544 56 544 39 c 0
 544 22 530 9 513 9 c 2
272 696 m 2
 152 696 l 2
 135 696 121 710 121 727 c 0
 121 744 135 757 152 757 c 2
 272 757 l 2
 289 757 303 744 303 727 c 0
 303 710 289 696 272 696 c 2
272 559 m 2
 152 559 l 2
 135 559 121 572 121 589 c 0
 121 606 135 620 152 620 c 2
 272 620 l 2
 289 620 303 606 303 589 c 0
 303 572 289 559 272 559 c 2
272 284 m 2
 152 284 l 2
 135 284 121 297 121 314 c 0
 121 331 135 345 152 345 c 2
 272 345 l 2
 289 345 303 331 303 314 c 0
 303 297 289 284 272 284 c 2
272 146 m 2
 152 146 l 2
 135 146 121 160 121 177 c 0
 121 194 135 207 152 207 c 2
 272 207 l 2
 289 207 303 194 303 177 c 0
 303 160 289 146 272 146 c 2
633 696 m 2
 513 696 l 2
 496 696 482 710 482 727 c 0
 482 744 496 757 513 757 c 2
 633 757 l 2
 650 757 664 744 664 727 c 0
 664 710 650 696 633 696 c 2
633 559 m 2
 513 559 l 2
 496 559 482 572 482 589 c 0
 482 606 496 620 513 620 c 2
 633 620 l 2
 650 620 664 606 664 589 c 0
 664 572 650 559 633 559 c 2
633 284 m 2
 513 284 l 2
 496 284 482 297 482 314 c 0
 482 331 496 345 513 345 c 2
 633 345 l 2
 650 345 664 331 664 314 c 0
 664 297 650 284 633 284 c 2
633 146 m 2
 513 146 l 2
 496 146 482 160 482 177 c 0
 482 194 496 207 513 207 c 2
 633 207 l 2
 650 207 664 194 664 177 c 0
 664 160 650 146 633 146 c 2
EndSplineSet
Validated: 1
EndChar

StartChar: I
Encoding: 73 73 27
Width: 1024
VWidth: 0
Flags: W
HStem: 9 61<122.404 542.596> 146 61<242.404 421.596> 284 61<242.404 421.688> 421 61<242.404 421.688> 559 61<242.404 421.688> 696 61<242.404 421.688> 834 61<122.404 542.596>
VStem: 241 182<147.404 205.688 285.312 343.596 422.404 480.688 560.312 618.596 697.404 755.688>
LayerCount: 2
Fore
SplineSet
513 834 m 2
 152 834 l 2
 135 834 121 847 121 864 c 0
 121 881 135 895 152 895 c 2
 513 895 l 2
 530 895 544 881 544 864 c 0
 544 847 530 834 513 834 c 2
513 9 m 2
 152 9 l 2
 135 9 121 22 121 39 c 0
 121 56 135 70 152 70 c 2
 513 70 l 2
 530 70 544 56 544 39 c 0
 544 22 530 9 513 9 c 2
392 146 m 2
 272 146 l 2
 255 146 241 160 241 177 c 0
 241 194 255 207 272 207 c 2
 392 207 l 2
 409 207 423 194 423 177 c 0
 423 160 409 146 392 146 c 2
393 284 m 2
 272 284 l 2
 255 284 241 297 241 314 c 0
 241 331 255 345 272 345 c 2
 393 345 l 2
 410 345 423 331 423 314 c 0
 423 297 410 284 393 284 c 2
393 421 m 2
 272 421 l 2
 255 421 241 435 241 452 c 0
 241 469 255 482 272 482 c 2
 393 482 l 2
 410 482 423 469 423 452 c 0
 423 435 410 421 393 421 c 2
393 559 m 2
 272 559 l 2
 255 559 241 572 241 589 c 0
 241 606 255 620 272 620 c 2
 393 620 l 2
 410 620 423 606 423 589 c 0
 423 572 410 559 393 559 c 2
393 696 m 2
 272 696 l 2
 255 696 241 710 241 727 c 0
 241 744 255 757 272 757 c 2
 393 757 l 2
 410 757 423 744 423 727 c 0
 423 710 410 696 393 696 c 2
EndSplineSet
Validated: 1
EndChar

StartChar: C
Encoding: 67 67 28
Width: 1024
VWidth: 0
Flags: W
HStem: 9 61<122.404 542.596> 146 61<2.31177 181.596 483.404 662.596> 284 61<2.31177 181.596> 421 61<2.31177 181.596> 559 61<2.31177 181.596> 696 61<2.31177 180.688 483.404 662.596> 834 61<122.404 542.596>
VStem: 1 182<147.404 205.688 285.312 343.596 422.404 480.688 560.312 618.596 697.404 755.688> 482 182<147.404 205.688 697.404 755.688>
LayerCount: 2
Fore
SplineSet
513 834 m 2
 152 834 l 2
 135 834 121 847 121 864 c 0
 121 881 135 895 152 895 c 2
 513 895 l 2
 530 895 544 881 544 864 c 0
 544 847 530 834 513 834 c 2
513 9 m 2
 152 9 l 2
 135 9 121 22 121 39 c 0
 121 56 135 70 152 70 c 2
 513 70 l 2
 530 70 544 56 544 39 c 0
 544 22 530 9 513 9 c 2
152 696 m 2
 31 696 l 2
 14 696 1 710 1 727 c 0
 1 744 14 757 31 757 c 2
 152 757 l 2
 169 757 182 744 182 727 c 0
 182 710 169 696 152 696 c 2
152 559 m 2
 31 559 l 2
 14 559 1 572 1 589 c 0
 1 606 14 620 31 620 c 2
 152 620 l 2
 169 620 183 606 183 589 c 0
 183 572 169 559 152 559 c 2
152 421 m 2
 31 421 l 2
 14 421 1 435 1 452 c 0
 1 469 14 482 31 482 c 2
 152 482 l 2
 169 482 183 469 183 452 c 0
 183 435 169 421 152 421 c 2
152 284 m 2
 31 284 l 2
 14 284 1 297 1 314 c 0
 1 331 14 345 31 345 c 2
 152 345 l 2
 169 345 183 331 183 314 c 0
 183 297 169 284 152 284 c 2
152 146 m 2
 31 146 l 2
 14 146 1 160 1 177 c 0
 1 194 14 207 31 207 c 2
 152 207 l 2
 169 207 183 194 183 177 c 0
 183 160 169 146 152 146 c 2
633 696 m 2
 513 696 l 2
 496 696 482 710 482 727 c 0
 482 744 496 757 513 757 c 2
 633 757 l 2
 650 757 664 744 664 727 c 0
 664 710 650 696 633 696 c 2
633 146 m 2
 513 146 l 2
 496 146 482 160 482 177 c 0
 482 194 496 207 513 207 c 2
 633 207 l 2
 650 207 664 194 664 177 c 0
 664 160 650 146 633 146 c 2
EndSplineSet
Validated: 1
EndChar

StartChar: B
Encoding: 66 66 29
Width: 1024
VWidth: 0
Flags: W
HStem: 9 61<2.31177 542.596> 146 61<122.404 301.596 483.404 662.596> 284 61<122.404 301.596 483.404 662.596> 421 61<122.404 542.596> 559 61<122.404 301.596 483.404 662.596> 696 61<122.404 301.596 483.404 662.596> 834 61<2.31177 542.596>
VStem: 121 182<147.404 205.688 285.312 343.596 560.312 618.596 697.404 755.688> 482 182<147.404 205.688 285.312 343.596 560.312 618.596 697.404 755.688>
LayerCount: 2
Fore
SplineSet
513 834 m 2
 31 834 l 2
 14 834 1 847 1 864 c 0
 1 881 14 895 31 895 c 2
 513 895 l 2
 530 895 544 881 544 864 c 0
 544 847 530 834 513 834 c 2
513 421 m 2
 152 421 l 2
 135 421 121 435 121 452 c 0
 121 469 135 482 152 482 c 2
 513 482 l 2
 530 482 544 469 544 452 c 0
 544 435 530 421 513 421 c 2
513 9 m 2
 31 9 l 2
 14 9 1 22 1 39 c 0
 1 56 14 70 31 70 c 2
 513 70 l 2
 530 70 544 56 544 39 c 0
 544 22 530 9 513 9 c 2
272 696 m 2
 152 696 l 2
 135 696 121 710 121 727 c 0
 121 744 135 757 152 757 c 2
 272 757 l 2
 289 757 303 744 303 727 c 0
 303 710 289 696 272 696 c 2
272 559 m 2
 152 559 l 2
 135 559 121 572 121 589 c 0
 121 606 135 620 152 620 c 2
 272 620 l 2
 289 620 303 606 303 589 c 0
 303 572 289 559 272 559 c 2
272 284 m 2
 152 284 l 2
 135 284 121 297 121 314 c 0
 121 331 135 345 152 345 c 2
 272 345 l 2
 289 345 303 331 303 314 c 0
 303 297 289 284 272 284 c 2
272 146 m 2
 152 146 l 2
 135 146 121 160 121 177 c 0
 121 194 135 207 152 207 c 2
 272 207 l 2
 289 207 303 194 303 177 c 0
 303 160 289 146 272 146 c 2
633 696 m 2
 513 696 l 2
 496 696 482 710 482 727 c 0
 482 744 496 757 513 757 c 2
 633 757 l 2
 650 757 664 744 664 727 c 0
 664 710 650 696 633 696 c 2
633 559 m 2
 513 559 l 2
 496 559 482 572 482 589 c 0
 482 606 496 620 513 620 c 2
 633 620 l 2
 650 620 664 606 664 589 c 0
 664 572 650 559 633 559 c 2
633 284 m 2
 513 284 l 2
 496 284 482 297 482 314 c 0
 482 331 496 345 513 345 c 2
 633 345 l 2
 650 345 664 331 664 314 c 0
 664 297 650 284 633 284 c 2
633 146 m 2
 513 146 l 2
 496 146 482 160 482 177 c 0
 482 194 496 207 513 207 c 2
 633 207 l 2
 650 207 664 194 664 177 c 0
 664 160 650 146 633 146 c 2
EndSplineSet
Validated: 1
EndChar

StartChar: H
Encoding: 72 72 30
Width: 1024
VWidth: 0
Flags: W
HStem: 9 61<2.31177 181.596 483.404 662.596> 146 61<2.31177 181.596 483.404 662.596> 284 61<2.31177 181.596 483.404 662.596> 421 61<2.31177 662.596> 559 61<2.31177 181.596 483.404 662.596> 696 61<2.31177 181.596 483.404 662.596> 834 61<2.31177 181.596 483.404 662.596>
VStem: 1 182<10.3118 68.5959 147.404 205.688 285.312 343.596 560.312 618.596 697.404 755.688 835.312 893.596> 482 182<10.3118 68.5959 147.404 205.688 285.312 343.596 560.312 618.596 697.404 755.688 835.312 893.596>
LayerCount: 2
Fore
SplineSet
152 834 m 2
 31 834 l 2
 14 834 1 847 1 864 c 0
 1 881 14 895 31 895 c 2
 152 895 l 2
 169 895 183 881 183 864 c 0
 183 847 169 834 152 834 c 2
152 696 m 2
 31 696 l 2
 14 696 1 710 1 727 c 0
 1 744 14 757 31 757 c 2
 152 757 l 2
 169 757 183 744 183 727 c 0
 183 710 169 696 152 696 c 2
152 559 m 2
 31 559 l 2
 14 559 1 572 1 589 c 0
 1 606 14 620 31 620 c 2
 152 620 l 2
 169 620 183 606 183 589 c 0
 183 572 169 559 152 559 c 2
152 284 m 2
 31 284 l 2
 14 284 1 297 1 314 c 0
 1 331 14 345 31 345 c 2
 152 345 l 2
 169 345 183 331 183 314 c 0
 183 297 169 284 152 284 c 2
152 146 m 2
 31 146 l 2
 14 146 1 160 1 177 c 0
 1 194 14 207 31 207 c 2
 152 207 l 2
 169 207 183 194 183 177 c 0
 183 160 169 146 152 146 c 2
152 9 m 2
 31 9 l 2
 14 9 1 22 1 39 c 0
 1 56 14 70 31 70 c 2
 152 70 l 2
 169 70 183 56 183 39 c 0
 183 22 169 9 152 9 c 2
633 834 m 2
 513 834 l 2
 496 834 482 847 482 864 c 0
 482 881 496 895 513 895 c 2
 633 895 l 2
 650 895 664 881 664 864 c 0
 664 847 650 834 633 834 c 2
633 696 m 2
 513 696 l 2
 496 696 482 710 482 727 c 0
 482 744 496 757 513 757 c 2
 633 757 l 2
 650 757 664 744 664 727 c 0
 664 710 650 696 633 696 c 2
633 559 m 2
 513 559 l 2
 496 559 482 572 482 589 c 0
 482 606 496 620 513 620 c 2
 633 620 l 2
 650 620 664 606 664 589 c 0
 664 572 650 559 633 559 c 2
633 284 m 2
 513 284 l 2
 496 284 482 297 482 314 c 0
 482 331 496 345 513 345 c 2
 633 345 l 2
 650 345 664 331 664 314 c 0
 664 297 650 284 633 284 c 2
633 146 m 2
 513 146 l 2
 496 146 482 160 482 177 c 0
 482 194 496 207 513 207 c 2
 633 207 l 2
 650 207 664 194 664 177 c 0
 664 160 650 146 633 146 c 2
633 9 m 2
 513 9 l 2
 496 9 482 22 482 39 c 0
 482 56 496 70 513 70 c 2
 633 70 l 2
 650 70 664 56 664 39 c 0
 664 22 650 9 633 9 c 2
633 421 m 2
 31 421 l 2
 14 421 1 435 1 452 c 0
 1 469 14 482 31 482 c 2
 633 482 l 2
 650 482 664 469 664 452 c 0
 664 435 650 421 633 421 c 2
EndSplineSet
Validated: 1
EndChar

StartChar: c
Encoding: 99 99 31
Width: 1024
VWidth: 0
Flags: W
HStem: 9 61<122.404 542.596> 146 61<2.31177 181.596 483.404 662.596> 284 61<2.31177 181.596> 421 61<2.31177 181.596> 559 61<2.31177 181.596> 696 61<2.31177 180.688 483.404 662.596> 834 61<122.404 542.596>
VStem: 1 182<147.404 205.688 285.312 343.596 422.404 480.688 560.312 618.596 697.404 755.688> 482 182<147.404 205.688 697.404 755.688>
LayerCount: 2
Fore
SplineSet
513 834 m 2
 152 834 l 2
 135 834 121 847 121 864 c 0
 121 881 135 895 152 895 c 2
 513 895 l 2
 530 895 544 881 544 864 c 0
 544 847 530 834 513 834 c 2
513 9 m 2
 152 9 l 2
 135 9 121 22 121 39 c 0
 121 56 135 70 152 70 c 2
 513 70 l 2
 530 70 544 56 544 39 c 0
 544 22 530 9 513 9 c 2
152 696 m 2
 31 696 l 2
 14 696 1 710 1 727 c 0
 1 744 14 757 31 757 c 2
 152 757 l 2
 169 757 182 744 182 727 c 0
 182 710 169 696 152 696 c 2
152 559 m 2
 31 559 l 2
 14 559 1 572 1 589 c 0
 1 606 14 620 31 620 c 2
 152 620 l 2
 169 620 183 606 183 589 c 0
 183 572 169 559 152 559 c 2
152 421 m 2
 31 421 l 2
 14 421 1 435 1 452 c 0
 1 469 14 482 31 482 c 2
 152 482 l 2
 169 482 183 469 183 452 c 0
 183 435 169 421 152 421 c 2
152 284 m 2
 31 284 l 2
 14 284 1 297 1 314 c 0
 1 331 14 345 31 345 c 2
 152 345 l 2
 169 345 183 331 183 314 c 0
 183 297 169 284 152 284 c 2
152 146 m 2
 31 146 l 2
 14 146 1 160 1 177 c 0
 1 194 14 207 31 207 c 2
 152 207 l 2
 169 207 183 194 183 177 c 0
 183 160 169 146 152 146 c 2
633 696 m 2
 513 696 l 2
 496 696 482 710 482 727 c 0
 482 744 496 757 513 757 c 2
 633 757 l 2
 650 757 664 744 664 727 c 0
 664 710 650 696 633 696 c 2
633 146 m 2
 513 146 l 2
 496 146 482 160 482 177 c 0
 482 194 496 207 513 207 c 2
 633 207 l 2
 650 207 664 194 664 177 c 0
 664 160 650 146 633 146 c 2
EndSplineSet
Validated: 1
EndChar

StartChar: colon
Encoding: 58 58 32
Width: 1024
VWidth: 0
Flags: W
HStem: 146 61<122.404 421.596> 284 61<122.404 421.596> 559 61<122.404 421.596> 696 61<122.404 421.596>
VStem: 121 302<147.404 205.688 285.312 343.596 560.312 618.596 697.404 755.688>
LayerCount: 2
Fore
SplineSet
392 696 m 2
 152 696 l 2
 135 696 121 710 121 727 c 0
 121 744 135 757 152 757 c 2
 392 757 l 2
 409 757 423 744 423 727 c 0
 423 710 409 696 392 696 c 2
392 559 m 2
 152 559 l 2
 135 559 121 572 121 589 c 0
 121 606 135 620 152 620 c 2
 392 620 l 2
 409 620 423 606 423 589 c 0
 423 572 409 559 392 559 c 2
392 284 m 2
 152 284 l 2
 135 284 121 297 121 314 c 0
 121 331 135 345 152 345 c 2
 392 345 l 2
 409 345 423 331 423 314 c 0
 423 297 409 284 392 284 c 2
392 146 m 2
 152 146 l 2
 135 146 121 160 121 177 c 0
 121 194 135 207 152 207 c 2
 392 207 l 2
 409 207 423 194 423 177 c 0
 423 160 409 146 392 146 c 2
EndSplineSet
Validated: 1
EndChar

StartChar: at
Encoding: 64 64 33
Width: 1024
VWidth: 0
Flags: W
HStem: 9 61<122.404 662.596> 146 61<2.31177 181.596> 284 61<2.31177 181.596 242.404 542.596> 421 61<2.31177 181.596 242.404 662.596> 559 61<2.31177 181.596 242.404 421.688 483.404 662.596> 696 61<2.31177 180.688 483.404 662.596> 834 61<122.404 542.596>
VStem: 1 182<147.404 205.688 285.312 343.596 422.404 480.688 560.312 618.596 697.404 755.688> 482 182<560.312 618.596 697.404 755.688>
LayerCount: 2
Fore
SplineSet
513 834 m 2
 152 834 l 2
 135 834 121 847 121 864 c 0
 121 881 135 895 152 895 c 2
 513 895 l 2
 530 895 544 881 544 864 c 0
 544 847 530 834 513 834 c 2
152 696 m 2
 31 696 l 2
 14 696 1 710 1 727 c 0
 1 744 14 757 31 757 c 2
 152 757 l 2
 169 757 182 744 182 727 c 0
 182 710 169 696 152 696 c 2
152 559 m 2
 31 559 l 2
 14 559 1 572 1 589 c 0
 1 606 14 620 31 620 c 2
 152 620 l 2
 169 620 183 606 183 589 c 0
 183 572 169 559 152 559 c 2
152 421 m 2
 31 421 l 2
 14 421 1 435 1 452 c 0
 1 469 14 482 31 482 c 2
 152 482 l 2
 169 482 183 469 183 452 c 0
 183 435 169 421 152 421 c 2
152 284 m 2
 31 284 l 2
 14 284 1 297 1 314 c 0
 1 331 14 345 31 345 c 2
 152 345 l 2
 169 345 183 331 183 314 c 0
 183 297 169 284 152 284 c 2
152 146 m 2
 31 146 l 2
 14 146 1 160 1 177 c 0
 1 194 14 207 31 207 c 2
 152 207 l 2
 169 207 183 194 183 177 c 0
 183 160 169 146 152 146 c 2
633 9 m 2
 152 9 l 2
 135 9 121 22 121 39 c 0
 121 56 135 70 152 70 c 2
 633 70 l 2
 650 70 664 56 664 39 c 0
 664 22 650 9 633 9 c 2
633 696 m 2
 513 696 l 2
 496 696 482 710 482 727 c 0
 482 744 496 757 513 757 c 2
 633 757 l 2
 650 757 664 744 664 727 c 0
 664 710 650 696 633 696 c 2
633 559 m 2
 513 559 l 2
 496 559 482 572 482 589 c 0
 482 606 496 620 513 620 c 2
 633 620 l 2
 650 620 664 606 664 589 c 0
 664 572 650 559 633 559 c 2
393 559 m 2
 272 559 l 2
 255 559 241 572 241 589 c 0
 241 606 255 620 272 620 c 2
 393 620 l 2
 410 620 423 606 423 589 c 0
 423 572 410 559 393 559 c 2
633 421 m 2
 272 421 l 2
 255 421 241 435 241 452 c 0
 241 469 255 482 272 482 c 2
 633 482 l 2
 650 482 664 469 664 452 c 0
 664 435 650 421 633 421 c 2
513 284 m 2
 272 284 l 2
 255 284 241 297 241 314 c 0
 241 331 255 345 272 345 c 2
 513 345 l 2
 530 345 544 331 544 314 c 0
 544 297 530 284 513 284 c 2
EndSplineSet
Validated: 1
EndChar

StartChar: F
Encoding: 70 70 34
Width: 1024
VWidth: 0
Flags: W
HStem: 9 61<2.31177 180.688> 146 61<2.31177 181.596> 284 61<2.31177 181.596> 421 61<2.31177 421.596> 559 61<2.31177 181.596> 696 61<2.31177 180.688> 834 61<2.31177 662.596>
VStem: 1 182<10.3118 68.5959 147.404 205.688 285.312 343.596 560.312 618.596 697.404 755.688>
LayerCount: 2
Fore
SplineSet
633 834 m 2
 31 834 l 2
 14 834 1 847 1 864 c 0
 1 881 14 895 31 895 c 2
 633 895 l 2
 650 895 664 881 664 864 c 0
 664 847 650 834 633 834 c 2
152 9 m 2
 31 9 l 2
 14 9 1 22 1 39 c 0
 1 56 14 70 31 70 c 2
 152 70 l 2
 169 70 182 56 182 39 c 0
 182 22 169 9 152 9 c 2
392 421 m 2
 31 421 l 2
 14 421 1 435 1 452 c 0
 1 469 14 482 31 482 c 2
 392 482 l 2
 409 482 423 469 423 452 c 0
 423 435 409 421 392 421 c 2
152 696 m 2
 31 696 l 2
 14 696 1 710 1 727 c 0
 1 744 14 757 31 757 c 2
 152 757 l 2
 169 757 182 744 182 727 c 0
 182 710 169 696 152 696 c 2
31 559 m 2
 14 559 1 572 1 589 c 0
 1 606 14 620 31 620 c 2
 152 620 l 2
 169 620 183 606 183 589 c 0
 183 572 169 559 152 559 c 2
 31 559 l 2
152 284 m 2
 31 284 l 2
 14 284 1 297 1 314 c 0
 1 331 14 345 31 345 c 2
 152 345 l 2
 169 345 183 331 183 314 c 0
 183 297 169 284 152 284 c 2
31 146 m 2
 14 146 1 160 1 177 c 0
 1 194 14 207 31 207 c 2
 152 207 l 2
 169 207 183 194 183 177 c 0
 183 160 169 146 152 146 c 2
 31 146 l 2
EndSplineSet
Validated: 1
EndChar

StartChar: G
Encoding: 71 71 35
Width: 1024
VWidth: 0
Flags: W
HStem: 9 61<122.404 662.596> 146 61<2.31177 181.596 483.404 662.596> 284 61<2.31177 181.596 483.404 662.596> 421 61<2.31177 181.596 363.312 662.596> 559 61<2.31177 181.596> 696 61<2.31177 181.596> 834 61<122.404 662.596>
VStem: 1 182<147.404 205.688 285.312 343.596 422.404 480.688 560.312 618.596 697.404 755.688> 482 182<147.404 205.688 285.312 343.596>
LayerCount: 2
Fore
SplineSet
633 834 m 2
 152 834 l 2
 135 834 121 847 121 864 c 0
 121 881 135 895 152 895 c 2
 633 895 l 2
 650 895 664 881 664 864 c 0
 664 847 650 834 633 834 c 2
633 9 m 2
 152 9 l 2
 135 9 121 22 121 39 c 0
 121 56 135 70 152 70 c 2
 633 70 l 2
 650 70 664 56 664 39 c 0
 664 22 650 9 633 9 c 2
633 421 m 2
 392 421 l 2
 375 421 362 435 362 452 c 0
 362 469 375 482 392 482 c 2
 633 482 l 2
 650 482 664 469 664 452 c 0
 664 435 650 421 633 421 c 2
633 284 m 2
 513 284 l 2
 496 284 482 297 482 314 c 0
 482 331 496 345 513 345 c 2
 633 345 l 2
 650 345 664 331 664 314 c 0
 664 297 650 284 633 284 c 2
633 146 m 2
 513 146 l 2
 496 146 482 160 482 177 c 0
 482 194 496 207 513 207 c 2
 633 207 l 2
 650 207 664 194 664 177 c 0
 664 160 650 146 633 146 c 2
152 146 m 2
 31 146 l 2
 14 146 1 160 1 177 c 0
 1 194 14 207 31 207 c 2
 152 207 l 2
 169 207 183 194 183 177 c 0
 183 160 169 146 152 146 c 2
152 284 m 2
 31 284 l 2
 14 284 1 297 1 314 c 0
 1 331 14 345 31 345 c 2
 152 345 l 2
 169 345 183 331 183 314 c 0
 183 297 169 284 152 284 c 2
152 421 m 2
 31 421 l 2
 14 421 1 435 1 452 c 0
 1 469 14 482 31 482 c 2
 152 482 l 2
 169 482 183 469 183 452 c 0
 183 435 169 421 152 421 c 2
152 559 m 2
 31 559 l 2
 14 559 1 572 1 589 c 0
 1 606 14 620 31 620 c 2
 152 620 l 2
 169 620 183 606 183 589 c 0
 183 572 169 559 152 559 c 2
152 696 m 2
 31 696 l 2
 14 696 1 710 1 727 c 0
 1 744 14 757 31 757 c 2
 152 757 l 2
 169 757 183 744 183 727 c 0
 183 710 169 696 152 696 c 2
EndSplineSet
Validated: 1
EndChar

StartChar: A
Encoding: 65 65 36
Width: 1024
VWidth: 0
Flags: W
HStem: 9 61<2.31177 180.688 483.404 662.596> 146 61<2.31177 180.688 483.404 662.596> 284 61<2.31177 662.596> 421 61<2.31177 180.688 483.404 662.596> 559 61<2.31177 180.688 483.404 662.596> 696 61<122.404 301.596 363.312 542.596> 834 61<242.404 421.596>
VStem: 1 181<9.91782 69.0166 146.983 206.082 421.983 481.082 559.918 619.017> 482 182<10.3118 68.5959 147.404 205.688 422.404 480.688 560.312 618.596>
LayerCount: 2
Fore
SplineSet
392 834 m 2
 272 834 l 2
 255 834 241 847 241 864 c 0
 241 881 255 895 272 895 c 2
 392 895 l 2
 409 895 423 881 423 864 c 0
 423 847 409 834 392 834 c 2
272 696 m 2
 152 696 l 2
 135 696 121 710 121 727 c 0
 121 744 135 757 152 757 c 2
 272 757 l 2
 289 757 303 744 303 727 c 0
 303 710 289 696 272 696 c 2
152 559 m 2
 31 559 l 2
 14 559 1 572 1 589 c 0
 1 606 14 620 31 620 c 2
 152 620 l 2
 169 620 182 606 182 589 c 0
 182 572 169 559 152 559 c 2
513 696 m 2
 392 696 l 2
 375 696 362 710 362 727 c 0
 362 744 375 757 392 757 c 2
 513 757 l 2
 530 757 544 744 544 727 c 0
 544 710 530 696 513 696 c 2
633 559 m 2
 513 559 l 2
 496 559 482 572 482 589 c 0
 482 606 496 620 513 620 c 2
 633 620 l 2
 650 620 664 606 664 589 c 0
 664 572 650 559 633 559 c 2
152 421 m 2
 31 421 l 2
 14 421 1 435 1 452 c 0
 1 469 14 482 31 482 c 2
 152 482 l 2
 169 482 182 469 182 452 c 0
 182 435 169 421 152 421 c 2
633 284 m 2
 31 284 l 2
 14 284 1 297 1 314 c 0
 1 331 14 345 31 345 c 2
 633 345 l 2
 650 345 664 331 664 314 c 0
 664 297 650 284 633 284 c 2
633 421 m 2
 513 421 l 2
 496 421 482 435 482 452 c 0
 482 469 496 482 513 482 c 2
 633 482 l 2
 650 482 664 469 664 452 c 0
 664 435 650 421 633 421 c 2
152 146 m 2
 31 146 l 2
 14 146 1 160 1 177 c 0
 1 194 14 207 31 207 c 2
 152 207 l 2
 169 207 182 194 182 177 c 0
 182 160 169 146 152 146 c 2
633 146 m 2
 513 146 l 2
 496 146 482 160 482 177 c 0
 482 194 496 207 513 207 c 2
 633 207 l 2
 650 207 664 194 664 177 c 0
 664 160 650 146 633 146 c 2
152 9 m 2
 31 9 l 2
 14 9 1 22 1 39 c 0
 1 56 14 70 31 70 c 2
 152 70 l 2
 169 70 182 56 182 39 c 0
 182 22 169 9 152 9 c 2
633 9 m 2
 513 9 l 2
 496 9 482 22 482 39 c 0
 482 56 496 70 513 70 c 2
 633 70 l 2
 650 70 664 56 664 39 c 0
 664 22 650 9 633 9 c 2
EndSplineSet
Validated: 1
EndChar

StartChar: semicolon
Encoding: 59 59 37
Width: 1024
VWidth: 0
Flags: W
HStem: 9 61<122.404 301.596> 146 61<242.404 421.596> 284 61<122.404 421.596> 421 61<122.404 421.596> 696 61<122.404 421.596> 834 61<122.404 421.596>
VStem: 121 302<285.312 343.596 422.404 480.688 697.404 755.688 835.312 893.596>
LayerCount: 2
Fore
SplineSet
392 834 m 2
 152 834 l 2
 135 834 121 847 121 864 c 0
 121 881 135 895 152 895 c 2
 392 895 l 2
 409 895 423 881 423 864 c 0
 423 847 409 834 392 834 c 2
392 696 m 2
 152 696 l 2
 135 696 121 710 121 727 c 0
 121 744 135 757 152 757 c 2
 392 757 l 2
 409 757 423 744 423 727 c 0
 423 710 409 696 392 696 c 2
392 421 m 2
 152 421 l 2
 135 421 121 435 121 452 c 0
 121 469 135 482 152 482 c 2
 392 482 l 2
 409 482 423 469 423 452 c 0
 423 435 409 421 392 421 c 2
392 284 m 2
 152 284 l 2
 135 284 121 297 121 314 c 0
 121 331 135 345 152 345 c 2
 392 345 l 2
 409 345 423 331 423 314 c 0
 423 297 409 284 392 284 c 2
392 146 m 2
 272 146 l 2
 255 146 241 160 241 177 c 0
 241 194 255 207 272 207 c 2
 392 207 l 2
 409 207 423 194 423 177 c 0
 423 160 409 146 392 146 c 2
272 9 m 2
 152 9 l 2
 135 9 121 22 121 39 c 0
 121 56 135 70 152 70 c 2
 272 70 l 2
 289 70 303 56 303 39 c 0
 303 22 289 9 272 9 c 2
EndSplineSet
Validated: 1
EndChar

StartChar: equal
Encoding: 61 61 38
Width: 1024
VWidth: 0
Flags: W
HStem: 284 61<122.404 662.596> 559 61<122.404 662.596>
LayerCount: 2
Fore
SplineSet
633 559 m 2
 152 559 l 2
 135 559 121 572 121 589 c 0
 121 606 135 620 152 620 c 2
 633 620 l 2
 650 620 664 606 664 589 c 0
 664 572 650 559 633 559 c 2
633 284 m 2
 152 284 l 2
 135 284 121 297 121 314 c 0
 121 331 135 345 152 345 c 2
 633 345 l 2
 650 345 664 331 664 314 c 0
 664 297 650 284 633 284 c 2
EndSplineSet
Validated: 1
EndChar

StartChar: K
Encoding: 75 75 39
Width: 1024
VWidth: 0
Flags: W
HStem: 9 61<2.31177 181.596 483.404 662.596> 146 61<2.31177 181.596 363.404 542.596> 284 61<2.31177 181.596 242.404 421.688> 421 61<2.31177 301.596> 559 61<2.31177 180.688 242.404 421.688> 696 61<2.31177 181.596 363.312 542.596> 834 61<2.31177 181.596 483.404 662.596>
VStem: 1 182<10.3118 68.5959 147.404 205.688 285.312 343.596 560.312 618.596 697.404 755.688 835.312 893.596> 241 182<285.312 343.596 560.312 618.596> 362 182<147.404 205.688 697.404 755.688> 482 182<10.3118 68.5959 835.312 893.596>
LayerCount: 2
Fore
SplineSet
272 421 m 2xff
 31 421 l 2
 14 421 1 435 1 452 c 0
 1 469 14 482 31 482 c 2
 272 482 l 2
 289 482 303 469 303 452 c 0
 303 435 289 421 272 421 c 2xff
152 559 m 2
 31 559 l 2
 14 559 1 572 1 589 c 0
 1 606 14 620 31 620 c 2
 152 620 l 2
 169 620 182 606 182 589 c 0
 182 572 169 559 152 559 c 2
152 696 m 2
 31 696 l 2
 14 696 1 710 1 727 c 0
 1 744 14 757 31 757 c 2
 152 757 l 2
 169 757 183 744 183 727 c 0
 183 710 169 696 152 696 c 2
152 834 m 2
 31 834 l 2
 14 834 1 847 1 864 c 0
 1 881 14 895 31 895 c 2
 152 895 l 2
 169 895 183 881 183 864 c 0
 183 847 169 834 152 834 c 2
393 559 m 2
 272 559 l 2
 255 559 241 572 241 589 c 0
 241 606 255 620 272 620 c 2
 393 620 l 2
 410 620 423 606 423 589 c 0xff80
 423 572 410 559 393 559 c 2
513 696 m 2
 392 696 l 2
 375 696 362 710 362 727 c 0
 362 744 375 757 392 757 c 2
 513 757 l 2
 530 757 544 744 544 727 c 0xff40
 544 710 530 696 513 696 c 2
633 834 m 2
 513 834 l 2
 496 834 482 847 482 864 c 0
 482 881 496 895 513 895 c 2
 633 895 l 2
 650 895 664 881 664 864 c 0xff20
 664 847 650 834 633 834 c 2
393 284 m 2
 272 284 l 2
 255 284 241 297 241 314 c 0
 241 331 255 345 272 345 c 2
 393 345 l 2
 410 345 423 331 423 314 c 0xff80
 423 297 410 284 393 284 c 2
513 146 m 2
 393 146 l 2
 376 146 362 160 362 177 c 0
 362 194 376 207 393 207 c 2
 513 207 l 2
 530 207 544 194 544 177 c 0xff40
 544 160 530 146 513 146 c 2
633 9 m 2
 513 9 l 2
 496 9 482 22 482 39 c 0
 482 56 496 70 513 70 c 2
 633 70 l 2
 650 70 664 56 664 39 c 0xff20
 664 22 650 9 633 9 c 2
152 284 m 2
 31 284 l 2
 14 284 1 297 1 314 c 0
 1 331 14 345 31 345 c 2
 152 345 l 2
 169 345 183 331 183 314 c 0
 183 297 169 284 152 284 c 2
152 146 m 2
 31 146 l 2
 14 146 1 160 1 177 c 0
 1 194 14 207 31 207 c 2
 152 207 l 2
 169 207 183 194 183 177 c 0
 183 160 169 146 152 146 c 2
152 9 m 2
 31 9 l 2
 14 9 1 22 1 39 c 0
 1 56 14 70 31 70 c 2
 152 70 l 2
 169 70 183 56 183 39 c 0
 183 22 169 9 152 9 c 2
EndSplineSet
Validated: 1
EndChar

StartChar: one
Encoding: 49 49 40
Width: 1024
VWidth: 0
Flags: W
HStem: 9 61<122.404 541.688> 146 61<242.404 421.596> 284 61<242.404 421.596> 421 61<242.404 421.596> 559 61<242.404 421.596> 696 61<122.404 421.596> 834 61<242.404 421.596>
VStem: 241 182<147.404 205.688 285.312 343.596 422.404 480.688 560.312 618.596 835.312 893.596>
LayerCount: 2
Fore
SplineSet
392 696 m 2
 152 696 l 2
 135 696 121 710 121 727 c 0
 121 744 135 757 152 757 c 2
 392 757 l 2
 409 757 423 744 423 727 c 0
 423 710 409 696 392 696 c 2
392 834 m 2
 272 834 l 2
 255 834 241 847 241 864 c 0
 241 881 255 895 272 895 c 2
 392 895 l 2
 409 895 423 881 423 864 c 0
 423 847 409 834 392 834 c 2
392 559 m 2
 272 559 l 2
 255 559 241 572 241 589 c 0
 241 606 255 620 272 620 c 2
 392 620 l 2
 409 620 423 606 423 589 c 0
 423 572 409 559 392 559 c 2
392 421 m 2
 272 421 l 2
 255 421 241 435 241 452 c 0
 241 469 255 482 272 482 c 2
 392 482 l 2
 409 482 423 469 423 452 c 0
 423 435 409 421 392 421 c 2
392 284 m 2
 272 284 l 2
 255 284 241 297 241 314 c 0
 241 331 255 345 272 345 c 2
 392 345 l 2
 409 345 423 331 423 314 c 0
 423 297 409 284 392 284 c 2
392 146 m 2
 272 146 l 2
 255 146 241 160 241 177 c 0
 241 194 255 207 272 207 c 2
 392 207 l 2
 409 207 423 194 423 177 c 0
 423 160 409 146 392 146 c 2
513 9 m 2
 152 9 l 2
 135 9 121 22 121 39 c 0
 121 56 135 70 152 70 c 2
 513 70 l 2
 530 70 543 56 543 39 c 0
 543 22 530 9 513 9 c 2
EndSplineSet
Validated: 1
EndChar

StartChar: glyph41
Encoding: 264 9650 41
Width: 1024
VWidth: 0
Flags: W
HStem: 9 61<2.31177 181.596 724.312 903.596> 146 61<122.404 421.596 484.312 782.596> 284 61<122.404 782.596> 421 61<237.404 662.596> 559 61<242.404 662.596> 696 61<363.404 542.596> 834 61<363.312 542.596>
VStem: 362 182<697.404 755.688 835.312 893.596>
LayerCount: 2
Fore
SplineSet
152 9 m 2
 31 9 l 2
 14 9 1 22 1 39 c 0
 1 56 14 70 31 70 c 2
 152 70 l 2
 169 70 183 56 183 39 c 0
 183 22 169 9 152 9 c 2
874 9 m 2
 753 9 l 2
 736 9 723 22 723 39 c 0
 723 56 736 70 753 70 c 2
 874 70 l 2
 891 70 905 56 905 39 c 0
 905 22 891 9 874 9 c 2
513 834 m 2
 392 834 l 2
 375 834 362 847 362 864 c 0
 362 881 375 895 392 895 c 2
 513 895 l 2
 530 895 544 881 544 864 c 0
 544 847 530 834 513 834 c 2
513 696 m 2
 393 696 l 2
 376 696 362 710 362 727 c 0
 362 744 376 757 393 757 c 2
 513 757 l 2
 530 757 544 744 544 727 c 0
 544 710 530 696 513 696 c 2
633 559 m 2
 272 559 l 2
 255 559 241 572 241 589 c 0
 241 606 255 620 272 620 c 2
 633 620 l 2
 650 620 664 606 664 589 c 0
 664 572 650 559 633 559 c 2
633 421 m 2
 267 421 l 2
 250 421 236 435 236 452 c 0
 236 469 250 482 267 482 c 2
 633 482 l 2
 650 482 664 469 664 452 c 0
 664 435 650 421 633 421 c 2
753 284 m 2
 152 284 l 2
 135 284 121 297 121 314 c 0
 121 331 135 345 152 345 c 2
 753 345 l 2
 770 345 784 331 784 314 c 0
 784 297 770 284 753 284 c 2
753 146 m 2
 513 146 l 2
 496 146 483 160 483 177 c 0
 483 194 496 207 513 207 c 2
 753 207 l 2
 770 207 784 194 784 177 c 0
 784 160 770 146 753 146 c 2
392 146 m 2
 152 146 l 2
 135 146 121 160 121 177 c 0
 121 194 135 207 152 207 c 2
 392 207 l 2
 409 207 423 194 423 177 c 0
 423 160 409 146 392 146 c 2
EndSplineSet
Validated: 1
EndChar

StartChar: zero
Encoding: 48 48 42
Width: 1024
VWidth: 0
Flags: W
HStem: 9 61<122.404 421.596> 146 61<2.31177 180.688 363.312 542.596> 284 61<2.31177 180.688 363.312 542.596> 421 61<2.31177 180.688 363.312 542.596> 559 61<2.31177 180.688 363.312 542.596> 696 61<2.31177 180.688 363.312 542.596> 834 61<122.404 421.596>
VStem: 1 181<146.983 206.082 284.918 344.017 421.983 481.082 559.918 619.017 696.983 756.082> 362 182<147.404 205.688 285.312 343.596 422.404 480.688 560.312 618.596 697.404 755.688>
LayerCount: 2
Fore
SplineSet
392 9 m 2
 152 9 l 2
 135 9 121 22 121 39 c 0
 121 56 135 70 152 70 c 2
 392 70 l 2
 409 70 423 56 423 39 c 0
 423 22 409 9 392 9 c 2
152 146 m 2
 31 146 l 2
 14 146 1 160 1 177 c 0
 1 194 14 207 31 207 c 2
 152 207 l 2
 169 207 182 194 182 177 c 0
 182 160 169 146 152 146 c 2
152 284 m 2
 31 284 l 2
 14 284 1 297 1 314 c 0
 1 331 14 345 31 345 c 2
 152 345 l 2
 169 345 182 331 182 314 c 0
 182 297 169 284 152 284 c 2
152 421 m 2
 31 421 l 2
 14 421 1 435 1 452 c 0
 1 469 14 482 31 482 c 2
 152 482 l 2
 169 482 182 469 182 452 c 0
 182 435 169 421 152 421 c 2
152 559 m 2
 31 559 l 2
 14 559 1 572 1 589 c 0
 1 606 14 620 31 620 c 2
 152 620 l 2
 169 620 182 606 182 589 c 0
 182 572 169 559 152 559 c 2
152 696 m 2
 31 696 l 2
 14 696 1 710 1 727 c 0
 1 744 14 757 31 757 c 2
 152 757 l 2
 169 757 182 744 182 727 c 0
 182 710 169 696 152 696 c 2
513 146 m 2
 392 146 l 2
 375 146 362 160 362 177 c 0
 362 194 375 207 392 207 c 2
 513 207 l 2
 530 207 544 194 544 177 c 0
 544 160 530 146 513 146 c 2
513 284 m 2
 392 284 l 2
 375 284 362 297 362 314 c 0
 362 331 375 345 392 345 c 2
 513 345 l 2
 530 345 544 331 544 314 c 0
 544 297 530 284 513 284 c 2
513 421 m 2
 392 421 l 2
 375 421 362 435 362 452 c 0
 362 469 375 482 392 482 c 2
 513 482 l 2
 530 482 544 469 544 452 c 0
 544 435 530 421 513 421 c 2
513 559 m 2
 392 559 l 2
 375 559 362 572 362 589 c 0
 362 606 375 620 392 620 c 2
 513 620 l 2
 530 620 544 606 544 589 c 0
 544 572 530 559 513 559 c 2
513 696 m 2
 392 696 l 2
 375 696 362 710 362 727 c 0
 362 744 375 757 392 757 c 2
 513 757 l 2
 530 757 544 744 544 727 c 0
 544 710 530 696 513 696 c 2
392 834 m 2
 152 834 l 2
 135 834 121 847 121 864 c 0
 121 881 135 895 152 895 c 2
 392 895 l 2
 409 895 423 881 423 864 c 0
 423 847 409 834 392 834 c 2
EndSplineSet
Validated: 1
EndChar

StartChar: J
Encoding: 74 74 43
Width: 1024
VWidth: 0
Flags: W
HStem: 9 61<122.404 542.596> 146 61<2.31177 181.596 483.404 662.596> 284 61<483.404 662.596> 421 61<483.404 662.596> 559 61<483.404 662.596> 696 61<483.404 662.596> 834 61<483.404 662.596>
VStem: 482 182<147.404 205.688 285.312 343.596 422.404 480.688 560.312 618.596 697.404 755.688 835.312 893.596>
LayerCount: 2
Fore
SplineSet
152 146 m 2
 31 146 l 2
 14 146 1 160 1 177 c 0
 1 194 14 207 31 207 c 2
 152 207 l 2
 169 207 183 194 183 177 c 0
 183 160 169 146 152 146 c 2
633 146 m 2
 513 146 l 2
 496 146 482 160 482 177 c 0
 482 194 496 207 513 207 c 2
 633 207 l 2
 650 207 664 194 664 177 c 0
 664 160 650 146 633 146 c 2
633 284 m 2
 513 284 l 2
 496 284 482 297 482 314 c 0
 482 331 496 345 513 345 c 2
 633 345 l 2
 650 345 664 331 664 314 c 0
 664 297 650 284 633 284 c 2
633 421 m 2
 513 421 l 2
 496 421 482 435 482 452 c 0
 482 469 496 482 513 482 c 2
 633 482 l 2
 650 482 664 469 664 452 c 0
 664 435 650 421 633 421 c 2
633 559 m 2
 513 559 l 2
 496 559 482 572 482 589 c 0
 482 606 496 620 513 620 c 2
 633 620 l 2
 650 620 664 606 664 589 c 0
 664 572 650 559 633 559 c 2
633 696 m 2
 513 696 l 2
 496 696 482 710 482 727 c 0
 482 744 496 757 513 757 c 2
 633 757 l 2
 650 757 664 744 664 727 c 0
 664 710 650 696 633 696 c 2
633 834 m 2
 513 834 l 2
 496 834 482 847 482 864 c 0
 482 881 496 895 513 895 c 2
 633 895 l 2
 650 895 664 881 664 864 c 0
 664 847 650 834 633 834 c 2
513 9 m 2
 152 9 l 2
 135 9 121 22 121 39 c 0
 121 56 135 70 152 70 c 2
 513 70 l 2
 530 70 544 56 544 39 c 0
 544 22 530 9 513 9 c 2
EndSplineSet
Validated: 1
EndChar

StartChar: less
Encoding: 60 60 44
Width: 1024
VWidth: 0
Flags: W
HStem: 146 61<363.312 542.596> 284 61<243.312 422.596> 421 61<122.404 301.596> 559 61<242.404 421.688> 696 61<363.312 542.596>
VStem: 242 182<285.312 343.596 560.312 618.596> 362 182<147.404 205.688 697.404 755.688>
LayerCount: 2
Fore
SplineSet
272 421 m 2xf8
 152 421 l 2
 135 421 121 435 121 452 c 0
 121 469 135 482 152 482 c 2
 272 482 l 2
 289 482 303 469 303 452 c 0
 303 435 289 421 272 421 c 2xf8
393 559 m 2
 272 559 l 2
 255 559 241 572 241 589 c 0
 241 606 255 620 272 620 c 2
 393 620 l 2
 410 620 423 606 423 589 c 0
 423 572 410 559 393 559 c 2
513 696 m 2
 392 696 l 2
 375 696 362 710 362 727 c 0
 362 744 375 757 392 757 c 2
 513 757 l 2
 530 757 544 744 544 727 c 0xfa
 544 710 530 696 513 696 c 2
393 284 m 2
 272 284 l 2
 255 284 242 297 242 314 c 0
 242 331 255 345 272 345 c 2
 393 345 l 2
 410 345 424 331 424 314 c 0xfc
 424 297 410 284 393 284 c 2
513 146 m 2
 392 146 l 2
 375 146 362 160 362 177 c 0
 362 194 375 207 392 207 c 2
 513 207 l 2
 530 207 544 194 544 177 c 0xfa
 544 160 530 146 513 146 c 2
EndSplineSet
Validated: 1
EndChar

StartChar: Y
Encoding: 89 89 45
Width: 1024
VWidth: 0
Flags: W
HStem: 9 61<242.404 421.688> 146 61<242.404 421.688> 284 61<242.404 421.688> 421 61<242.404 421.688> 559 61<122.404 301.596 363.404 542.596> 696 61<2.31177 181.596 483.404 662.596> 834 61<2.31177 180.688 483.404 662.596>
VStem: 1 182<697.404 755.688 835.312 893.596> 241 182<10.3118 68.5959 147.404 205.688 285.312 343.596 422.404 480.688> 482 182<697.404 755.688 835.312 893.596>
LayerCount: 2
Fore
SplineSet
152 834 m 2
 31 834 l 2
 14 834 1 847 1 864 c 0
 1 881 14 895 31 895 c 2
 152 895 l 2
 169 895 182 881 182 864 c 0
 182 847 169 834 152 834 c 2
152 696 m 2
 31 696 l 2
 14 696 1 710 1 727 c 0
 1 744 14 757 31 757 c 2
 152 757 l 2
 169 757 183 744 183 727 c 0
 183 710 169 696 152 696 c 2
272 559 m 2
 152 559 l 2
 135 559 121 572 121 589 c 0
 121 606 135 620 152 620 c 2
 272 620 l 2
 289 620 303 606 303 589 c 0
 303 572 289 559 272 559 c 2
393 421 m 2
 272 421 l 2
 255 421 241 435 241 452 c 0
 241 469 255 482 272 482 c 2
 393 482 l 2
 410 482 423 469 423 452 c 0
 423 435 410 421 393 421 c 2
393 284 m 2
 272 284 l 2
 255 284 241 297 241 314 c 0
 241 331 255 345 272 345 c 2
 393 345 l 2
 410 345 423 331 423 314 c 0
 423 297 410 284 393 284 c 2
393 146 m 2
 272 146 l 2
 255 146 241 160 241 177 c 0
 241 194 255 207 272 207 c 2
 393 207 l 2
 410 207 423 194 423 177 c 0
 423 160 410 146 393 146 c 2
393 9 m 2
 272 9 l 2
 255 9 241 22 241 39 c 0
 241 56 255 70 272 70 c 2
 393 70 l 2
 410 70 423 56 423 39 c 0
 423 22 410 9 393 9 c 2
513 559 m 2
 393 559 l 2
 376 559 362 572 362 589 c 0
 362 606 376 620 393 620 c 2
 513 620 l 2
 530 620 544 606 544 589 c 0
 544 572 530 559 513 559 c 2
633 696 m 2
 513 696 l 2
 496 696 482 710 482 727 c 0
 482 744 496 757 513 757 c 2
 633 757 l 2
 650 757 664 744 664 727 c 0
 664 710 650 696 633 696 c 2
633 834 m 2
 513 834 l 2
 496 834 482 847 482 864 c 0
 482 881 496 895 513 895 c 2
 633 895 l 2
 650 895 664 881 664 864 c 0
 664 847 650 834 633 834 c 2
EndSplineSet
Validated: 1
EndChar

StartChar: L
Encoding: 76 76 46
Width: 1024
VWidth: 0
Flags: W
HStem: 9 61<2.31177 662.596> 146 61<2.31177 181.596 483.404 662.596> 284 61<2.31177 181.596> 421 61<2.31177 181.596> 559 61<2.31177 181.596> 696 61<2.31177 181.596> 834 61<2.31177 180.688>
VStem: 1 182<147.404 205.688 285.312 343.596 422.404 480.688 560.312 618.596 697.404 755.688 835.312 893.596>
LayerCount: 2
Fore
SplineSet
152 834 m 2
 31 834 l 2
 14 834 1 847 1 864 c 0
 1 881 14 895 31 895 c 2
 152 895 l 2
 169 895 182 881 182 864 c 0
 182 847 169 834 152 834 c 2
152 696 m 2
 31 696 l 2
 14 696 1 710 1 727 c 0
 1 744 14 757 31 757 c 2
 152 757 l 2
 169 757 183 744 183 727 c 0
 183 710 169 696 152 696 c 2
152 559 m 2
 31 559 l 2
 14 559 1 572 1 589 c 0
 1 606 14 620 31 620 c 2
 152 620 l 2
 169 620 183 606 183 589 c 0
 183 572 169 559 152 559 c 2
152 421 m 2
 31 421 l 2
 14 421 1 435 1 452 c 0
 1 469 14 482 31 482 c 2
 152 482 l 2
 169 482 183 469 183 452 c 0
 183 435 169 421 152 421 c 2
152 284 m 2
 31 284 l 2
 14 284 1 297 1 314 c 0
 1 331 14 345 31 345 c 2
 152 345 l 2
 169 345 183 331 183 314 c 0
 183 297 169 284 152 284 c 2
152 146 m 2
 31 146 l 2
 14 146 1 160 1 177 c 0
 1 194 14 207 31 207 c 2
 152 207 l 2
 169 207 183 194 183 177 c 0
 183 160 169 146 152 146 c 2
633 9 m 2
 31 9 l 2
 14 9 1 22 1 39 c 0
 1 56 14 70 31 70 c 2
 633 70 l 2
 650 70 664 56 664 39 c 0
 664 22 650 9 633 9 c 2
633 146 m 2
 513 146 l 2
 496 146 482 160 482 177 c 0
 482 194 496 207 513 207 c 2
 633 207 l 2
 650 207 664 194 664 177 c 0
 664 160 650 146 633 146 c 2
EndSplineSet
Validated: 1
EndChar

StartChar: greater
Encoding: 62 62 47
Width: 1024
VWidth: 0
Flags: W
HStem: 146 61<122.404 301.596> 284 61<242.404 421.596> 421 61<363.312 542.596> 559 61<242.404 421.688> 696 61<122.404 301.596>
VStem: 121 182<147.404 205.688 697.404 755.688> 241 182<285.312 343.596 560.312 618.596>
LayerCount: 2
Fore
SplineSet
513 421 m 2xf8
 392 421 l 2
 375 421 362 435 362 452 c 0
 362 469 375 482 392 482 c 2
 513 482 l 2
 530 482 544 469 544 452 c 0
 544 435 530 421 513 421 c 2xf8
393 559 m 2
 272 559 l 2
 255 559 241 572 241 589 c 0
 241 606 255 620 272 620 c 2
 393 620 l 2
 410 620 423 606 423 589 c 0xfa
 423 572 410 559 393 559 c 2
272 696 m 2
 152 696 l 2
 135 696 121 710 121 727 c 0
 121 744 135 757 152 757 c 2
 272 757 l 2
 289 757 303 744 303 727 c 0xfc
 303 710 289 696 272 696 c 2
392 284 m 2
 272 284 l 2
 255 284 241 297 241 314 c 0
 241 331 255 345 272 345 c 2
 392 345 l 2
 409 345 423 331 423 314 c 0xfa
 423 297 409 284 392 284 c 2
272 146 m 2
 152 146 l 2
 135 146 121 160 121 177 c 0
 121 194 135 207 152 207 c 2
 272 207 l 2
 289 207 303 194 303 177 c 0xfc
 303 160 289 146 272 146 c 2
EndSplineSet
Validated: 1
EndChar

StartChar: question
Encoding: 63 63 48
Width: 1024
VWidth: 0
Flags: W
HStem: 9 61<242.404 421.688> 284 61<242.404 421.688> 421 61<363.312 542.596> 559 61<483.404 662.596> 696 61<2.31177 180.688 483.404 662.596> 834 61<122.404 542.596>
VStem: 241 182<10.3118 68.5959 285.312 343.596> 482 182<560.312 618.596 697.404 755.688>
LayerCount: 2
Fore
SplineSet
152 696 m 2
 31 696 l 2
 14 696 1 710 1 727 c 0
 1 744 14 757 31 757 c 2
 152 757 l 2
 169 757 182 744 182 727 c 0
 182 710 169 696 152 696 c 2
513 834 m 2
 152 834 l 2
 135 834 121 847 121 864 c 0
 121 881 135 895 152 895 c 2
 513 895 l 2
 530 895 544 881 544 864 c 0
 544 847 530 834 513 834 c 2
633 696 m 2
 513 696 l 2
 496 696 482 710 482 727 c 0
 482 744 496 757 513 757 c 2
 633 757 l 2
 650 757 664 744 664 727 c 0
 664 710 650 696 633 696 c 2
633 559 m 2
 513 559 l 2
 496 559 482 572 482 589 c 0
 482 606 496 620 513 620 c 2
 633 620 l 2
 650 620 664 606 664 589 c 0
 664 572 650 559 633 559 c 2
513 421 m 2
 392 421 l 2
 375 421 362 435 362 452 c 0
 362 469 375 482 392 482 c 2
 513 482 l 2
 530 482 544 469 544 452 c 0
 544 435 530 421 513 421 c 2
393 284 m 2
 272 284 l 2
 255 284 241 297 241 314 c 0
 241 331 255 345 272 345 c 2
 393 345 l 2
 410 345 423 331 423 314 c 0
 423 297 410 284 393 284 c 2
393 9 m 2
 272 9 l 2
 255 9 241 22 241 39 c 0
 241 56 255 70 272 70 c 2
 393 70 l 2
 410 70 423 56 423 39 c 0
 423 22 410 9 393 9 c 2
EndSplineSet
Validated: 1
EndChar

StartChar: M
Encoding: 77 77 49
Width: 1024
VWidth: 0
Flags: W
HStem: 9 61<2.31177 181.596 483.404 662.596> 146 61<2.31177 181.596 483.404 662.596> 284 61<2.31177 181.596 483.404 662.596> 421 61<2.31177 181.596 242.404 421.688 483.404 662.596> 559 61<2.31177 181.596 242.404 421.688 483.404 662.596> 696 61<2.31177 301.596 363.312 662.596> 834 61<2.31177 180.688 483.404 662.596>
VStem: 1 182<10.3118 68.5959 147.404 205.688 285.312 343.596 422.404 480.688 560.312 618.596 835.312 893.596> 241 182<422.404 480.688 560.312 618.596> 482 182<10.3118 68.5959 147.404 205.688 285.312 343.596 422.404 480.688 560.312 618.596 835.312 893.596>
LayerCount: 2
Fore
SplineSet
152 9 m 2
 31 9 l 2
 14 9 1 22 1 39 c 0
 1 56 14 70 31 70 c 2
 152 70 l 2
 169 70 183 56 183 39 c 0
 183 22 169 9 152 9 c 2
152 146 m 2
 31 146 l 2
 14 146 1 160 1 177 c 0
 1 194 14 207 31 207 c 2
 152 207 l 2
 169 207 183 194 183 177 c 0
 183 160 169 146 152 146 c 2
152 284 m 2
 31 284 l 2
 14 284 1 297 1 314 c 0
 1 331 14 345 31 345 c 2
 152 345 l 2
 169 345 183 331 183 314 c 0
 183 297 169 284 152 284 c 2
152 421 m 2
 31 421 l 2
 14 421 1 435 1 452 c 0
 1 469 14 482 31 482 c 2
 152 482 l 2
 169 482 183 469 183 452 c 0
 183 435 169 421 152 421 c 2
152 559 m 2
 31 559 l 2
 14 559 1 572 1 589 c 0
 1 606 14 620 31 620 c 2
 152 620 l 2
 169 620 183 606 183 589 c 0
 183 572 169 559 152 559 c 2
272 696 m 2
 31 696 l 2
 14 696 1 710 1 727 c 0
 1 744 14 757 31 757 c 2
 272 757 l 2
 289 757 303 744 303 727 c 0
 303 710 289 696 272 696 c 2
152 834 m 2
 31 834 l 2
 14 834 1 847 1 864 c 0
 1 881 14 895 31 895 c 2
 152 895 l 2
 169 895 182 881 182 864 c 0
 182 847 169 834 152 834 c 2
393 559 m 2
 272 559 l 2
 255 559 241 572 241 589 c 0
 241 606 255 620 272 620 c 2
 393 620 l 2
 410 620 423 606 423 589 c 0
 423 572 410 559 393 559 c 2
393 421 m 2
 272 421 l 2
 255 421 241 435 241 452 c 0
 241 469 255 482 272 482 c 2
 393 482 l 2
 410 482 423 469 423 452 c 0
 423 435 410 421 393 421 c 2
633 696 m 2
 392 696 l 2
 375 696 362 710 362 727 c 0
 362 744 375 757 392 757 c 2
 633 757 l 2
 650 757 664 744 664 727 c 0
 664 710 650 696 633 696 c 2
633 834 m 2
 513 834 l 2
 496 834 482 847 482 864 c 0
 482 881 496 895 513 895 c 2
 633 895 l 2
 650 895 664 881 664 864 c 0
 664 847 650 834 633 834 c 2
633 559 m 2
 513 559 l 2
 496 559 482 572 482 589 c 0
 482 606 496 620 513 620 c 2
 633 620 l 2
 650 620 664 606 664 589 c 0
 664 572 650 559 633 559 c 2
633 421 m 2
 513 421 l 2
 496 421 482 435 482 452 c 0
 482 469 496 482 513 482 c 2
 633 482 l 2
 650 482 664 469 664 452 c 0
 664 435 650 421 633 421 c 2
633 284 m 2
 513 284 l 2
 496 284 482 297 482 314 c 0
 482 331 496 345 513 345 c 2
 633 345 l 2
 650 345 664 331 664 314 c 0
 664 297 650 284 633 284 c 2
633 146 m 2
 513 146 l 2
 496 146 482 160 482 177 c 0
 482 194 496 207 513 207 c 2
 633 207 l 2
 650 207 664 194 664 177 c 0
 664 160 650 146 633 146 c 2
633 9 m 2
 513 9 l 2
 496 9 482 22 482 39 c 0
 482 56 496 70 513 70 c 2
 633 70 l 2
 650 70 664 56 664 39 c 0
 664 22 650 9 633 9 c 2
EndSplineSet
Validated: 1
EndChar

StartChar: X
Encoding: 88 88 50
Width: 1024
VWidth: 0
Flags: W
HStem: 9 61<2.31177 181.596 484.312 663.596> 146 61<2.31177 181.596 484.312 663.596> 284 61<122.404 301.596 363.404 542.596> 421 61<243.312 422.596> 559 61<122.404 301.596 363.404 542.596> 696 61<2.31177 181.596 483.404 662.596> 834 61<2.31177 181.596 483.404 662.596>
VStem: 1 182<10.3118 68.5959 147.404 205.688 697.404 755.688 835.312 893.596> 121 182<285.312 343.596 560.312 618.596> 362 182<285.312 343.596 560.312 618.596> 483 182<10.3118 68.5959 147.404 205.688 697.641 755.466 835.534 893.359>
LayerCount: 2
Fore
SplineSet
152 834 m 2xff
 31 834 l 2
 14 834 1 847 1 864 c 0
 1 881 14 895 31 895 c 2
 152 895 l 2
 169 895 183 881 183 864 c 0
 183 847 169 834 152 834 c 2xff
152 696 m 2
 31 696 l 2
 14 696 1 710 1 727 c 0
 1 744 14 757 31 757 c 2
 152 757 l 2
 169 757 183 744 183 727 c 0
 183 710 169 696 152 696 c 2
272 559 m 2
 152 559 l 2
 135 559 121 572 121 589 c 0
 121 606 135 620 152 620 c 2
 272 620 l 2
 289 620 303 606 303 589 c 0xfe80
 303 572 289 559 272 559 c 2
393 421 m 2
 272 421 l 2
 255 421 242 435 242 452 c 0
 242 469 255 482 272 482 c 2
 393 482 l 2
 410 482 424 469 424 452 c 0
 424 435 410 421 393 421 c 2
513 284 m 2
 393 284 l 2
 376 284 362 297 362 314 c 0
 362 331 376 345 393 345 c 2
 513 345 l 2
 530 345 544 331 544 314 c 0xfe40
 544 297 530 284 513 284 c 2
634 146 m 2
 513 146 l 2
 496 146 483 160 483 177 c 0
 483 194 496 207 513 207 c 2
 634 207 l 2
 651 207 665 194 665 177 c 0xfe20
 665 160 651 146 634 146 c 2
634 9 m 2
 513 9 l 2
 496 9 483 22 483 39 c 0
 483 56 496 70 513 70 c 2
 634 70 l 2
 651 70 665 56 665 39 c 0
 665 22 651 9 634 9 c 2
152 9 m 2
 31 9 l 2
 14 9 1 22 1 39 c 0
 1 56 14 70 31 70 c 2
 152 70 l 2
 169 70 183 56 183 39 c 0xff
 183 22 169 9 152 9 c 2
152 146 m 2
 31 146 l 2
 14 146 1 160 1 177 c 0
 1 194 14 207 31 207 c 2
 152 207 l 2
 169 207 183 194 183 177 c 0
 183 160 169 146 152 146 c 2
272 284 m 2
 152 284 l 2
 135 284 121 297 121 314 c 0
 121 331 135 345 152 345 c 2
 272 345 l 2
 289 345 303 331 303 314 c 0xfe80
 303 297 289 284 272 284 c 2
513 559 m 2
 393 559 l 2
 376 559 362 572 362 589 c 0
 362 606 376 620 393 620 c 2
 513 620 l 2
 530 620 544 606 544 589 c 0xfe40
 544 572 530 559 513 559 c 2
633 696 m 2
 513 696 l 2
 496 696 482 710 482 727 c 0
 482 744 496 757 513 757 c 2
 633 757 l 2
 650 757 664 744 664 727 c 0
 664 710 650 696 633 696 c 2
633 834 m 2
 513 834 l 2
 496 834 482 847 482 864 c 0
 482 881 496 895 513 895 c 2
 633 895 l 2
 650 895 664 881 664 864 c 0
 664 847 650 834 633 834 c 2
EndSplineSet
Validated: 1
EndChar

StartChar: bracketleft
Encoding: 91 91 51
Width: 1024
VWidth: 0
Flags: W
HStem: 9 61<122.404 541.688> 146 61<122.404 301.596> 284 61<122.404 301.596> 421 61<122.404 301.596> 559 61<122.404 301.596> 696 61<122.404 301.596> 834 61<122.404 541.688>
VStem: 121 182<147.404 205.688 285.312 343.596 422.404 480.688 560.312 618.596 697.404 755.688>
LayerCount: 2
Fore
SplineSet
513 834 m 2
 152 834 l 2
 135 834 121 847 121 864 c 0
 121 881 135 895 152 895 c 2
 513 895 l 2
 530 895 543 881 543 864 c 0
 543 847 530 834 513 834 c 2
272 696 m 2
 152 696 l 2
 135 696 121 710 121 727 c 0
 121 744 135 757 152 757 c 2
 272 757 l 2
 289 757 303 744 303 727 c 0
 303 710 289 696 272 696 c 2
272 559 m 2
 152 559 l 2
 135 559 121 572 121 589 c 0
 121 606 135 620 152 620 c 2
 272 620 l 2
 289 620 303 606 303 589 c 0
 303 572 289 559 272 559 c 2
272 421 m 2
 152 421 l 2
 135 421 121 435 121 452 c 0
 121 469 135 482 152 482 c 2
 272 482 l 2
 289 482 303 469 303 452 c 0
 303 435 289 421 272 421 c 2
272 284 m 2
 152 284 l 2
 135 284 121 297 121 314 c 0
 121 331 135 345 152 345 c 2
 272 345 l 2
 289 345 303 331 303 314 c 0
 303 297 289 284 272 284 c 2
272 146 m 2
 152 146 l 2
 135 146 121 160 121 177 c 0
 121 194 135 207 152 207 c 2
 272 207 l 2
 289 207 303 194 303 177 c 0
 303 160 289 146 272 146 c 2
513 9 m 2
 152 9 l 2
 135 9 121 22 121 39 c 0
 121 56 135 70 152 70 c 2
 513 70 l 2
 530 70 543 56 543 39 c 0
 543 22 530 9 513 9 c 2
EndSplineSet
Validated: 1
EndChar

StartChar: U
Encoding: 85 85 52
Width: 1024
VWidth: 0
Flags: W
HStem: 9 61<122.404 542.596> 146 61<2.31177 181.596 483.404 662.596> 284 61<2.31177 181.596 483.404 662.596> 421 61<2.31177 181.596 483.404 662.596> 559 61<2.31177 181.596 483.404 662.596> 696 61<2.31177 181.596 483.404 662.596> 834 61<2.31177 180.688 483.404 662.596>
VStem: 1 182<147.404 205.688 285.312 343.596 422.404 480.688 560.312 618.596 697.404 755.688 835.312 893.596> 482 182<147.404 205.688 285.312 343.596 422.404 480.688 560.312 618.596 697.404 755.688 835.312 893.596>
LayerCount: 2
Fore
SplineSet
152 834 m 2
 31 834 l 2
 14 834 1 847 1 864 c 0
 1 881 14 895 31 895 c 2
 152 895 l 2
 169 895 182 881 182 864 c 0
 182 847 169 834 152 834 c 2
152 696 m 2
 31 696 l 2
 14 696 1 710 1 727 c 0
 1 744 14 757 31 757 c 2
 152 757 l 2
 169 757 183 744 183 727 c 0
 183 710 169 696 152 696 c 2
152 559 m 2
 31 559 l 2
 14 559 1 572 1 589 c 0
 1 606 14 620 31 620 c 2
 152 620 l 2
 169 620 183 606 183 589 c 0
 183 572 169 559 152 559 c 2
152 421 m 2
 31 421 l 2
 14 421 1 435 1 452 c 0
 1 469 14 482 31 482 c 2
 152 482 l 2
 169 482 183 469 183 452 c 0
 183 435 169 421 152 421 c 2
152 284 m 2
 31 284 l 2
 14 284 1 297 1 314 c 0
 1 331 14 345 31 345 c 2
 152 345 l 2
 169 345 183 331 183 314 c 0
 183 297 169 284 152 284 c 2
152 146 m 2
 31 146 l 2
 14 146 1 160 1 177 c 0
 1 194 14 207 31 207 c 2
 152 207 l 2
 169 207 183 194 183 177 c 0
 183 160 169 146 152 146 c 2
633 834 m 2
 513 834 l 2
 496 834 482 847 482 864 c 0
 482 881 496 895 513 895 c 2
 633 895 l 2
 650 895 664 881 664 864 c 0
 664 847 650 834 633 834 c 2
633 696 m 2
 513 696 l 2
 496 696 482 710 482 727 c 0
 482 744 496 757 513 757 c 2
 633 757 l 2
 650 757 664 744 664 727 c 0
 664 710 650 696 633 696 c 2
633 559 m 2
 513 559 l 2
 496 559 482 572 482 589 c 0
 482 606 496 620 513 620 c 2
 633 620 l 2
 650 620 664 606 664 589 c 0
 664 572 650 559 633 559 c 2
633 421 m 2
 513 421 l 2
 496 421 482 435 482 452 c 0
 482 469 496 482 513 482 c 2
 633 482 l 2
 650 482 664 469 664 452 c 0
 664 435 650 421 633 421 c 2
633 284 m 2
 513 284 l 2
 496 284 482 297 482 314 c 0
 482 331 496 345 513 345 c 2
 633 345 l 2
 650 345 664 331 664 314 c 0
 664 297 650 284 633 284 c 2
633 146 m 2
 513 146 l 2
 496 146 482 160 482 177 c 0
 482 194 496 207 513 207 c 2
 633 207 l 2
 650 207 664 194 664 177 c 0
 664 160 650 146 633 146 c 2
152 9 m 2
 135 9 121 22 121 39 c 0
 121 56 135 70 152 70 c 2
 513 70 l 2
 530 70 544 56 544 39 c 0
 544 22 530 9 513 9 c 2
 152 9 l 2
EndSplineSet
Validated: 1
EndChar

StartChar: four
Encoding: 52 52 53
Width: 1024
VWidth: 0
Flags: W
HStem: 9 61<363.312 542.596> 146 61<363.312 542.596> 284 61<2.31177 662.596> 421 61<2.31177 180.688 363.312 542.596> 559 61<122.404 301.596 363.312 542.596> 696 61<242.404 542.596> 834 61<363.312 542.596>
VStem: 362 182<10.3118 68.5959 147.404 205.688 422.404 480.688 560.312 618.596 835.312 893.596>
LayerCount: 2
Fore
SplineSet
633 284 m 2
 31 284 l 2
 14 284 1 297 1 314 c 0
 1 331 14 345 31 345 c 2
 633 345 l 2
 650 345 664 331 664 314 c 0
 664 297 650 284 633 284 c 2
513 146 m 2
 392 146 l 2
 375 146 362 160 362 177 c 0
 362 194 375 207 392 207 c 2
 513 207 l 2
 530 207 544 194 544 177 c 0
 544 160 530 146 513 146 c 2
513 9 m 2
 392 9 l 2
 375 9 362 22 362 39 c 0
 362 56 375 70 392 70 c 2
 513 70 l 2
 530 70 544 56 544 39 c 0
 544 22 530 9 513 9 c 2
513 421 m 2
 392 421 l 2
 375 421 362 435 362 452 c 0
 362 469 375 482 392 482 c 2
 513 482 l 2
 530 482 544 469 544 452 c 0
 544 435 530 421 513 421 c 2
513 559 m 2
 392 559 l 2
 375 559 362 572 362 589 c 0
 362 606 375 620 392 620 c 2
 513 620 l 2
 530 620 544 606 544 589 c 0
 544 572 530 559 513 559 c 2
513 696 m 2
 272 696 l 2
 255 696 241 710 241 727 c 0
 241 744 255 757 272 757 c 2
 513 757 l 2
 530 757 544 744 544 727 c 0
 544 710 530 696 513 696 c 2
513 834 m 2
 392 834 l 2
 375 834 362 847 362 864 c 0
 362 881 375 895 392 895 c 2
 513 895 l 2
 530 895 544 881 544 864 c 0
 544 847 530 834 513 834 c 2
272 559 m 2
 152 559 l 2
 135 559 121 572 121 589 c 0
 121 606 135 620 152 620 c 2
 272 620 l 2
 289 620 303 606 303 589 c 0
 303 572 289 559 272 559 c 2
152 421 m 2
 31 421 l 2
 14 421 1 435 1 452 c 0
 1 469 14 482 31 482 c 2
 152 482 l 2
 169 482 182 469 182 452 c 0
 182 435 169 421 152 421 c 2
EndSplineSet
Validated: 1
EndChar

StartChar: period
Encoding: 46 46 54
Width: 1024
VWidth: 0
Flags: W
HStem: 9 61<2.31177 180.688>
VStem: 1 181<9.91782 69.0166>
LayerCount: 2
Fore
SplineSet
152 9 m 2
 31 9 l 2
 14 9 1 22 1 39 c 0
 1 56 14 70 31 70 c 2
 152 70 l 2
 169 70 182 56 182 39 c 0
 182 22 169 9 152 9 c 2
EndSplineSet
Validated: 1
EndChar

StartChar: glyph55
Encoding: 265 9689 55
Width: 1024
VWidth: 0
Flags: W
HStem: 146 61<122.404 542.596> 284 61<2.31177 661.596> 421 61<2.31177 662.596> 559 61<2.31177 662.596> 696 61<122.404 542.596>
LayerCount: 2
Fore
SplineSet
513 146 m 2
 152 146 l 2
 135 146 121 160 121 177 c 0
 121 194 135 207 152 207 c 2
 513 207 l 2
 530 207 544 194 544 177 c 0
 544 160 530 146 513 146 c 2
632 284 m 2
 31 284 l 2
 14 284 1 297 1 314 c 0
 1 331 14 345 31 345 c 2
 632 345 l 2
 649 345 663 331 663 314 c 0
 663 297 649 284 632 284 c 2
633 421 m 2
 31 421 l 2
 14 421 1 435 1 452 c 0
 1 469 14 482 31 482 c 2
 633 482 l 2
 650 482 664 469 664 452 c 0
 664 435 650 421 633 421 c 2
633 559 m 2
 31 559 l 2
 14 559 1 572 1 589 c 0
 1 606 14 620 31 620 c 2
 633 620 l 2
 650 620 664 606 664 589 c 0
 664 572 650 559 633 559 c 2
513 696 m 2
 152 696 l 2
 135 696 121 710 121 727 c 0
 121 744 135 757 152 757 c 2
 513 757 l 2
 530 757 544 744 544 727 c 0
 544 710 530 696 513 696 c 2
EndSplineSet
Validated: 1
EndChar

StartChar: slash
Encoding: 47 47 56
Width: 1024
VWidth: 0
Flags: W
HStem: 9 61<2.31177 180.688> 146 61<2.31177 180.688> 284 61<122.404 301.596> 421 61<242.404 421.596> 559 61<363.312 542.596> 696 61<483.404 662.596> 834 61<483.404 662.596>
VStem: 1 181<9.91782 69.0166 146.983 206.082> 482 182<697.404 755.688 835.312 893.596>
LayerCount: 2
Fore
SplineSet
152 9 m 2
 31 9 l 2
 14 9 1 22 1 39 c 0
 1 56 14 70 31 70 c 2
 152 70 l 2
 169 70 182 56 182 39 c 0
 182 22 169 9 152 9 c 2
152 146 m 2
 31 146 l 2
 14 146 1 160 1 177 c 0
 1 194 14 207 31 207 c 2
 152 207 l 2
 169 207 182 194 182 177 c 0
 182 160 169 146 152 146 c 2
272 284 m 2
 152 284 l 2
 135 284 121 297 121 314 c 0
 121 331 135 345 152 345 c 2
 272 345 l 2
 289 345 303 331 303 314 c 0
 303 297 289 284 272 284 c 2
392 421 m 2
 272 421 l 2
 255 421 241 435 241 452 c 0
 241 469 255 482 272 482 c 2
 392 482 l 2
 409 482 423 469 423 452 c 0
 423 435 409 421 392 421 c 2
513 559 m 2
 392 559 l 2
 375 559 362 572 362 589 c 0
 362 606 375 620 392 620 c 2
 513 620 l 2
 530 620 544 606 544 589 c 0
 544 572 530 559 513 559 c 2
633 696 m 2
 513 696 l 2
 496 696 482 710 482 727 c 0
 482 744 496 757 513 757 c 2
 633 757 l 2
 650 757 664 744 664 727 c 0
 664 710 650 696 633 696 c 2
633 834 m 2
 513 834 l 2
 496 834 482 847 482 864 c 0
 482 881 496 895 513 895 c 2
 633 895 l 2
 650 895 664 881 664 864 c 0
 664 847 650 834 633 834 c 2
EndSplineSet
Validated: 1
EndChar

StartChar: five
Encoding: 53 53 57
Width: 1024
VWidth: 0
Flags: W
HStem: 9 61<122.404 542.596> 146 61<2.31177 180.688 483.404 662.596> 284 61<483.404 662.596> 421 61<483.404 662.596> 559 61<2.31177 542.596> 696 61<2.31177 180.688> 834 61<2.31177 662.596>
VStem: 1 181<146.983 206.082 696.983 756.082> 482 182<147.404 205.688 285.312 343.596 422.404 480.688>
LayerCount: 2
Fore
SplineSet
633 834 m 2
 31 834 l 2
 14 834 1 847 1 864 c 0
 1 881 14 895 31 895 c 2
 633 895 l 2
 650 895 664 881 664 864 c 0
 664 847 650 834 633 834 c 2
152 696 m 2
 31 696 l 2
 14 696 1 710 1 727 c 0
 1 744 14 757 31 757 c 2
 152 757 l 2
 169 757 182 744 182 727 c 0
 182 710 169 696 152 696 c 2
513 559 m 2
 31 559 l 2
 14 559 1 572 1 589 c 0
 1 606 14 620 31 620 c 2
 513 620 l 2
 530 620 544 606 544 589 c 0
 544 572 530 559 513 559 c 2
633 421 m 2
 513 421 l 2
 496 421 482 435 482 452 c 0
 482 469 496 482 513 482 c 2
 633 482 l 2
 650 482 664 469 664 452 c 0
 664 435 650 421 633 421 c 2
633 284 m 2
 513 284 l 2
 496 284 482 297 482 314 c 0
 482 331 496 345 513 345 c 2
 633 345 l 2
 650 345 664 331 664 314 c 0
 664 297 650 284 633 284 c 2
633 146 m 2
 513 146 l 2
 496 146 482 160 482 177 c 0
 482 194 496 207 513 207 c 2
 633 207 l 2
 650 207 664 194 664 177 c 0
 664 160 650 146 633 146 c 2
513 9 m 2
 152 9 l 2
 135 9 121 22 121 39 c 0
 121 56 135 70 152 70 c 2
 513 70 l 2
 530 70 544 56 544 39 c 0
 544 22 530 9 513 9 c 2
152 146 m 2
 31 146 l 2
 14 146 1 160 1 177 c 0
 1 194 14 207 31 207 c 2
 152 207 l 2
 169 207 182 194 182 177 c 0
 182 160 169 146 152 146 c 2
EndSplineSet
Validated: 1
EndChar

StartChar: T
Encoding: 84 84 58
Width: 1024
VWidth: 0
Flags: W
HStem: 9 61<242.404 421.688> 146 61<242.404 421.688> 284 61<242.404 421.688> 421 61<242.404 421.688> 559 61<242.404 421.688> 696 61<2.31177 181.596 242.404 421.688 483.404 662.596> 834 61<2.31177 662.596>
VStem: 241 182<10.3118 68.5959 147.404 205.688 285.312 343.596 422.404 480.688 560.312 618.596 697.404 755.688>
LayerCount: 2
Fore
SplineSet
152 696 m 2
 31 696 l 2
 14 696 1 710 1 727 c 0
 1 744 14 757 31 757 c 2
 152 757 l 2
 169 757 183 744 183 727 c 0
 183 710 169 696 152 696 c 2
393 696 m 2
 272 696 l 2
 255 696 241 710 241 727 c 0
 241 744 255 757 272 757 c 2
 393 757 l 2
 410 757 423 744 423 727 c 0
 423 710 410 696 393 696 c 2
633 696 m 2
 513 696 l 2
 496 696 482 710 482 727 c 0
 482 744 496 757 513 757 c 2
 633 757 l 2
 650 757 664 744 664 727 c 0
 664 710 650 696 633 696 c 2
393 559 m 2
 272 559 l 2
 255 559 241 572 241 589 c 0
 241 606 255 620 272 620 c 2
 393 620 l 2
 410 620 423 606 423 589 c 0
 423 572 410 559 393 559 c 2
393 421 m 2
 272 421 l 2
 255 421 241 435 241 452 c 0
 241 469 255 482 272 482 c 2
 393 482 l 2
 410 482 423 469 423 452 c 0
 423 435 410 421 393 421 c 2
393 284 m 2
 272 284 l 2
 255 284 241 297 241 314 c 0
 241 331 255 345 272 345 c 2
 393 345 l 2
 410 345 423 331 423 314 c 0
 423 297 410 284 393 284 c 2
393 146 m 2
 272 146 l 2
 255 146 241 160 241 177 c 0
 241 194 255 207 272 207 c 2
 393 207 l 2
 410 207 423 194 423 177 c 0
 423 160 410 146 393 146 c 2
393 9 m 2
 272 9 l 2
 255 9 241 22 241 39 c 0
 241 56 255 70 272 70 c 2
 393 70 l 2
 410 70 423 56 423 39 c 0
 423 22 410 9 393 9 c 2
633 834 m 2
 31 834 l 2
 14 834 1 847 1 864 c 0
 1 881 14 895 31 895 c 2
 633 895 l 2
 650 895 664 881 664 864 c 0
 664 847 650 834 633 834 c 2
EndSplineSet
Validated: 1
EndChar

StartChar: Z
Encoding: 90 90 59
Width: 1024
VWidth: 0
Flags: W
HStem: 9 61<2.31177 662.596> 146 61<2.31177 181.596> 284 61<122.404 301.688> 421 61<242.404 421.688> 559 61<363.312 542.596> 696 61<483.404 662.596> 834 61<2.31177 662.596>
LayerCount: 2
Fore
SplineSet
633 696 m 2
 513 696 l 2
 496 696 482 710 482 727 c 0
 482 744 496 757 513 757 c 2
 633 757 l 2
 650 757 664 744 664 727 c 0
 664 710 650 696 633 696 c 2
513 559 m 2
 392 559 l 2
 375 559 362 572 362 589 c 0
 362 606 375 620 392 620 c 2
 513 620 l 2
 530 620 544 606 544 589 c 0
 544 572 530 559 513 559 c 2
393 421 m 2
 272 421 l 2
 255 421 241 435 241 452 c 0
 241 469 255 482 272 482 c 2
 393 482 l 2
 410 482 423 469 423 452 c 0
 423 435 410 421 393 421 c 2
273 284 m 2
 152 284 l 2
 135 284 121 297 121 314 c 0
 121 331 135 345 152 345 c 2
 273 345 l 2
 290 345 303 331 303 314 c 0
 303 297 290 284 273 284 c 2
152 146 m 2
 31 146 l 2
 14 146 1 160 1 177 c 0
 1 194 14 207 31 207 c 2
 152 207 l 2
 169 207 183 194 183 177 c 0
 183 160 169 146 152 146 c 2
633 9 m 2
 31 9 l 2
 14 9 1 22 1 39 c 0
 1 56 14 70 31 70 c 2
 633 70 l 2
 650 70 664 56 664 39 c 0
 664 22 650 9 633 9 c 2
633 834 m 2
 31 834 l 2
 14 834 1 847 1 864 c 0
 1 881 14 895 31 895 c 2
 633 895 l 2
 650 895 664 881 664 864 c 0
 664 847 650 834 633 834 c 2
EndSplineSet
Validated: 1
EndChar

StartChar: V
Encoding: 86 86 60
Width: 1024
VWidth: 0
Flags: W
HStem: 9 61<243.312 422.596> 146 61<242.404 421.688> 284 61<122.404 301.596 363.312 542.596> 421 61<122.404 301.596 363.312 542.596> 559 61<2.31177 181.596 483.404 662.596> 696 61<2.31177 181.596 483.404 662.596> 834 61<2.31177 180.688 483.404 662.596>
VStem: 1 182<560.312 618.596 697.404 755.688 835.312 893.596> 121 182<285.312 343.596 422.404 480.688> 242 182<10.3118 68.5959 147.404 205.688> 362 182<285.312 343.596 422.404 480.688> 482 182<560.312 618.596 697.404 755.688 835.312 893.596>
LayerCount: 2
Fore
SplineSet
152 834 m 2xff
 31 834 l 2
 14 834 1 847 1 864 c 0
 1 881 14 895 31 895 c 2
 152 895 l 2
 169 895 182 881 182 864 c 0
 182 847 169 834 152 834 c 2xff
152 696 m 2
 31 696 l 2
 14 696 1 710 1 727 c 0
 1 744 14 757 31 757 c 2
 152 757 l 2
 169 757 183 744 183 727 c 0
 183 710 169 696 152 696 c 2
152 559 m 2
 31 559 l 2
 14 559 1 572 1 589 c 0
 1 606 14 620 31 620 c 2
 152 620 l 2
 169 620 183 606 183 589 c 0
 183 572 169 559 152 559 c 2
272 421 m 2
 152 421 l 2
 135 421 121 435 121 452 c 0
 121 469 135 482 152 482 c 2
 272 482 l 2
 289 482 303 469 303 452 c 0xfe80
 303 435 289 421 272 421 c 2
272 284 m 2
 152 284 l 2
 135 284 121 297 121 314 c 0
 121 331 135 345 152 345 c 2
 272 345 l 2
 289 345 303 331 303 314 c 0
 303 297 289 284 272 284 c 2
393 146 m 2
 272 146 l 2
 255 146 241 160 241 177 c 0
 241 194 255 207 272 207 c 2
 393 207 l 2
 410 207 423 194 423 177 c 0
 423 160 410 146 393 146 c 2
393 9 m 2
 272 9 l 2
 255 9 242 22 242 39 c 0
 242 56 255 70 272 70 c 2
 393 70 l 2
 410 70 424 56 424 39 c 0xfe40
 424 22 410 9 393 9 c 2
513 284 m 2
 392 284 l 2
 375 284 362 297 362 314 c 0
 362 331 375 345 392 345 c 2
 513 345 l 2
 530 345 544 331 544 314 c 0xfe20
 544 297 530 284 513 284 c 2
513 421 m 2
 392 421 l 2
 375 421 362 435 362 452 c 0
 362 469 375 482 392 482 c 2
 513 482 l 2
 530 482 544 469 544 452 c 0
 544 435 530 421 513 421 c 2
633 559 m 2
 513 559 l 2
 496 559 482 572 482 589 c 0
 482 606 496 620 513 620 c 2
 633 620 l 2
 650 620 664 606 664 589 c 0xfe10
 664 572 650 559 633 559 c 2
633 696 m 2
 513 696 l 2
 496 696 482 710 482 727 c 0
 482 744 496 757 513 757 c 2
 633 757 l 2
 650 757 664 744 664 727 c 0
 664 710 650 696 633 696 c 2
633 834 m 2
 513 834 l 2
 496 834 482 847 482 864 c 0
 482 881 496 895 513 895 c 2
 633 895 l 2
 650 895 664 881 664 864 c 0
 664 847 650 834 633 834 c 2
EndSplineSet
Validated: 1
EndChar

StartChar: backslash
Encoding: 92 92 61
Width: 1024
VWidth: 0
Flags: W
HStem: 9 61<483.404 662.596> 146 61<484.312 662.688> 284 61<363.404 542.596> 421 61<242.404 421.688> 559 61<122.404 301.688> 696 61<2.31177 181.596> 834 61<2.31177 180.688>
VStem: 1 182<697.404 755.688 835.312 893.596> 482 182<10.3118 68.5959 147.404 205.688>
LayerCount: 2
Fore
SplineSet
152 834 m 2
 31 834 l 2
 14 834 1 847 1 864 c 0
 1 881 14 895 31 895 c 2
 152 895 l 2
 169 895 182 881 182 864 c 0
 182 847 169 834 152 834 c 2
152 696 m 2
 31 696 l 2
 14 696 1 710 1 727 c 0
 1 744 14 757 31 757 c 2
 152 757 l 2
 169 757 183 744 183 727 c 0
 183 710 169 696 152 696 c 2
273 559 m 2
 152 559 l 2
 135 559 121 572 121 589 c 0
 121 606 135 620 152 620 c 2
 273 620 l 2
 290 620 303 606 303 589 c 0
 303 572 290 559 273 559 c 2
393 421 m 2
 272 421 l 2
 255 421 241 435 241 452 c 0
 241 469 255 482 272 482 c 2
 393 482 l 2
 410 482 423 469 423 452 c 0
 423 435 410 421 393 421 c 2
513 284 m 2
 393 284 l 2
 376 284 362 297 362 314 c 0
 362 331 376 345 393 345 c 2
 513 345 l 2
 530 345 544 331 544 314 c 0
 544 297 530 284 513 284 c 2
634 146 m 2
 513 146 l 2
 496 146 483 160 483 177 c 0
 483 194 496 207 513 207 c 2
 634 207 l 2
 651 207 664 194 664 177 c 0
 664 160 651 146 634 146 c 2
633 9 m 2
 513 9 l 2
 496 9 482 22 482 39 c 0
 482 56 496 70 513 70 c 2
 633 70 l 2
 650 70 664 56 664 39 c 0
 664 22 650 9 633 9 c 2
EndSplineSet
Validated: 1
EndChar

StartChar: O
Encoding: 79 79 62
Width: 1024
VWidth: 0
Flags: W
HStem: 9 61<2.31177 662.596> 146 61<2.31177 180.688 483.404 662.596> 284 61<2.31177 181.596 483.404 662.596> 421 61<2.31177 181.596 483.404 662.596> 559 61<2.31177 181.596 483.404 662.596> 696 61<2.31177 181.596 483.404 662.596> 834 61<2.31177 662.596>
VStem: 1 182<147.404 205.688 285.312 343.596 422.404 480.688 560.312 618.596 697.404 755.688> 482 182<147.404 205.688 285.312 343.596 422.404 480.688 560.312 618.596 697.404 755.688>
LayerCount: 2
Fore
SplineSet
633 834 m 2
 31 834 l 2
 14 834 1 847 1 864 c 0
 1 881 14 895 31 895 c 2
 633 895 l 2
 650 895 664 881 664 864 c 0
 664 847 650 834 633 834 c 2
633 9 m 2
 31 9 l 2
 14 9 1 22 1 39 c 0
 1 56 14 70 31 70 c 2
 633 70 l 2
 650 70 664 56 664 39 c 0
 664 22 650 9 633 9 c 2
152 146 m 2
 31 146 l 2
 14 146 1 160 1 177 c 0
 1 194 14 207 31 207 c 2
 152 207 l 2
 169 207 182 194 182 177 c 0
 182 160 169 146 152 146 c 2
152 284 m 2
 31 284 l 2
 14 284 1 297 1 314 c 0
 1 331 14 345 31 345 c 2
 152 345 l 2
 169 345 183 331 183 314 c 0
 183 297 169 284 152 284 c 2
152 421 m 2
 31 421 l 2
 14 421 1 435 1 452 c 0
 1 469 14 482 31 482 c 2
 152 482 l 2
 169 482 183 469 183 452 c 0
 183 435 169 421 152 421 c 2
152 559 m 2
 31 559 l 2
 14 559 1 572 1 589 c 0
 1 606 14 620 31 620 c 2
 152 620 l 2
 169 620 183 606 183 589 c 0
 183 572 169 559 152 559 c 2
152 696 m 2
 31 696 l 2
 14 696 1 710 1 727 c 0
 1 744 14 757 31 757 c 2
 152 757 l 2
 169 757 183 744 183 727 c 0
 183 710 169 696 152 696 c 2
633 146 m 2
 513 146 l 2
 496 146 482 160 482 177 c 0
 482 194 496 207 513 207 c 2
 633 207 l 2
 650 207 664 194 664 177 c 0
 664 160 650 146 633 146 c 2
633 284 m 2
 513 284 l 2
 496 284 482 297 482 314 c 0
 482 331 496 345 513 345 c 2
 633 345 l 2
 650 345 664 331 664 314 c 0
 664 297 650 284 633 284 c 2
633 421 m 2
 513 421 l 2
 496 421 482 435 482 452 c 0
 482 469 496 482 513 482 c 2
 633 482 l 2
 650 482 664 469 664 452 c 0
 664 435 650 421 633 421 c 2
633 559 m 2
 513 559 l 2
 496 559 482 572 482 589 c 0
 482 606 496 620 513 620 c 2
 633 620 l 2
 650 620 664 606 664 589 c 0
 664 572 650 559 633 559 c 2
633 696 m 2
 513 696 l 2
 496 696 482 710 482 727 c 0
 482 744 496 757 513 757 c 2
 633 757 l 2
 650 757 664 744 664 727 c 0
 664 710 650 696 633 696 c 2
EndSplineSet
Validated: 1
EndChar

StartChar: hyphen
Encoding: 45 45 63
Width: 1024
VWidth: 0
Flags: W
HStem: 421 61<122.404 541.688>
LayerCount: 2
Fore
SplineSet
513 421 m 2
 152 421 l 2
 135 421 121 435 121 452 c 0
 121 469 135 482 152 482 c 2
 513 482 l 2
 530 482 543 469 543 452 c 0
 543 435 530 421 513 421 c 2
EndSplineSet
Validated: 1
EndChar

StartChar: three
Encoding: 51 51 64
Width: 1024
VWidth: 0
Flags: W
HStem: 9 61<122.404 542.596> 146 61<2.31177 180.688 483.404 662.596> 284 61<483.404 662.596> 421 61<242.404 542.596> 559 61<483.404 662.596> 696 61<2.31177 180.688 483.404 662.596> 834 61<122.404 542.596>
VStem: 1 181<146.983 206.082 696.983 756.082> 482 182<147.404 205.688 285.312 343.596 560.312 618.596 697.404 755.688>
LayerCount: 2
Fore
SplineSet
152 696 m 2
 31 696 l 2
 14 696 1 710 1 727 c 0
 1 744 14 757 31 757 c 2
 152 757 l 2
 169 757 182 744 182 727 c 0
 182 710 169 696 152 696 c 2
513 834 m 2
 152 834 l 2
 135 834 121 847 121 864 c 0
 121 881 135 895 152 895 c 2
 513 895 l 2
 530 895 544 881 544 864 c 0
 544 847 530 834 513 834 c 2
633 696 m 2
 513 696 l 2
 496 696 482 710 482 727 c 0
 482 744 496 757 513 757 c 2
 633 757 l 2
 650 757 664 744 664 727 c 0
 664 710 650 696 633 696 c 2
633 559 m 2
 513 559 l 2
 496 559 482 572 482 589 c 0
 482 606 496 620 513 620 c 2
 633 620 l 2
 650 620 664 606 664 589 c 0
 664 572 650 559 633 559 c 2
513 421 m 2
 272 421 l 2
 255 421 241 435 241 452 c 0
 241 469 255 482 272 482 c 2
 513 482 l 2
 530 482 544 469 544 452 c 0
 544 435 530 421 513 421 c 2
633 284 m 2
 513 284 l 2
 496 284 482 297 482 314 c 0
 482 331 496 345 513 345 c 2
 633 345 l 2
 650 345 664 331 664 314 c 0
 664 297 650 284 633 284 c 2
633 146 m 2
 513 146 l 2
 496 146 482 160 482 177 c 0
 482 194 496 207 513 207 c 2
 633 207 l 2
 650 207 664 194 664 177 c 0
 664 160 650 146 633 146 c 2
513 9 m 2
 152 9 l 2
 135 9 121 22 121 39 c 0
 121 56 135 70 152 70 c 2
 513 70 l 2
 530 70 544 56 544 39 c 0
 544 22 530 9 513 9 c 2
152 146 m 2
 31 146 l 2
 14 146 1 160 1 177 c 0
 1 194 14 207 31 207 c 2
 152 207 l 2
 169 207 182 194 182 177 c 0
 182 160 169 146 152 146 c 2
EndSplineSet
Validated: 1
EndChar

StartChar: glyph65
Encoding: 266 9675 65
Width: 1024
VWidth: 0
Flags: W
HStem: 146 61<122.404 542.596> 284 61<2.31177 180.688 483.404 662.596> 421 61<2.31177 181.596 484.312 663.596> 559 61<2.31177 181.596 484.312 663.596> 696 61<122.404 542.596>
VStem: 1 182<285.312 343.596 422.404 480.688 560.312 618.596> 483 182<285.534 343.359 422.404 480.688 560.312 618.596>
LayerCount: 2
Fore
SplineSet
513 146 m 2
 152 146 l 2
 135 146 121 160 121 177 c 0
 121 194 135 207 152 207 c 2
 513 207 l 2
 530 207 544 194 544 177 c 0
 544 160 530 146 513 146 c 2
152 284 m 2
 31 284 l 2
 14 284 1 297 1 314 c 0
 1 331 14 345 31 345 c 2
 152 345 l 2
 169 345 182 331 182 314 c 0
 182 297 169 284 152 284 c 2
152 421 m 2
 31 421 l 2
 14 421 1 435 1 452 c 0
 1 469 14 482 31 482 c 2
 152 482 l 2
 169 482 183 469 183 452 c 0
 183 435 169 421 152 421 c 2
152 559 m 2
 31 559 l 2
 14 559 1 572 1 589 c 0
 1 606 14 620 31 620 c 2
 152 620 l 2
 169 620 183 606 183 589 c 0
 183 572 169 559 152 559 c 2
634 559 m 2
 513 559 l 2
 496 559 483 572 483 589 c 0
 483 606 496 620 513 620 c 2
 634 620 l 2
 651 620 665 606 665 589 c 0
 665 572 651 559 634 559 c 2
634 421 m 2
 513 421 l 2
 496 421 483 435 483 452 c 0
 483 469 496 482 513 482 c 2
 634 482 l 2
 651 482 665 469 665 452 c 0
 665 435 651 421 634 421 c 2
633 284 m 2
 513 284 l 2
 496 284 482 297 482 314 c 0
 482 331 496 345 513 345 c 2
 633 345 l 2
 650 345 664 331 664 314 c 0
 664 297 650 284 633 284 c 2
513 696 m 2
 152 696 l 2
 135 696 121 710 121 727 c 0
 121 744 135 757 152 757 c 2
 513 757 l 2
 530 757 544 744 544 727 c 0
 544 710 530 696 513 696 c 2
EndSplineSet
Validated: 1
EndChar

StartChar: glyph66
Encoding: 267 8595 66
Width: 1024
VWidth: 0
Flags: W
HStem: 9 61<242.404 421.596> 146 61<122.404 542.596> 284 61<2.31177 180.688 242.404 421.688 483.404 662.596> 421 61<243.312 422.596> 559 61<243.312 422.596> 696 61<243.312 422.596> 834 61<243.312 422.596>
VStem: 242 182<10.5337 68.3593 285.312 343.596 422.404 480.688 560.312 618.596 697.404 755.688 835.312 893.596>
LayerCount: 2
Fore
SplineSet
152 284 m 2
 31 284 l 2
 14 284 1 297 1 314 c 0
 1 331 14 345 31 345 c 2
 152 345 l 2
 169 345 182 331 182 314 c 0
 182 297 169 284 152 284 c 2
513 146 m 2
 152 146 l 2
 135 146 121 160 121 177 c 0
 121 194 135 207 152 207 c 2
 513 207 l 2
 530 207 544 194 544 177 c 0
 544 160 530 146 513 146 c 2
392 9 m 2
 272 9 l 2
 255 9 241 22 241 39 c 0
 241 56 255 70 272 70 c 2
 392 70 l 2
 409 70 423 56 423 39 c 0
 423 22 409 9 392 9 c 2
633 284 m 2
 513 284 l 2
 496 284 482 297 482 314 c 0
 482 331 496 345 513 345 c 2
 633 345 l 2
 650 345 664 331 664 314 c 0
 664 297 650 284 633 284 c 2
393 284 m 2
 272 284 l 2
 255 284 241 297 241 314 c 0
 241 331 255 345 272 345 c 2
 393 345 l 2
 410 345 423 331 423 314 c 0
 423 297 410 284 393 284 c 2
393 421 m 2
 272 421 l 2
 255 421 242 435 242 452 c 0
 242 469 255 482 272 482 c 2
 393 482 l 2
 410 482 424 469 424 452 c 0
 424 435 410 421 393 421 c 2
393 559 m 2
 272 559 l 2
 255 559 242 572 242 589 c 0
 242 606 255 620 272 620 c 2
 393 620 l 2
 410 620 424 606 424 589 c 0
 424 572 410 559 393 559 c 2
393 696 m 2
 272 696 l 2
 255 696 242 710 242 727 c 0
 242 744 255 757 272 757 c 2
 393 757 l 2
 410 757 424 744 424 727 c 0
 424 710 410 696 393 696 c 2
393 834 m 2
 272 834 l 2
 255 834 242 847 242 864 c 0
 242 881 255 895 272 895 c 2
 393 895 l 2
 410 895 424 881 424 864 c 0
 424 847 410 834 393 834 c 2
EndSplineSet
Validated: 1
EndChar

StartChar: two
Encoding: 50 50 67
Width: 1024
VWidth: 0
Flags: W
HStem: 9 61<2.31177 662.596> 146 61<2.31177 180.688> 284 61<2.31177 180.688> 421 61<122.404 542.596> 559 61<483.404 662.596> 696 61<2.31177 180.688 483.404 662.596> 834 61<122.404 542.596>
VStem: 1 181<146.983 206.082 284.918 344.017 696.983 756.082> 482 182<560.312 618.596 697.404 755.688>
LayerCount: 2
Fore
SplineSet
152 696 m 2
 31 696 l 2
 14 696 1 710 1 727 c 0
 1 744 14 757 31 757 c 2
 152 757 l 2
 169 757 182 744 182 727 c 0
 182 710 169 696 152 696 c 2
513 834 m 2
 152 834 l 2
 135 834 121 847 121 864 c 0
 121 881 135 895 152 895 c 2
 513 895 l 2
 530 895 544 881 544 864 c 0
 544 847 530 834 513 834 c 2
633 696 m 2
 513 696 l 2
 496 696 482 710 482 727 c 0
 482 744 496 757 513 757 c 2
 633 757 l 2
 650 757 664 744 664 727 c 0
 664 710 650 696 633 696 c 2
633 559 m 2
 513 559 l 2
 496 559 482 572 482 589 c 0
 482 606 496 620 513 620 c 2
 633 620 l 2
 650 620 664 606 664 589 c 0
 664 572 650 559 633 559 c 2
513 421 m 2
 152 421 l 2
 135 421 121 435 121 452 c 0
 121 469 135 482 152 482 c 2
 513 482 l 2
 530 482 544 469 544 452 c 0
 544 435 530 421 513 421 c 2
152 284 m 2
 31 284 l 2
 14 284 1 297 1 314 c 0
 1 331 14 345 31 345 c 2
 152 345 l 2
 169 345 182 331 182 314 c 0
 182 297 169 284 152 284 c 2
152 146 m 2
 31 146 l 2
 14 146 1 160 1 177 c 0
 1 194 14 207 31 207 c 2
 152 207 l 2
 169 207 182 194 182 177 c 0
 182 160 169 146 152 146 c 2
633 9 m 2
 31 9 l 2
 14 9 1 22 1 39 c 0
 1 56 14 70 31 70 c 2
 633 70 l 2
 650 70 664 56 664 39 c 0
 664 22 650 9 633 9 c 2
EndSplineSet
Validated: 1
EndChar

StartChar: comma
Encoding: 44 44 68
Width: 1024
VWidth: 0
Flags: W
HStem: 9 61<2.31177 180.688> 146 61<122.404 301.596> 284 61<122.404 301.596>
VStem: 121 182<147.404 205.688 285.312 343.596>
LayerCount: 2
Fore
SplineSet
152 9 m 2
 31 9 l 2
 14 9 1 22 1 39 c 0
 1 56 14 70 31 70 c 2
 152 70 l 2
 169 70 182 56 182 39 c 0
 182 22 169 9 152 9 c 2
272 146 m 2
 152 146 l 2
 135 146 121 160 121 177 c 0
 121 194 135 207 152 207 c 2
 272 207 l 2
 289 207 303 194 303 177 c 0
 303 160 289 146 272 146 c 2
272 284 m 2
 152 284 l 2
 135 284 121 297 121 314 c 0
 121 331 135 345 152 345 c 2
 272 345 l 2
 289 345 303 331 303 314 c 0
 303 297 289 284 272 284 c 2
EndSplineSet
Validated: 1
EndChar

StartChar: N
Encoding: 78 78 69
Width: 1024
VWidth: 0
Flags: W
HStem: 9 61<2.31177 181.596 483.404 662.596> 146 61<2.31177 181.596 483.404 662.596> 284 61<2.31177 181.596 483.404 662.596> 421 61<2.31177 181.596 363.312 662.596> 559 61<2.31177 181.596 242.404 421.688 483.404 662.596> 696 61<2.31177 301.596 483.404 662.596> 834 61<2.31177 180.688 483.404 662.596>
VStem: 1 182<10.3118 68.5959 147.404 205.688 285.312 343.596 422.404 480.688 560.312 618.596 835.312 893.596> 482 182<10.3118 68.5959 147.404 205.688 285.312 343.596 560.312 618.596 697.404 755.688 835.312 893.596>
LayerCount: 2
Fore
SplineSet
152 9 m 2
 31 9 l 2
 14 9 1 22 1 39 c 0
 1 56 14 70 31 70 c 2
 152 70 l 2
 169 70 183 56 183 39 c 0
 183 22 169 9 152 9 c 2
152 146 m 2
 31 146 l 2
 14 146 1 160 1 177 c 0
 1 194 14 207 31 207 c 2
 152 207 l 2
 169 207 183 194 183 177 c 0
 183 160 169 146 152 146 c 2
152 284 m 2
 31 284 l 2
 14 284 1 297 1 314 c 0
 1 331 14 345 31 345 c 2
 152 345 l 2
 169 345 183 331 183 314 c 0
 183 297 169 284 152 284 c 2
152 421 m 2
 31 421 l 2
 14 421 1 435 1 452 c 0
 1 469 14 482 31 482 c 2
 152 482 l 2
 169 482 183 469 183 452 c 0
 183 435 169 421 152 421 c 2
152 559 m 2
 31 559 l 2
 14 559 1 572 1 589 c 0
 1 606 14 620 31 620 c 2
 152 620 l 2
 169 620 183 606 183 589 c 0
 183 572 169 559 152 559 c 2
272 696 m 2
 31 696 l 2
 14 696 1 710 1 727 c 0
 1 744 14 757 31 757 c 2
 272 757 l 2
 289 757 303 744 303 727 c 0
 303 710 289 696 272 696 c 2
152 834 m 2
 31 834 l 2
 14 834 1 847 1 864 c 0
 1 881 14 895 31 895 c 2
 152 895 l 2
 169 895 182 881 182 864 c 0
 182 847 169 834 152 834 c 2
393 559 m 2
 272 559 l 2
 255 559 241 572 241 589 c 0
 241 606 255 620 272 620 c 2
 393 620 l 2
 410 620 423 606 423 589 c 0
 423 572 410 559 393 559 c 2
392 421 m 2
 375 421 362 435 362 452 c 0
 362 469 375 482 392 482 c 2
 633 482 l 2
 650 482 664 469 664 452 c 0
 664 435 650 421 633 421 c 2
 392 421 l 2
633 559 m 2
 513 559 l 2
 496 559 482 572 482 589 c 0
 482 606 496 620 513 620 c 2
 633 620 l 2
 650 620 664 606 664 589 c 0
 664 572 650 559 633 559 c 2
633 696 m 2
 513 696 l 2
 496 696 482 710 482 727 c 0
 482 744 496 757 513 757 c 2
 633 757 l 2
 650 757 664 744 664 727 c 0
 664 710 650 696 633 696 c 2
633 834 m 2
 513 834 l 2
 496 834 482 847 482 864 c 0
 482 881 496 895 513 895 c 2
 633 895 l 2
 650 895 664 881 664 864 c 0
 664 847 650 834 633 834 c 2
633 284 m 2
 513 284 l 2
 496 284 482 297 482 314 c 0
 482 331 496 345 513 345 c 2
 633 345 l 2
 650 345 664 331 664 314 c 0
 664 297 650 284 633 284 c 2
633 146 m 2
 513 146 l 2
 496 146 482 160 482 177 c 0
 482 194 496 207 513 207 c 2
 633 207 l 2
 650 207 664 194 664 177 c 0
 664 160 650 146 633 146 c 2
633 9 m 2
 513 9 l 2
 496 9 482 22 482 39 c 0
 482 56 496 70 513 70 c 2
 633 70 l 2
 650 70 664 56 664 39 c 0
 664 22 650 9 633 9 c 2
EndSplineSet
Validated: 1
EndChar

StartChar: bracketright
Encoding: 93 93 70
Width: 1024
VWidth: 0
Flags: W
HStem: 9 61<122.404 541.596> 146 61<362.404 541.688> 284 61<362.404 541.688> 421 61<362.404 541.688> 559 61<362.404 541.688> 696 61<362.404 541.688> 834 61<122.312 541.596>
VStem: 361 182<147.404 205.688 285.312 343.596 422.404 480.688 560.312 618.596 697.404 755.688>
LayerCount: 2
Fore
SplineSet
513 696 m 2
 392 696 l 2
 375 696 361 710 361 727 c 0
 361 744 375 757 392 757 c 2
 513 757 l 2
 530 757 543 744 543 727 c 0
 543 710 530 696 513 696 c 2
513 559 m 2
 392 559 l 2
 375 559 361 572 361 589 c 0
 361 606 375 620 392 620 c 2
 513 620 l 2
 530 620 543 606 543 589 c 0
 543 572 530 559 513 559 c 2
513 421 m 2
 392 421 l 2
 375 421 361 435 361 452 c 0
 361 469 375 482 392 482 c 2
 513 482 l 2
 530 482 543 469 543 452 c 0
 543 435 530 421 513 421 c 2
513 284 m 2
 392 284 l 2
 375 284 361 297 361 314 c 0
 361 331 375 345 392 345 c 2
 513 345 l 2
 530 345 543 331 543 314 c 0
 543 297 530 284 513 284 c 2
513 146 m 2
 392 146 l 2
 375 146 361 160 361 177 c 0
 361 194 375 207 392 207 c 2
 513 207 l 2
 530 207 543 194 543 177 c 0
 543 160 530 146 513 146 c 2
512 9 m 2
 152 9 l 2
 135 9 121 22 121 39 c 0
 121 56 135 70 152 70 c 2
 512 70 l 2
 529 70 543 56 543 39 c 0
 543 22 529 9 512 9 c 2
512 834 m 2
 151 834 l 2
 134 834 121 847 121 864 c 0
 121 881 134 895 151 895 c 2
 512 895 l 2
 529 895 543 881 543 864 c 0
 543 847 529 834 512 834 c 2
EndSplineSet
Validated: 1
EndChar

StartChar: W
Encoding: 87 87 71
Width: 1024
VWidth: 0
Flags: W
HStem: 9 61<122.404 301.596 363.404 542.596> 146 61<2.31177 181.596 243.312 422.596 483.404 662.596> 284 61<2.31177 181.596 242.404 421.688 483.404 662.596> 421 61<2.31177 181.596 242.404 421.688 483.404 662.596> 559 61<2.31177 181.596 483.404 662.596> 696 61<2.31177 181.596 483.404 662.596> 834 61<2.31177 181.596 483.404 662.596>
VStem: 1 182<147.404 205.688 285.312 343.596 422.404 480.688 560.312 618.596 697.404 755.688 835.312 893.596> 241 182<147.404 205.688 285.312 343.596 422.404 480.688> 482 182<147.404 205.688 285.312 343.596 422.404 480.688 560.312 618.596 697.404 755.688 835.312 893.596>
LayerCount: 2
Fore
SplineSet
152 834 m 2
 31 834 l 2
 14 834 1 847 1 864 c 0
 1 881 14 895 31 895 c 2
 152 895 l 2
 169 895 183 881 183 864 c 0
 183 847 169 834 152 834 c 2
152 696 m 2
 31 696 l 2
 14 696 1 710 1 727 c 0
 1 744 14 757 31 757 c 2
 152 757 l 2
 169 757 183 744 183 727 c 0
 183 710 169 696 152 696 c 2
152 559 m 2
 31 559 l 2
 14 559 1 572 1 589 c 0
 1 606 14 620 31 620 c 2
 152 620 l 2
 169 620 183 606 183 589 c 0
 183 572 169 559 152 559 c 2
152 421 m 2
 31 421 l 2
 14 421 1 435 1 452 c 0
 1 469 14 482 31 482 c 2
 152 482 l 2
 169 482 183 469 183 452 c 0
 183 435 169 421 152 421 c 2
152 284 m 2
 31 284 l 2
 14 284 1 297 1 314 c 0
 1 331 14 345 31 345 c 2
 152 345 l 2
 169 345 183 331 183 314 c 0
 183 297 169 284 152 284 c 2
152 146 m 2
 31 146 l 2
 14 146 1 160 1 177 c 0
 1 194 14 207 31 207 c 2
 152 207 l 2
 169 207 183 194 183 177 c 0
 183 160 169 146 152 146 c 2
633 834 m 2
 513 834 l 2
 496 834 482 847 482 864 c 0
 482 881 496 895 513 895 c 2
 633 895 l 2
 650 895 664 881 664 864 c 0
 664 847 650 834 633 834 c 2
633 696 m 2
 513 696 l 2
 496 696 482 710 482 727 c 0
 482 744 496 757 513 757 c 2
 633 757 l 2
 650 757 664 744 664 727 c 0
 664 710 650 696 633 696 c 2
633 559 m 2
 513 559 l 2
 496 559 482 572 482 589 c 0
 482 606 496 620 513 620 c 2
 633 620 l 2
 650 620 664 606 664 589 c 0
 664 572 650 559 633 559 c 2
633 421 m 2
 513 421 l 2
 496 421 482 435 482 452 c 0
 482 469 496 482 513 482 c 2
 633 482 l 2
 650 482 664 469 664 452 c 0
 664 435 650 421 633 421 c 2
633 284 m 2
 513 284 l 2
 496 284 482 297 482 314 c 0
 482 331 496 345 513 345 c 2
 633 345 l 2
 650 345 664 331 664 314 c 0
 664 297 650 284 633 284 c 2
633 146 m 2
 513 146 l 2
 496 146 482 160 482 177 c 0
 482 194 496 207 513 207 c 2
 633 207 l 2
 650 207 664 194 664 177 c 0
 664 160 650 146 633 146 c 2
272 9 m 2
 152 9 l 2
 135 9 121 22 121 39 c 0
 121 56 135 70 152 70 c 2
 272 70 l 2
 289 70 303 56 303 39 c 0
 303 22 289 9 272 9 c 2
513 9 m 2
 393 9 l 2
 376 9 362 22 362 39 c 0
 362 56 376 70 393 70 c 2
 513 70 l 2
 530 70 544 56 544 39 c 0
 544 22 530 9 513 9 c 2
393 146 m 2
 272 146 l 2
 255 146 242 160 242 177 c 0
 242 194 255 207 272 207 c 2
 393 207 l 2
 410 207 424 194 424 177 c 0
 424 160 410 146 393 146 c 2
393 284 m 2
 272 284 l 2
 255 284 241 297 241 314 c 0
 241 331 255 345 272 345 c 2
 393 345 l 2
 410 345 423 331 423 314 c 0
 423 297 410 284 393 284 c 2
393 421 m 2
 272 421 l 2
 255 421 241 435 241 452 c 0
 241 469 255 482 272 482 c 2
 393 482 l 2
 410 482 423 469 423 452 c 0
 423 435 410 421 393 421 c 2
EndSplineSet
Validated: 1
EndChar

StartChar: glyph72
Encoding: 268 9933 72
Width: 1024
VWidth: 0
Flags: W
HStem: 146 61<122.404 301.596 483.404 662.596> 284 61<2.31177 903.596> 421 61<2.31177 903.596> 559 61<122.404 542.596>
LayerCount: 2
Fore
SplineSet
874 284 m 2
 31 284 l 2
 14 284 1 297 1 314 c 0
 1 331 14 345 31 345 c 2
 874 345 l 2
 891 345 905 331 905 314 c 0
 905 297 891 284 874 284 c 2
874 421 m 2
 31 421 l 2
 14 421 1 435 1 452 c 0
 1 469 14 482 31 482 c 2
 874 482 l 2
 891 482 905 469 905 452 c 0
 905 435 891 421 874 421 c 2
272 146 m 2
 152 146 l 2
 135 146 121 160 121 177 c 0
 121 194 135 207 152 207 c 2
 272 207 l 2
 289 207 303 194 303 177 c 0
 303 160 289 146 272 146 c 2
633 146 m 2
 513 146 l 2
 496 146 482 160 482 177 c 0
 482 194 496 207 513 207 c 2
 633 207 l 2
 650 207 664 194 664 177 c 0
 664 160 650 146 633 146 c 2
513 559 m 2
 152 559 l 2
 135 559 121 572 121 589 c 0
 121 606 135 620 152 620 c 2
 513 620 l 2
 530 620 544 606 544 589 c 0
 544 572 530 559 513 559 c 2
EndSplineSet
Validated: 1
EndChar

StartChar: S
Encoding: 83 83 73
Width: 1024
VWidth: 0
Flags: W
HStem: 9 61<122.404 542.596> 146 61<2.31177 180.688 483.404 662.596> 284 61<363.312 542.596> 421 61<242.404 421.688> 559 61<122.404 301.688> 696 61<2.31177 181.596 483.404 662.688> 834 61<122.404 542.596>
VStem: 1 181<146.983 206.082 696.983 756.082> 482 182<147.404 205.688 697.404 755.688>
LayerCount: 2
Fore
SplineSet
513 834 m 2
 152 834 l 2
 135 834 121 847 121 864 c 0
 121 881 135 895 152 895 c 2
 513 895 l 2
 530 895 544 881 544 864 c 0
 544 847 530 834 513 834 c 2
152 9 m 2
 135 9 121 22 121 39 c 0
 121 56 135 70 152 70 c 2
 513 70 l 2
 530 70 544 56 544 39 c 0
 544 22 530 9 513 9 c 2
 152 9 l 2
152 146 m 2
 31 146 l 2
 14 146 1 160 1 177 c 0
 1 194 14 207 31 207 c 2
 152 207 l 2
 169 207 182 194 182 177 c 0
 182 160 169 146 152 146 c 2
633 146 m 2
 513 146 l 2
 496 146 482 160 482 177 c 0
 482 194 496 207 513 207 c 2
 633 207 l 2
 650 207 664 194 664 177 c 0
 664 160 650 146 633 146 c 2
513 284 m 2
 392 284 l 2
 375 284 362 297 362 314 c 0
 362 331 375 345 392 345 c 2
 513 345 l 2
 530 345 544 331 544 314 c 0
 544 297 530 284 513 284 c 2
393 421 m 2
 272 421 l 2
 255 421 241 435 241 452 c 0
 241 469 255 482 272 482 c 2
 393 482 l 2
 410 482 423 469 423 452 c 0
 423 435 410 421 393 421 c 2
273 559 m 2
 152 559 l 2
 135 559 121 572 121 589 c 0
 121 606 135 620 152 620 c 2
 273 620 l 2
 290 620 303 606 303 589 c 0
 303 572 290 559 273 559 c 2
152 696 m 2
 31 696 l 2
 14 696 1 710 1 727 c 0
 1 744 14 757 31 757 c 2
 152 757 l 2
 169 757 183 744 183 727 c 0
 183 710 169 696 152 696 c 2
634 696 m 2
 513 696 l 2
 496 696 482 710 482 727 c 0
 482 744 496 757 513 757 c 2
 634 757 l 2
 651 757 664 744 664 727 c 0
 664 710 651 696 634 696 c 2
EndSplineSet
Validated: 1
EndChar

StartChar: a
Encoding: 97 97 74
Width: 1024
VWidth: 0
Flags: W
HStem: 9 61<2.31177 180.688 483.404 662.596> 146 61<2.31177 180.688 483.404 662.596> 284 61<2.31177 662.596> 421 61<2.31177 180.688 483.404 662.596> 559 61<2.31177 180.688 483.404 662.596> 696 61<122.404 301.596 363.312 542.596> 834 61<242.404 421.596>
VStem: 1 181<9.91782 69.0166 146.983 206.082 421.983 481.082 559.918 619.017> 482 182<10.3118 68.5959 147.404 205.688 422.404 480.688 560.312 618.596>
LayerCount: 2
Fore
SplineSet
392 834 m 2
 272 834 l 2
 255 834 241 847 241 864 c 0
 241 881 255 895 272 895 c 2
 392 895 l 2
 409 895 423 881 423 864 c 0
 423 847 409 834 392 834 c 2
272 696 m 2
 152 696 l 2
 135 696 121 710 121 727 c 0
 121 744 135 757 152 757 c 2
 272 757 l 2
 289 757 303 744 303 727 c 0
 303 710 289 696 272 696 c 2
152 559 m 2
 31 559 l 2
 14 559 1 572 1 589 c 0
 1 606 14 620 31 620 c 2
 152 620 l 2
 169 620 182 606 182 589 c 0
 182 572 169 559 152 559 c 2
513 696 m 2
 392 696 l 2
 375 696 362 710 362 727 c 0
 362 744 375 757 392 757 c 2
 513 757 l 2
 530 757 544 744 544 727 c 0
 544 710 530 696 513 696 c 2
633 559 m 2
 513 559 l 2
 496 559 482 572 482 589 c 0
 482 606 496 620 513 620 c 2
 633 620 l 2
 650 620 664 606 664 589 c 0
 664 572 650 559 633 559 c 2
152 421 m 2
 31 421 l 2
 14 421 1 435 1 452 c 0
 1 469 14 482 31 482 c 2
 152 482 l 2
 169 482 182 469 182 452 c 0
 182 435 169 421 152 421 c 2
633 284 m 2
 31 284 l 2
 14 284 1 297 1 314 c 0
 1 331 14 345 31 345 c 2
 633 345 l 2
 650 345 664 331 664 314 c 0
 664 297 650 284 633 284 c 2
633 421 m 2
 513 421 l 2
 496 421 482 435 482 452 c 0
 482 469 496 482 513 482 c 2
 633 482 l 2
 650 482 664 469 664 452 c 0
 664 435 650 421 633 421 c 2
152 146 m 2
 31 146 l 2
 14 146 1 160 1 177 c 0
 1 194 14 207 31 207 c 2
 152 207 l 2
 169 207 182 194 182 177 c 0
 182 160 169 146 152 146 c 2
633 146 m 2
 513 146 l 2
 496 146 482 160 482 177 c 0
 482 194 496 207 513 207 c 2
 633 207 l 2
 650 207 664 194 664 177 c 0
 664 160 650 146 633 146 c 2
152 9 m 2
 31 9 l 2
 14 9 1 22 1 39 c 0
 1 56 14 70 31 70 c 2
 152 70 l 2
 169 70 182 56 182 39 c 0
 182 22 169 9 152 9 c 2
633 9 m 2
 513 9 l 2
 496 9 482 22 482 39 c 0
 482 56 496 70 513 70 c 2
 633 70 l 2
 650 70 664 56 664 39 c 0
 664 22 650 9 633 9 c 2
EndSplineSet
Validated: 1
EndChar

StartChar: copyright
Encoding: 169 169 75
Width: 1024
VWidth: 0
Flags: W
HStem: 9 61<242.404 662.596> 146 61<124.404 303.596 604.404 783.596> 284 61<2.31177 181.596 243.404 662.688 724.312 903.596> 421 61<2.31177 181.596 243.404 422.596 724.312 903.596> 559 61<2.31177 181.596 242.404 662.596 724.312 903.596> 696 61<122.404 301.596 603.404 782.688> 834 61<242.404 662.596>
VStem: 1 182<285.312 343.596 422.404 480.688 560.312 618.596> 123 182<147.404 205.688 697.895 755.228> 603 182<147.404 205.688 697.404 755.688> 723 182<285.312 343.596 422.404 480.688 560.312 618.596>
LayerCount: 2
Fore
SplineSet
633 9 m 2xfe
 272 9 l 2
 255 9 241 22 241 39 c 0
 241 56 255 70 272 70 c 2
 633 70 l 2
 650 70 664 56 664 39 c 0
 664 22 650 9 633 9 c 2xfe
633 834 m 2
 272 834 l 2
 255 834 241 847 241 864 c 0
 241 881 255 895 272 895 c 2
 633 895 l 2
 650 895 664 881 664 864 c 0
 664 847 650 834 633 834 c 2
272 696 m 2
 152 696 l 2
 135 696 121 710 121 727 c 0
 121 744 135 757 152 757 c 2
 272 757 l 2
 289 757 303 744 303 727 c 0
 303 710 289 696 272 696 c 2
152 559 m 2
 31 559 l 2
 14 559 1 572 1 589 c 0
 1 606 14 620 31 620 c 2
 152 620 l 2
 169 620 183 606 183 589 c 0xff
 183 572 169 559 152 559 c 2
152 421 m 2
 31 421 l 2
 14 421 1 435 1 452 c 0
 1 469 14 482 31 482 c 2
 152 482 l 2
 169 482 183 469 183 452 c 0
 183 435 169 421 152 421 c 2
152 284 m 2
 31 284 l 2
 14 284 1 297 1 314 c 0
 1 331 14 345 31 345 c 2
 152 345 l 2
 169 345 183 331 183 314 c 0
 183 297 169 284 152 284 c 2
274 146 m 2
 154 146 l 2
 137 146 123 160 123 177 c 0
 123 194 137 207 154 207 c 2
 274 207 l 2
 291 207 305 194 305 177 c 0xfe80
 305 160 291 146 274 146 c 2
754 696 m 2
 633 696 l 2
 616 696 602 710 602 727 c 0
 602 744 616 757 633 757 c 2
 754 757 l 2
 771 757 784 744 784 727 c 0
 784 710 771 696 754 696 c 2
874 559 m 2
 753 559 l 2
 736 559 723 572 723 589 c 0
 723 606 736 620 753 620 c 2
 874 620 l 2
 891 620 905 606 905 589 c 0xfe20
 905 572 891 559 874 559 c 2
874 421 m 2
 753 421 l 2
 736 421 723 435 723 452 c 0
 723 469 736 482 753 482 c 2
 874 482 l 2
 891 482 905 469 905 452 c 0
 905 435 891 421 874 421 c 2
874 284 m 2
 753 284 l 2
 736 284 723 297 723 314 c 0
 723 331 736 345 753 345 c 2
 874 345 l 2
 891 345 905 331 905 314 c 0
 905 297 891 284 874 284 c 2
754 146 m 2
 634 146 l 2
 617 146 603 160 603 177 c 0
 603 194 617 207 634 207 c 2
 754 207 l 2
 771 207 785 194 785 177 c 0xfe40
 785 160 771 146 754 146 c 2
393 421 m 2
 273 421 l 2
 256 421 242 435 242 452 c 0
 242 469 256 482 273 482 c 2
 393 482 l 2
 410 482 424 469 424 452 c 0
 424 435 410 421 393 421 c 2
633 559 m 2
 272 559 l 2
 255 559 241 572 241 589 c 0
 241 606 255 620 272 620 c 2
 633 620 l 2
 650 620 664 606 664 589 c 0
 664 572 650 559 633 559 c 2
634 284 m 2
 273 284 l 2
 256 284 242 297 242 314 c 0
 242 331 256 345 273 345 c 2
 634 345 l 2
 651 345 664 331 664 314 c 0
 664 297 651 284 634 284 c 2
EndSplineSet
Validated: 1
EndChar

StartChar: parenleft
Encoding: 40 40 76
Width: 1024
VWidth: 0
Flags: W
HStem: 9 61<363.312 542.596> 146 61<242.404 421.596> 284 61<122.404 301.596> 421 61<122.404 301.596> 559 61<122.404 301.596> 696 61<242.404 421.596> 834 61<363.312 542.596>
VStem: 121 182<285.312 343.596 422.404 480.688 560.312 618.596> 241 182<147.404 205.688 697.404 755.688> 362 182<10.3118 68.5959 835.312 893.596>
LayerCount: 2
Fore
SplineSet
513 834 m 2xfe40
 392 834 l 2
 375 834 362 847 362 864 c 0
 362 881 375 895 392 895 c 2
 513 895 l 2
 530 895 544 881 544 864 c 0
 544 847 530 834 513 834 c 2xfe40
392 696 m 2
 272 696 l 2
 255 696 241 710 241 727 c 0
 241 744 255 757 272 757 c 2
 392 757 l 2
 409 757 423 744 423 727 c 0xfe80
 423 710 409 696 392 696 c 2
272 559 m 2
 152 559 l 2
 135 559 121 572 121 589 c 0
 121 606 135 620 152 620 c 2
 272 620 l 2
 289 620 303 606 303 589 c 0xff
 303 572 289 559 272 559 c 2
272 421 m 2
 152 421 l 2
 135 421 121 435 121 452 c 0
 121 469 135 482 152 482 c 2
 272 482 l 2
 289 482 303 469 303 452 c 0
 303 435 289 421 272 421 c 2
272 284 m 2
 152 284 l 2
 135 284 121 297 121 314 c 0
 121 331 135 345 152 345 c 2
 272 345 l 2
 289 345 303 331 303 314 c 0
 303 297 289 284 272 284 c 2
392 146 m 2
 272 146 l 2
 255 146 241 160 241 177 c 0
 241 194 255 207 272 207 c 2
 392 207 l 2
 409 207 423 194 423 177 c 0xfe80
 423 160 409 146 392 146 c 2
513 9 m 2
 392 9 l 2
 375 9 362 22 362 39 c 0
 362 56 375 70 392 70 c 2
 513 70 l 2
 530 70 544 56 544 39 c 0xfe40
 544 22 530 9 513 9 c 2
EndSplineSet
Validated: 1
EndChar

StartChar: six
Encoding: 54 54 77
Width: 1024
VWidth: 0
Flags: W
HStem: 9 61<122.404 542.596> 146 61<2.31177 180.688 483.404 662.596> 284 61<2.31177 180.688 483.404 662.596> 421 61<2.31177 542.596> 559 61<2.31177 180.688> 696 61<122.404 301.596> 834 61<242.404 542.596>
VStem: 1 181<146.983 206.082 284.918 344.017 559.918 619.017> 482 182<147.404 205.688 285.312 343.596>
LayerCount: 2
Fore
SplineSet
513 834 m 2
 272 834 l 2
 255 834 241 847 241 864 c 0
 241 881 255 895 272 895 c 2
 513 895 l 2
 530 895 544 881 544 864 c 0
 544 847 530 834 513 834 c 2
272 696 m 2
 152 696 l 2
 135 696 121 710 121 727 c 0
 121 744 135 757 152 757 c 2
 272 757 l 2
 289 757 303 744 303 727 c 0
 303 710 289 696 272 696 c 2
152 559 m 2
 31 559 l 2
 14 559 1 572 1 589 c 0
 1 606 14 620 31 620 c 2
 152 620 l 2
 169 620 182 606 182 589 c 0
 182 572 169 559 152 559 c 2
513 421 m 2
 31 421 l 2
 14 421 1 435 1 452 c 0
 1 469 14 482 31 482 c 2
 513 482 l 2
 530 482 544 469 544 452 c 0
 544 435 530 421 513 421 c 2
152 284 m 2
 31 284 l 2
 14 284 1 297 1 314 c 0
 1 331 14 345 31 345 c 2
 152 345 l 2
 169 345 182 331 182 314 c 0
 182 297 169 284 152 284 c 2
152 146 m 2
 31 146 l 2
 14 146 1 160 1 177 c 0
 1 194 14 207 31 207 c 2
 152 207 l 2
 169 207 182 194 182 177 c 0
 182 160 169 146 152 146 c 2
513 9 m 2
 152 9 l 2
 135 9 121 22 121 39 c 0
 121 56 135 70 152 70 c 2
 513 70 l 2
 530 70 544 56 544 39 c 0
 544 22 530 9 513 9 c 2
633 146 m 2
 513 146 l 2
 496 146 482 160 482 177 c 0
 482 194 496 207 513 207 c 2
 633 207 l 2
 650 207 664 194 664 177 c 0
 664 160 650 146 633 146 c 2
633 284 m 2
 513 284 l 2
 496 284 482 297 482 314 c 0
 482 331 496 345 513 345 c 2
 633 345 l 2
 650 345 664 331 664 314 c 0
 664 297 650 284 633 284 c 2
EndSplineSet
Validated: 1
EndChar

StartChar: D
Encoding: 68 68 78
Width: 1024
VWidth: 0
Flags: W
HStem: 9 61<2.31177 542.596> 146 61<122.404 301.596 483.404 662.596> 284 61<122.404 301.596 483.404 662.596> 421 61<122.404 301.596 483.404 662.596> 559 61<122.404 301.596 483.404 662.596> 696 61<122.404 301.596 483.404 662.596> 834 61<2.31177 542.596>
VStem: 121 182<147.404 205.688 285.312 343.596 422.404 480.688 560.312 618.596 697.404 755.688> 482 182<147.404 205.688 285.312 343.596 422.404 480.688 560.312 618.596 697.404 755.688>
LayerCount: 2
Fore
SplineSet
513 834 m 2
 31 834 l 2
 14 834 1 847 1 864 c 0
 1 881 14 895 31 895 c 2
 513 895 l 2
 530 895 544 881 544 864 c 0
 544 847 530 834 513 834 c 2
513 9 m 2
 31 9 l 2
 14 9 1 22 1 39 c 0
 1 56 14 70 31 70 c 2
 513 70 l 2
 530 70 544 56 544 39 c 0
 544 22 530 9 513 9 c 2
272 146 m 2
 152 146 l 2
 135 146 121 160 121 177 c 0
 121 194 135 207 152 207 c 2
 272 207 l 2
 289 207 303 194 303 177 c 0
 303 160 289 146 272 146 c 2
272 284 m 2
 152 284 l 2
 135 284 121 297 121 314 c 0
 121 331 135 345 152 345 c 2
 272 345 l 2
 289 345 303 331 303 314 c 0
 303 297 289 284 272 284 c 2
272 421 m 2
 152 421 l 2
 135 421 121 435 121 452 c 0
 121 469 135 482 152 482 c 2
 272 482 l 2
 289 482 303 469 303 452 c 0
 303 435 289 421 272 421 c 2
272 559 m 2
 152 559 l 2
 135 559 121 572 121 589 c 0
 121 606 135 620 152 620 c 2
 272 620 l 2
 289 620 303 606 303 589 c 0
 303 572 289 559 272 559 c 2
272 696 m 2
 152 696 l 2
 135 696 121 710 121 727 c 0
 121 744 135 757 152 757 c 2
 272 757 l 2
 289 757 303 744 303 727 c 0
 303 710 289 696 272 696 c 2
633 696 m 2
 513 696 l 2
 496 696 482 710 482 727 c 0
 482 744 496 757 513 757 c 2
 633 757 l 2
 650 757 664 744 664 727 c 0
 664 710 650 696 633 696 c 2
633 559 m 2
 513 559 l 2
 496 559 482 572 482 589 c 0
 482 606 496 620 513 620 c 2
 633 620 l 2
 650 620 664 606 664 589 c 0
 664 572 650 559 633 559 c 2
633 421 m 2
 513 421 l 2
 496 421 482 435 482 452 c 0
 482 469 496 482 513 482 c 2
 633 482 l 2
 650 482 664 469 664 452 c 0
 664 435 650 421 633 421 c 2
633 284 m 2
 513 284 l 2
 496 284 482 297 482 314 c 0
 482 331 496 345 513 345 c 2
 633 345 l 2
 650 345 664 331 664 314 c 0
 664 297 650 284 633 284 c 2
633 146 m 2
 513 146 l 2
 496 146 482 160 482 177 c 0
 482 194 496 207 513 207 c 2
 633 207 l 2
 650 207 664 194 664 177 c 0
 664 160 650 146 633 146 c 2
EndSplineSet
Validated: 1
EndChar

StartChar: E
Encoding: 69 69 79
Width: 1024
VWidth: 0
Flags: W
HStem: 9 61<2.31177 662.596> 146 61<2.31177 181.596> 284 61<2.31177 181.596> 421 61<2.31177 421.596> 559 61<2.31177 181.596> 696 61<2.31177 180.688> 834 61<2.31177 662.596>
VStem: 1 182<147.404 205.688 285.312 343.596 560.312 618.596 697.404 755.688>
LayerCount: 2
Fore
SplineSet
633 834 m 2
 31 834 l 2
 14 834 1 847 1 864 c 0
 1 881 14 895 31 895 c 2
 633 895 l 2
 650 895 664 881 664 864 c 0
 664 847 650 834 633 834 c 2
633 9 m 2
 31 9 l 2
 14 9 1 22 1 39 c 0
 1 56 14 70 31 70 c 2
 633 70 l 2
 650 70 664 56 664 39 c 0
 664 22 650 9 633 9 c 2
392 421 m 2
 31 421 l 2
 14 421 1 435 1 452 c 0
 1 469 14 482 31 482 c 2
 392 482 l 2
 409 482 423 469 423 452 c 0
 423 435 409 421 392 421 c 2
152 696 m 2
 31 696 l 2
 14 696 1 710 1 727 c 0
 1 744 14 757 31 757 c 2
 152 757 l 2
 169 757 182 744 182 727 c 0
 182 710 169 696 152 696 c 2
31 559 m 2
 14 559 1 572 1 589 c 0
 1 606 14 620 31 620 c 2
 152 620 l 2
 169 620 183 606 183 589 c 0
 183 572 169 559 152 559 c 2
 31 559 l 2
152 284 m 2
 31 284 l 2
 14 284 1 297 1 314 c 0
 1 331 14 345 31 345 c 2
 152 345 l 2
 169 345 183 331 183 314 c 0
 183 297 169 284 152 284 c 2
31 146 m 2
 14 146 1 160 1 177 c 0
 1 194 14 207 31 207 c 2
 152 207 l 2
 169 207 183 194 183 177 c 0
 183 160 169 146 152 146 c 2
 31 146 l 2
EndSplineSet
Validated: 1
EndChar

StartChar: seven
Encoding: 55 55 80
Width: 1024
VWidth: 0
Flags: W
HStem: 9 61<2.31177 180.688> 146 61<2.31177 180.688> 284 61<122.404 301.596> 421 61<242.404 421.596> 559 61<363.312 542.596> 696 61<483.404 662.596> 834 61<2.31177 662.596>
VStem: 1 181<9.91782 69.0166 146.983 206.082>
LayerCount: 2
Fore
SplineSet
633 834 m 2
 31 834 l 2
 14 834 1 847 1 864 c 0
 1 881 14 895 31 895 c 2
 633 895 l 2
 650 895 664 881 664 864 c 0
 664 847 650 834 633 834 c 2
633 696 m 2
 513 696 l 2
 496 696 482 710 482 727 c 0
 482 744 496 757 513 757 c 2
 633 757 l 2
 650 757 664 744 664 727 c 0
 664 710 650 696 633 696 c 2
513 559 m 2
 392 559 l 2
 375 559 362 572 362 589 c 0
 362 606 375 620 392 620 c 2
 513 620 l 2
 530 620 544 606 544 589 c 0
 544 572 530 559 513 559 c 2
392 421 m 2
 272 421 l 2
 255 421 241 435 241 452 c 0
 241 469 255 482 272 482 c 2
 392 482 l 2
 409 482 423 469 423 452 c 0
 423 435 409 421 392 421 c 2
272 284 m 2
 152 284 l 2
 135 284 121 297 121 314 c 0
 121 331 135 345 152 345 c 2
 272 345 l 2
 289 345 303 331 303 314 c 0
 303 297 289 284 272 284 c 2
152 146 m 2
 31 146 l 2
 14 146 1 160 1 177 c 0
 1 194 14 207 31 207 c 2
 152 207 l 2
 169 207 182 194 182 177 c 0
 182 160 169 146 152 146 c 2
152 9 m 2
 31 9 l 2
 14 9 1 22 1 39 c 0
 1 56 14 70 31 70 c 2
 152 70 l 2
 169 70 182 56 182 39 c 0
 182 22 169 9 152 9 c 2
EndSplineSet
Validated: 1
EndChar

StartChar: parenright
Encoding: 41 41 81
Width: 1024
VWidth: 0
Flags: W
HStem: 9 61<122.404 301.596> 146 61<242.404 421.596> 284 61<363.312 542.596> 421 61<363.312 542.596> 559 61<363.312 542.596> 696 61<242.404 421.596> 834 61<122.404 301.596>
VStem: 121 182<10.3118 68.5959 835.312 893.596> 241 182<147.404 205.688 697.404 755.688> 362 182<285.312 343.596 422.404 480.688 560.312 618.596>
LayerCount: 2
Fore
SplineSet
272 834 m 2xff
 152 834 l 2
 135 834 121 847 121 864 c 0
 121 881 135 895 152 895 c 2
 272 895 l 2
 289 895 303 881 303 864 c 0
 303 847 289 834 272 834 c 2xff
392 696 m 2
 272 696 l 2
 255 696 241 710 241 727 c 0
 241 744 255 757 272 757 c 2
 392 757 l 2
 409 757 423 744 423 727 c 0xfe80
 423 710 409 696 392 696 c 2
513 559 m 2
 392 559 l 2
 375 559 362 572 362 589 c 0
 362 606 375 620 392 620 c 2
 513 620 l 2
 530 620 544 606 544 589 c 0xfe40
 544 572 530 559 513 559 c 2
513 421 m 2
 392 421 l 2
 375 421 362 435 362 452 c 0
 362 469 375 482 392 482 c 2
 513 482 l 2
 530 482 544 469 544 452 c 0
 544 435 530 421 513 421 c 2
513 284 m 2
 392 284 l 2
 375 284 362 297 362 314 c 0
 362 331 375 345 392 345 c 2
 513 345 l 2
 530 345 544 331 544 314 c 0
 544 297 530 284 513 284 c 2
392 146 m 2
 272 146 l 2
 255 146 241 160 241 177 c 0
 241 194 255 207 272 207 c 2
 392 207 l 2
 409 207 423 194 423 177 c 0xfe80
 423 160 409 146 392 146 c 2
272 9 m 2
 152 9 l 2
 135 9 121 22 121 39 c 0
 121 56 135 70 152 70 c 2
 272 70 l 2
 289 70 303 56 303 39 c 0xff
 303 22 289 9 272 9 c 2
EndSplineSet
Validated: 1
EndChar

StartChar: R
Encoding: 82 82 82
Width: 1024
VWidth: 0
Flags: W
HStem: 9 61<2.31177 181.596 483.404 662.596> 146 61<2.31177 181.596 363.312 542.596> 284 61<2.31177 181.596 242.404 421.688> 421 61<2.31177 542.596> 559 61<2.31177 181.596 483.404 662.596> 696 61<2.31177 181.596 483.404 662.688> 834 61<2.31177 542.596>
VStem: 1 182<10.3118 68.5959 147.404 205.688 285.312 343.596 560.312 618.596 697.404 755.688> 482 182<10.3118 68.5959 560.312 618.596 697.404 755.688>
LayerCount: 2
Fore
SplineSet
513 834 m 2
 31 834 l 2
 14 834 1 847 1 864 c 0
 1 881 14 895 31 895 c 2
 513 895 l 2
 530 895 544 881 544 864 c 0
 544 847 530 834 513 834 c 2
513 421 m 2
 31 421 l 2
 14 421 1 435 1 452 c 0
 1 469 14 482 31 482 c 2
 513 482 l 2
 530 482 544 469 544 452 c 0
 544 435 530 421 513 421 c 2
152 696 m 2
 31 696 l 2
 14 696 1 710 1 727 c 0
 1 744 14 757 31 757 c 2
 152 757 l 2
 169 757 183 744 183 727 c 0
 183 710 169 696 152 696 c 2
152 559 m 2
 31 559 l 2
 14 559 1 572 1 589 c 0
 1 606 14 620 31 620 c 2
 152 620 l 2
 169 620 183 606 183 589 c 0
 183 572 169 559 152 559 c 2
152 284 m 2
 31 284 l 2
 14 284 1 297 1 314 c 0
 1 331 14 345 31 345 c 2
 152 345 l 2
 169 345 183 331 183 314 c 0
 183 297 169 284 152 284 c 2
152 146 m 2
 31 146 l 2
 14 146 1 160 1 177 c 0
 1 194 14 207 31 207 c 2
 152 207 l 2
 169 207 183 194 183 177 c 0
 183 160 169 146 152 146 c 2
152 9 m 2
 31 9 l 2
 14 9 1 22 1 39 c 0
 1 56 14 70 31 70 c 2
 152 70 l 2
 169 70 183 56 183 39 c 0
 183 22 169 9 152 9 c 2
393 284 m 2
 272 284 l 2
 255 284 241 297 241 314 c 0
 241 331 255 345 272 345 c 2
 393 345 l 2
 410 345 423 331 423 314 c 0
 423 297 410 284 393 284 c 2
513 146 m 2
 392 146 l 2
 375 146 362 160 362 177 c 0
 362 194 375 207 392 207 c 2
 513 207 l 2
 530 207 544 194 544 177 c 0
 544 160 530 146 513 146 c 2
633 9 m 2
 513 9 l 2
 496 9 482 22 482 39 c 0
 482 56 496 70 513 70 c 2
 633 70 l 2
 650 70 664 56 664 39 c 0
 664 22 650 9 633 9 c 2
634 696 m 2
 513 696 l 2
 496 696 482 710 482 727 c 0
 482 744 496 757 513 757 c 2
 634 757 l 2
 651 757 664 744 664 727 c 0
 664 710 651 696 634 696 c 2
633 559 m 2
 513 559 l 2
 496 559 482 572 482 589 c 0
 482 606 496 620 513 620 c 2
 633 620 l 2
 650 620 664 606 664 589 c 0
 664 572 650 559 633 559 c 2
EndSplineSet
Validated: 1
EndChar

StartChar: asciicircum
Encoding: 94 94 83
Width: 1024
VWidth: 0
Flags: W
HStem: 559 61<2.31177 181.596 484.312 662.596> 696 61<122.404 301.596 363.404 542.596> 834 61<242.404 421.688>
LayerCount: 2
Fore
SplineSet
152 559 m 2
 31 559 l 2
 14 559 1 572 1 589 c 0
 1 606 14 620 31 620 c 2
 152 620 l 2
 169 620 183 606 183 589 c 0
 183 572 169 559 152 559 c 2
272 696 m 2
 152 696 l 2
 135 696 121 710 121 727 c 0
 121 744 135 757 152 757 c 2
 272 757 l 2
 289 757 303 744 303 727 c 0
 303 710 289 696 272 696 c 2
393 834 m 2
 272 834 l 2
 255 834 241 847 241 864 c 0
 241 881 255 895 272 895 c 2
 393 895 l 2
 410 895 423 881 423 864 c 0
 423 847 410 834 393 834 c 2
513 696 m 2
 393 696 l 2
 376 696 362 710 362 727 c 0
 362 744 376 757 393 757 c 2
 513 757 l 2
 530 757 544 744 544 727 c 0
 544 710 530 696 513 696 c 2
633 559 m 2
 513 559 l 2
 496 559 483 572 483 589 c 0
 483 606 496 620 513 620 c 2
 633 620 l 2
 650 620 664 606 664 589 c 0
 664 572 650 559 633 559 c 2
EndSplineSet
Validated: 1
EndChar

StartChar: P
Encoding: 80 80 84
Width: 1024
VWidth: 0
Flags: W
HStem: 9 61<2.31177 181.596> 146 61<2.31177 181.596> 284 61<2.31177 181.596> 421 61<2.31177 542.596> 559 61<2.31177 181.596 483.404 662.596> 696 61<2.31177 181.596 483.404 662.596> 834 61<2.31177 542.596>
VStem: 1 182<10.3118 68.5959 147.404 205.688 285.312 343.596 560.312 618.596 697.404 755.688> 482 182<560.312 618.596 697.404 755.688>
LayerCount: 2
Fore
SplineSet
513 834 m 2
 31 834 l 2
 14 834 1 847 1 864 c 0
 1 881 14 895 31 895 c 2
 513 895 l 2
 530 895 544 881 544 864 c 0
 544 847 530 834 513 834 c 2
513 696 m 2
 496 696 482 710 482 727 c 0
 482 744 496 757 513 757 c 2
 633 757 l 2
 650 757 664 744 664 727 c 0
 664 710 650 696 633 696 c 2
 513 696 l 2
513 559 m 2
 496 559 482 572 482 589 c 0
 482 606 496 620 513 620 c 2
 633 620 l 2
 650 620 664 606 664 589 c 0
 664 572 650 559 633 559 c 2
 513 559 l 2
152 696 m 2
 31 696 l 2
 14 696 1 710 1 727 c 0
 1 744 14 757 31 757 c 2
 152 757 l 2
 169 757 183 744 183 727 c 0
 183 710 169 696 152 696 c 2
31 559 m 2
 14 559 1 572 1 589 c 0
 1 606 14 620 31 620 c 2
 152 620 l 2
 169 620 183 606 183 589 c 0
 183 572 169 559 152 559 c 2
 31 559 l 2
152 284 m 2
 31 284 l 2
 14 284 1 297 1 314 c 0
 1 331 14 345 31 345 c 2
 152 345 l 2
 169 345 183 331 183 314 c 0
 183 297 169 284 152 284 c 2
31 146 m 2
 14 146 1 160 1 177 c 0
 1 194 14 207 31 207 c 2
 152 207 l 2
 169 207 183 194 183 177 c 0
 183 160 169 146 152 146 c 2
 31 146 l 2
31 9 m 2
 14 9 1 22 1 39 c 0
 1 56 14 70 31 70 c 2
 152 70 l 2
 169 70 183 56 183 39 c 0
 183 22 169 9 152 9 c 2
 31 9 l 2
513 421 m 2
 31 421 l 2
 14 421 1 435 1 452 c 0
 1 469 14 482 31 482 c 2
 513 482 l 2
 530 482 544 469 544 452 c 0
 544 435 530 421 513 421 c 2
EndSplineSet
Validated: 1
EndChar

StartChar: nine
Encoding: 57 57 85
Width: 1024
VWidth: 0
Flags: W
HStem: 9 61<122.404 421.596> 146 61<363.312 542.596> 284 61<483.404 662.596> 421 61<122.404 662.596> 559 61<2.31177 180.688 483.404 662.596> 696 61<2.31177 180.688 483.404 662.596> 834 61<122.404 542.596>
VStem: 1 181<559.918 619.017 696.983 756.082> 482 182<285.312 343.596 560.312 618.596 697.404 755.688>
LayerCount: 2
Fore
SplineSet
513 834 m 2
 152 834 l 2
 135 834 121 847 121 864 c 0
 121 881 135 895 152 895 c 2
 513 895 l 2
 530 895 544 881 544 864 c 0
 544 847 530 834 513 834 c 2
152 696 m 2
 31 696 l 2
 14 696 1 710 1 727 c 0
 1 744 14 757 31 757 c 2
 152 757 l 2
 169 757 182 744 182 727 c 0
 182 710 169 696 152 696 c 2
152 559 m 2
 31 559 l 2
 14 559 1 572 1 589 c 0
 1 606 14 620 31 620 c 2
 152 620 l 2
 169 620 182 606 182 589 c 0
 182 572 169 559 152 559 c 2
633 421 m 2
 152 421 l 2
 135 421 121 435 121 452 c 0
 121 469 135 482 152 482 c 2
 633 482 l 2
 650 482 664 469 664 452 c 0
 664 435 650 421 633 421 c 2
633 696 m 2
 513 696 l 2
 496 696 482 710 482 727 c 0
 482 744 496 757 513 757 c 2
 633 757 l 2
 650 757 664 744 664 727 c 0
 664 710 650 696 633 696 c 2
633 559 m 2
 513 559 l 2
 496 559 482 572 482 589 c 0
 482 606 496 620 513 620 c 2
 633 620 l 2
 650 620 664 606 664 589 c 0
 664 572 650 559 633 559 c 2
633 284 m 2
 513 284 l 2
 496 284 482 297 482 314 c 0
 482 331 496 345 513 345 c 2
 633 345 l 2
 650 345 664 331 664 314 c 0
 664 297 650 284 633 284 c 2
513 146 m 2
 392 146 l 2
 375 146 362 160 362 177 c 0
 362 194 375 207 392 207 c 2
 513 207 l 2
 530 207 544 194 544 177 c 0
 544 160 530 146 513 146 c 2
392 9 m 2
 152 9 l 2
 135 9 121 22 121 39 c 0
 121 56 135 70 152 70 c 2
 392 70 l 2
 409 70 423 56 423 39 c 0
 423 22 409 9 392 9 c 2
EndSplineSet
Validated: 1
EndChar

StartChar: plus
Encoding: 43 43 86
Width: 1024
VWidth: 0
Flags: W
HStem: 146 61<242.404 421.596> 284 61<242.404 421.596> 421 61<2.31177 662.596> 559 61<242.404 421.596> 696 61<242.404 421.596>
VStem: 241 182<147.404 205.688 285.312 343.596 560.312 618.596 697.404 755.688>
LayerCount: 2
Fore
SplineSet
633 421 m 2
 31 421 l 2
 14 421 1 435 1 452 c 0
 1 469 14 482 31 482 c 2
 633 482 l 2
 650 482 664 469 664 452 c 0
 664 435 650 421 633 421 c 2
392 559 m 2
 272 559 l 2
 255 559 241 572 241 589 c 0
 241 606 255 620 272 620 c 2
 392 620 l 2
 409 620 423 606 423 589 c 0
 423 572 409 559 392 559 c 2
392 696 m 2
 272 696 l 2
 255 696 241 710 241 727 c 0
 241 744 255 757 272 757 c 2
 392 757 l 2
 409 757 423 744 423 727 c 0
 423 710 409 696 392 696 c 2
392 146 m 2
 272 146 l 2
 255 146 241 160 241 177 c 0
 241 194 255 207 272 207 c 2
 392 207 l 2
 409 207 423 194 423 177 c 0
 423 160 409 146 392 146 c 2
392 284 m 2
 272 284 l 2
 255 284 241 297 241 314 c 0
 241 331 255 345 272 345 c 2
 392 345 l 2
 409 345 423 331 423 314 c 0
 423 297 409 284 392 284 c 2
EndSplineSet
Validated: 1
EndChar

StartChar: glyph87
Encoding: 269 8593 87
Width: 1024
VWidth: 0
Flags: W
HStem: 9 61<243.312 422.596> 146 61<243.312 422.596> 284 61<243.312 422.596> 421 61<243.312 422.596> 559 61<2.31177 180.688 242.404 421.688 483.404 662.596> 696 61<122.404 542.596> 834 61<242.404 421.596>
VStem: 242 182<10.3118 68.5959 147.404 205.688 285.312 343.596 422.404 480.688 560.312 618.596 835.534 893.359>
LayerCount: 2
Fore
SplineSet
152 559 m 2
 31 559 l 2
 14 559 1 572 1 589 c 0
 1 606 14 620 31 620 c 2
 152 620 l 2
 169 620 182 606 182 589 c 0
 182 572 169 559 152 559 c 2
513 696 m 2
 152 696 l 2
 135 696 121 710 121 727 c 0
 121 744 135 757 152 757 c 2
 513 757 l 2
 530 757 544 744 544 727 c 0
 544 710 530 696 513 696 c 2
392 834 m 2
 272 834 l 2
 255 834 241 847 241 864 c 0
 241 881 255 895 272 895 c 2
 392 895 l 2
 409 895 423 881 423 864 c 0
 423 847 409 834 392 834 c 2
633 559 m 2
 513 559 l 2
 496 559 482 572 482 589 c 0
 482 606 496 620 513 620 c 2
 633 620 l 2
 650 620 664 606 664 589 c 0
 664 572 650 559 633 559 c 2
393 559 m 2
 272 559 l 2
 255 559 241 572 241 589 c 0
 241 606 255 620 272 620 c 2
 393 620 l 2
 410 620 423 606 423 589 c 0
 423 572 410 559 393 559 c 2
393 421 m 2
 272 421 l 2
 255 421 242 435 242 452 c 0
 242 469 255 482 272 482 c 2
 393 482 l 2
 410 482 424 469 424 452 c 0
 424 435 410 421 393 421 c 2
393 284 m 2
 272 284 l 2
 255 284 242 297 242 314 c 0
 242 331 255 345 272 345 c 2
 393 345 l 2
 410 345 424 331 424 314 c 0
 424 297 410 284 393 284 c 2
393 146 m 2
 272 146 l 2
 255 146 242 160 242 177 c 0
 242 194 255 207 272 207 c 2
 393 207 l 2
 410 207 424 194 424 177 c 0
 424 160 410 146 393 146 c 2
393 9 m 2
 272 9 l 2
 255 9 242 22 242 39 c 0
 242 56 255 70 272 70 c 2
 393 70 l 2
 410 70 424 56 424 39 c 0
 424 22 410 9 393 9 c 2
EndSplineSet
Validated: 1
EndChar

StartChar: asterisk
Encoding: 42 42 88
Width: 1024
VWidth: 0
Flags: W
HStem: 284 61<242.404 421.596> 421 61<2.31177 180.688 242.404 421.596 483.404 662.596> 559 61<122.404 542.596> 696 61<2.31177 180.688 242.404 421.596 483.404 662.596> 834 61<242.404 421.596>
VStem: 1 181<421.983 481.082 696.983 756.082> 241 182<285.312 343.596 422.404 480.688 697.404 755.688 835.312 893.596> 482 182<422.404 480.688 697.404 755.688>
LayerCount: 2
Fore
SplineSet
392 834 m 2
 272 834 l 2
 255 834 241 847 241 864 c 0
 241 881 255 895 272 895 c 2
 392 895 l 2
 409 895 423 881 423 864 c 0
 423 847 409 834 392 834 c 2
392 696 m 2
 272 696 l 2
 255 696 241 710 241 727 c 0
 241 744 255 757 272 757 c 2
 392 757 l 2
 409 757 423 744 423 727 c 0
 423 710 409 696 392 696 c 2
152 696 m 2
 31 696 l 2
 14 696 1 710 1 727 c 0
 1 744 14 757 31 757 c 2
 152 757 l 2
 169 757 182 744 182 727 c 0
 182 710 169 696 152 696 c 2
633 696 m 2
 513 696 l 2
 496 696 482 710 482 727 c 0
 482 744 496 757 513 757 c 2
 633 757 l 2
 650 757 664 744 664 727 c 0
 664 710 650 696 633 696 c 2
392 421 m 2
 272 421 l 2
 255 421 241 435 241 452 c 0
 241 469 255 482 272 482 c 2
 392 482 l 2
 409 482 423 469 423 452 c 0
 423 435 409 421 392 421 c 2
152 421 m 2
 31 421 l 2
 14 421 1 435 1 452 c 0
 1 469 14 482 31 482 c 2
 152 482 l 2
 169 482 182 469 182 452 c 0
 182 435 169 421 152 421 c 2
633 421 m 2
 513 421 l 2
 496 421 482 435 482 452 c 0
 482 469 496 482 513 482 c 2
 633 482 l 2
 650 482 664 469 664 452 c 0
 664 435 650 421 633 421 c 2
392 284 m 2
 272 284 l 2
 255 284 241 297 241 314 c 0
 241 331 255 345 272 345 c 2
 392 345 l 2
 409 345 423 331 423 314 c 0
 423 297 409 284 392 284 c 2
513 559 m 2
 152 559 l 2
 135 559 121 572 121 589 c 0
 121 606 135 620 152 620 c 2
 513 620 l 2
 530 620 544 606 544 589 c 0
 544 572 530 559 513 559 c 2
EndSplineSet
Validated: 1
EndChar

StartChar: eight
Encoding: 56 56 89
Width: 1024
VWidth: 0
Flags: W
HStem: 9 61<122.404 542.596> 146 61<2.31177 180.688 483.404 662.596> 284 61<2.31177 180.688 483.404 662.596> 421 61<122.404 542.596> 559 61<2.31177 180.688 483.404 662.596> 696 61<2.31177 180.688 483.404 662.596> 834 61<122.404 542.596>
VStem: 1 181<146.983 206.082 284.918 344.017 559.918 619.017 696.983 756.082> 482 182<147.404 205.688 285.312 343.596 560.312 618.596 697.404 755.688>
LayerCount: 2
Fore
SplineSet
513 834 m 2
 152 834 l 2
 135 834 121 847 121 864 c 0
 121 881 135 895 152 895 c 2
 513 895 l 2
 530 895 544 881 544 864 c 0
 544 847 530 834 513 834 c 2
152 696 m 2
 31 696 l 2
 14 696 1 710 1 727 c 0
 1 744 14 757 31 757 c 2
 152 757 l 2
 169 757 182 744 182 727 c 0
 182 710 169 696 152 696 c 2
152 559 m 2
 31 559 l 2
 14 559 1 572 1 589 c 0
 1 606 14 620 31 620 c 2
 152 620 l 2
 169 620 182 606 182 589 c 0
 182 572 169 559 152 559 c 2
513 421 m 2
 152 421 l 2
 135 421 121 435 121 452 c 0
 121 469 135 482 152 482 c 2
 513 482 l 2
 530 482 544 469 544 452 c 0
 544 435 530 421 513 421 c 2
152 284 m 2
 31 284 l 2
 14 284 1 297 1 314 c 0
 1 331 14 345 31 345 c 2
 152 345 l 2
 169 345 182 331 182 314 c 0
 182 297 169 284 152 284 c 2
152 146 m 2
 31 146 l 2
 14 146 1 160 1 177 c 0
 1 194 14 207 31 207 c 2
 152 207 l 2
 169 207 182 194 182 177 c 0
 182 160 169 146 152 146 c 2
633 696 m 2
 513 696 l 2
 496 696 482 710 482 727 c 0
 482 744 496 757 513 757 c 2
 633 757 l 2
 650 757 664 744 664 727 c 0
 664 710 650 696 633 696 c 2
633 559 m 2
 513 559 l 2
 496 559 482 572 482 589 c 0
 482 606 496 620 513 620 c 2
 633 620 l 2
 650 620 664 606 664 589 c 0
 664 572 650 559 633 559 c 2
633 284 m 2
 513 284 l 2
 496 284 482 297 482 314 c 0
 482 331 496 345 513 345 c 2
 633 345 l 2
 650 345 664 331 664 314 c 0
 664 297 650 284 633 284 c 2
633 146 m 2
 513 146 l 2
 496 146 482 160 482 177 c 0
 482 194 496 207 513 207 c 2
 633 207 l 2
 650 207 664 194 664 177 c 0
 664 160 650 146 633 146 c 2
513 9 m 2
 152 9 l 2
 135 9 121 22 121 39 c 0
 121 56 135 70 152 70 c 2
 513 70 l 2
 530 70 544 56 544 39 c 0
 544 22 530 9 513 9 c 2
EndSplineSet
Validated: 1
EndChar

StartChar: Q
Encoding: 81 81 90
Width: 1024
VWidth: 0
Flags: W
HStem: 9 61<112.312 421.596 483.404 662.596> 146 61<2.31177 181.596 363.312 542.596> 284 61<2.31177 181.596 242.404 421.688 483.404 662.596> 421 61<2.31177 181.596 483.404 662.596> 559 61<2.31177 181.596 483.404 662.596> 696 61<2.31177 180.688 483.404 662.596> 834 61<122.404 542.596>
VStem: 1 182<147.404 205.688 285.312 343.596 422.404 480.688 560.312 618.596 697.404 755.688> 482 182<10.3118 68.5959 285.312 343.596 422.404 480.688 560.312 618.596 697.404 755.688>
LayerCount: 2
Fore
SplineSet
513 834 m 2
 152 834 l 2
 135 834 121 847 121 864 c 0
 121 881 135 895 152 895 c 2
 513 895 l 2
 530 895 544 881 544 864 c 0
 544 847 530 834 513 834 c 2
152 696 m 2
 31 696 l 2
 14 696 1 710 1 727 c 0
 1 744 14 757 31 757 c 2
 152 757 l 2
 169 757 182 744 182 727 c 0
 182 710 169 696 152 696 c 2
152 559 m 2
 31 559 l 2
 14 559 1 572 1 589 c 0
 1 606 14 620 31 620 c 2
 152 620 l 2
 169 620 183 606 183 589 c 0
 183 572 169 559 152 559 c 2
152 421 m 2
 31 421 l 2
 14 421 1 435 1 452 c 0
 1 469 14 482 31 482 c 2
 152 482 l 2
 169 482 183 469 183 452 c 0
 183 435 169 421 152 421 c 2
152 284 m 2
 31 284 l 2
 14 284 1 297 1 314 c 0
 1 331 14 345 31 345 c 2
 152 345 l 2
 169 345 183 331 183 314 c 0
 183 297 169 284 152 284 c 2
152 146 m 2
 31 146 l 2
 14 146 1 160 1 177 c 0
 1 194 14 207 31 207 c 2
 152 207 l 2
 169 207 183 194 183 177 c 0
 183 160 169 146 152 146 c 2
392 9 m 2
 141 9 l 2
 124 9 111 22 111 39 c 0
 111 56 124 70 141 70 c 2
 392 70 l 2
 409 70 423 56 423 39 c 0
 423 22 409 9 392 9 c 2
513 146 m 2
 392 146 l 2
 375 146 362 160 362 177 c 0
 362 194 375 207 392 207 c 2
 513 207 l 2
 530 207 544 194 544 177 c 0
 544 160 530 146 513 146 c 2
633 284 m 2
 513 284 l 2
 496 284 482 297 482 314 c 0
 482 331 496 345 513 345 c 2
 633 345 l 2
 650 345 664 331 664 314 c 0
 664 297 650 284 633 284 c 2
393 284 m 2
 272 284 l 2
 255 284 241 297 241 314 c 0
 241 331 255 345 272 345 c 2
 393 345 l 2
 410 345 423 331 423 314 c 0
 423 297 410 284 393 284 c 2
633 9 m 2
 513 9 l 2
 496 9 482 22 482 39 c 0
 482 56 496 70 513 70 c 2
 633 70 l 2
 650 70 664 56 664 39 c 0
 664 22 650 9 633 9 c 2
633 421 m 2
 513 421 l 2
 496 421 482 435 482 452 c 0
 482 469 496 482 513 482 c 2
 633 482 l 2
 650 482 664 469 664 452 c 0
 664 435 650 421 633 421 c 2
633 559 m 2
 513 559 l 2
 496 559 482 572 482 589 c 0
 482 606 496 620 513 620 c 2
 633 620 l 2
 650 620 664 606 664 589 c 0
 664 572 650 559 633 559 c 2
633 696 m 2
 513 696 l 2
 496 696 482 710 482 727 c 0
 482 744 496 757 513 757 c 2
 633 757 l 2
 650 757 664 744 664 727 c 0
 664 710 650 696 633 696 c 2
EndSplineSet
Validated: 1
EndChar

StartChar: underscore
Encoding: 95 95 91
Width: 1024
VWidth: 0
Flags: W
HStem: 9 61<2.31177 662.596>
LayerCount: 2
Fore
SplineSet
633 9 m 2
 31 9 l 2
 14 9 1 22 1 39 c 0
 1 56 14 70 31 70 c 2
 633 70 l 2
 650 70 664 56 664 39 c 0
 664 22 650 9 633 9 c 2
EndSplineSet
Validated: 1
EndChar

StartChar: v
Encoding: 118 118 92
Width: 1024
VWidth: 0
Flags: W
HStem: 9 61<243.312 422.596> 146 61<242.404 421.688> 284 61<122.404 301.596 363.312 542.596> 421 61<122.404 301.596 363.312 542.596> 559 61<2.31177 181.596 483.404 662.596> 696 61<2.31177 181.596 483.404 662.596> 834 61<2.31177 180.688 483.404 662.596>
VStem: 1 182<560.312 618.596 697.404 755.688 835.312 893.596> 121 182<285.312 343.596 422.404 480.688> 242 182<10.3118 68.5959 147.404 205.688> 362 182<285.312 343.596 422.404 480.688> 482 182<560.312 618.596 697.404 755.688 835.312 893.596>
LayerCount: 2
Fore
SplineSet
152 834 m 2xff
 31 834 l 2
 14 834 1 847 1 864 c 0
 1 881 14 895 31 895 c 2
 152 895 l 2
 169 895 182 881 182 864 c 0
 182 847 169 834 152 834 c 2xff
152 696 m 2
 31 696 l 2
 14 696 1 710 1 727 c 0
 1 744 14 757 31 757 c 2
 152 757 l 2
 169 757 183 744 183 727 c 0
 183 710 169 696 152 696 c 2
152 559 m 2
 31 559 l 2
 14 559 1 572 1 589 c 0
 1 606 14 620 31 620 c 2
 152 620 l 2
 169 620 183 606 183 589 c 0
 183 572 169 559 152 559 c 2
272 421 m 2
 152 421 l 2
 135 421 121 435 121 452 c 0
 121 469 135 482 152 482 c 2
 272 482 l 2
 289 482 303 469 303 452 c 0xfe80
 303 435 289 421 272 421 c 2
272 284 m 2
 152 284 l 2
 135 284 121 297 121 314 c 0
 121 331 135 345 152 345 c 2
 272 345 l 2
 289 345 303 331 303 314 c 0
 303 297 289 284 272 284 c 2
393 146 m 2
 272 146 l 2
 255 146 241 160 241 177 c 0
 241 194 255 207 272 207 c 2
 393 207 l 2
 410 207 423 194 423 177 c 0
 423 160 410 146 393 146 c 2
393 9 m 2
 272 9 l 2
 255 9 242 22 242 39 c 0
 242 56 255 70 272 70 c 2
 393 70 l 2
 410 70 424 56 424 39 c 0xfe40
 424 22 410 9 393 9 c 2
513 284 m 2
 392 284 l 2
 375 284 362 297 362 314 c 0
 362 331 375 345 392 345 c 2
 513 345 l 2
 530 345 544 331 544 314 c 0xfe20
 544 297 530 284 513 284 c 2
513 421 m 2
 392 421 l 2
 375 421 362 435 362 452 c 0
 362 469 375 482 392 482 c 2
 513 482 l 2
 530 482 544 469 544 452 c 0
 544 435 530 421 513 421 c 2
633 559 m 2
 513 559 l 2
 496 559 482 572 482 589 c 0
 482 606 496 620 513 620 c 2
 633 620 l 2
 650 620 664 606 664 589 c 0xfe10
 664 572 650 559 633 559 c 2
633 696 m 2
 513 696 l 2
 496 696 482 710 482 727 c 0
 482 744 496 757 513 757 c 2
 633 757 l 2
 650 757 664 744 664 727 c 0
 664 710 650 696 633 696 c 2
633 834 m 2
 513 834 l 2
 496 834 482 847 482 864 c 0
 482 881 496 895 513 895 c 2
 633 895 l 2
 650 895 664 881 664 864 c 0
 664 847 650 834 633 834 c 2
EndSplineSet
Validated: 1
EndChar

StartChar: glyph93
Encoding: 270 8734 93
Width: 1024
VWidth: 0
Flags: W
HStem: 284 61<122.404 421.596 483.404 782.688> 421 61<2.31177 181.596 363.312 542.596 724.312 903.596> 559 61<2.31177 180.688 363.312 542.596 724.312 903.596> 696 61<122.404 421.596 483.404 782.688>
VStem: 1 182<422.404 480.688 560.312 618.596> 362 182<422.404 480.688 560.312 618.596> 723 182<422.404 480.688 560.312 618.596>
CounterMasks: 1 0e
LayerCount: 2
Fore
SplineSet
152 559 m 2
 31 559 l 2
 14 559 1 572 1 589 c 0
 1 606 14 620 31 620 c 2
 152 620 l 2
 169 620 182 606 182 589 c 0
 182 572 169 559 152 559 c 2
152 421 m 2
 31 421 l 2
 14 421 1 435 1 452 c 0
 1 469 14 482 31 482 c 2
 152 482 l 2
 169 482 183 469 183 452 c 0
 183 435 169 421 152 421 c 2
513 559 m 2
 392 559 l 2
 375 559 362 572 362 589 c 0
 362 606 375 620 392 620 c 2
 513 620 l 2
 530 620 544 606 544 589 c 0
 544 572 530 559 513 559 c 2
513 421 m 2
 392 421 l 2
 375 421 362 435 362 452 c 0
 362 469 375 482 392 482 c 2
 513 482 l 2
 530 482 544 469 544 452 c 0
 544 435 530 421 513 421 c 2
874 559 m 2
 753 559 l 2
 736 559 723 572 723 589 c 0
 723 606 736 620 753 620 c 2
 874 620 l 2
 891 620 905 606 905 589 c 0
 905 572 891 559 874 559 c 2
874 421 m 2
 753 421 l 2
 736 421 723 435 723 452 c 0
 723 469 736 482 753 482 c 2
 874 482 l 2
 891 482 905 469 905 452 c 0
 905 435 891 421 874 421 c 2
392 696 m 2
 152 696 l 2
 135 696 121 710 121 727 c 0
 121 744 135 757 152 757 c 2
 392 757 l 2
 409 757 423 744 423 727 c 0
 423 710 409 696 392 696 c 2
754 696 m 2
 513 696 l 2
 496 696 482 710 482 727 c 0
 482 744 496 757 513 757 c 2
 754 757 l 2
 771 757 784 744 784 727 c 0
 784 710 771 696 754 696 c 2
392 284 m 2
 152 284 l 2
 135 284 121 297 121 314 c 0
 121 331 135 345 152 345 c 2
 392 345 l 2
 409 345 423 331 423 314 c 0
 423 297 409 284 392 284 c 2
754 284 m 2
 513 284 l 2
 496 284 482 297 482 314 c 0
 482 331 496 345 513 345 c 2
 754 345 l 2
 771 345 784 331 784 314 c 0
 784 297 771 284 754 284 c 2
EndSplineSet
Validated: 1
EndChar

StartChar: w
Encoding: 119 119 94
Width: 1024
VWidth: 0
Flags: W
HStem: 9 61<122.404 301.596 363.404 542.596> 146 61<2.31177 181.596 243.312 422.596 483.404 662.596> 284 61<2.31177 181.596 242.404 421.688 483.404 662.596> 421 61<2.31177 181.596 242.404 421.688 483.404 662.596> 559 61<2.31177 181.596 483.404 662.596> 696 61<2.31177 181.596 483.404 662.596> 834 61<2.31177 181.596 483.404 662.596>
VStem: 1 182<147.404 205.688 285.312 343.596 422.404 480.688 560.312 618.596 697.404 755.688 835.312 893.596> 241 182<147.404 205.688 285.312 343.596 422.404 480.688> 482 182<147.404 205.688 285.312 343.596 422.404 480.688 560.312 618.596 697.404 755.688 835.312 893.596>
LayerCount: 2
Fore
SplineSet
152 834 m 2
 31 834 l 2
 14 834 1 847 1 864 c 0
 1 881 14 895 31 895 c 2
 152 895 l 2
 169 895 183 881 183 864 c 0
 183 847 169 834 152 834 c 2
152 696 m 2
 31 696 l 2
 14 696 1 710 1 727 c 0
 1 744 14 757 31 757 c 2
 152 757 l 2
 169 757 183 744 183 727 c 0
 183 710 169 696 152 696 c 2
152 559 m 2
 31 559 l 2
 14 559 1 572 1 589 c 0
 1 606 14 620 31 620 c 2
 152 620 l 2
 169 620 183 606 183 589 c 0
 183 572 169 559 152 559 c 2
152 421 m 2
 31 421 l 2
 14 421 1 435 1 452 c 0
 1 469 14 482 31 482 c 2
 152 482 l 2
 169 482 183 469 183 452 c 0
 183 435 169 421 152 421 c 2
152 284 m 2
 31 284 l 2
 14 284 1 297 1 314 c 0
 1 331 14 345 31 345 c 2
 152 345 l 2
 169 345 183 331 183 314 c 0
 183 297 169 284 152 284 c 2
152 146 m 2
 31 146 l 2
 14 146 1 160 1 177 c 0
 1 194 14 207 31 207 c 2
 152 207 l 2
 169 207 183 194 183 177 c 0
 183 160 169 146 152 146 c 2
633 834 m 2
 513 834 l 2
 496 834 482 847 482 864 c 0
 482 881 496 895 513 895 c 2
 633 895 l 2
 650 895 664 881 664 864 c 0
 664 847 650 834 633 834 c 2
633 696 m 2
 513 696 l 2
 496 696 482 710 482 727 c 0
 482 744 496 757 513 757 c 2
 633 757 l 2
 650 757 664 744 664 727 c 0
 664 710 650 696 633 696 c 2
633 559 m 2
 513 559 l 2
 496 559 482 572 482 589 c 0
 482 606 496 620 513 620 c 2
 633 620 l 2
 650 620 664 606 664 589 c 0
 664 572 650 559 633 559 c 2
633 421 m 2
 513 421 l 2
 496 421 482 435 482 452 c 0
 482 469 496 482 513 482 c 2
 633 482 l 2
 650 482 664 469 664 452 c 0
 664 435 650 421 633 421 c 2
633 284 m 2
 513 284 l 2
 496 284 482 297 482 314 c 0
 482 331 496 345 513 345 c 2
 633 345 l 2
 650 345 664 331 664 314 c 0
 664 297 650 284 633 284 c 2
633 146 m 2
 513 146 l 2
 496 146 482 160 482 177 c 0
 482 194 496 207 513 207 c 2
 633 207 l 2
 650 207 664 194 664 177 c 0
 664 160 650 146 633 146 c 2
272 9 m 2
 152 9 l 2
 135 9 121 22 121 39 c 0
 121 56 135 70 152 70 c 2
 272 70 l 2
 289 70 303 56 303 39 c 0
 303 22 289 9 272 9 c 2
513 9 m 2
 393 9 l 2
 376 9 362 22 362 39 c 0
 362 56 376 70 393 70 c 2
 513 70 l 2
 530 70 544 56 544 39 c 0
 544 22 530 9 513 9 c 2
393 146 m 2
 272 146 l 2
 255 146 242 160 242 177 c 0
 242 194 255 207 272 207 c 2
 393 207 l 2
 410 207 424 194 424 177 c 0
 424 160 410 146 393 146 c 2
393 284 m 2
 272 284 l 2
 255 284 241 297 241 314 c 0
 241 331 255 345 272 345 c 2
 393 345 l 2
 410 345 423 331 423 314 c 0
 423 297 410 284 393 284 c 2
393 421 m 2
 272 421 l 2
 255 421 241 435 241 452 c 0
 241 469 255 482 272 482 c 2
 393 482 l 2
 410 482 423 469 423 452 c 0
 423 435 410 421 393 421 c 2
EndSplineSet
Validated: 1
EndChar

StartChar: exclam
Encoding: 33 33 95
Width: 1024
VWidth: 0
Flags: W
HStem: 9 61<244.312 422.596> 421 61<244.312 422.596> 559 61<124.404 541.688> 696 61<124.404 541.688> 834 61<244.312 422.596>
VStem: 243 181<10.3118 68.5959 422.404 480.688 835.312 893.596>
LayerCount: 2
Fore
SplineSet
393 834 m 2
 273 834 l 2
 256 834 243 847 243 864 c 0
 243 881 256 895 273 895 c 2
 393 895 l 2
 410 895 424 881 424 864 c 0
 424 847 410 834 393 834 c 2
393 421 m 2
 273 421 l 2
 256 421 243 435 243 452 c 0
 243 469 256 482 273 482 c 2
 393 482 l 2
 410 482 424 469 424 452 c 0
 424 435 410 421 393 421 c 2
393 9 m 2
 273 9 l 2
 256 9 243 22 243 39 c 0
 243 56 256 70 273 70 c 2
 393 70 l 2
 410 70 424 56 424 39 c 0
 424 22 410 9 393 9 c 2
513 696 m 2
 154 696 l 2
 137 696 123 710 123 727 c 0
 123 744 137 757 154 757 c 2
 513 757 l 2
 530 757 543 744 543 727 c 0
 543 710 530 696 513 696 c 2
513 559 m 2
 154 559 l 2
 137 559 123 572 123 589 c 0
 123 606 137 620 154 620 c 2
 513 620 l 2
 530 620 543 606 543 589 c 0
 543 572 530 559 513 559 c 2
EndSplineSet
Validated: 1
EndChar

StartChar: z
Encoding: 122 122 96
Width: 1024
VWidth: 0
Flags: W
HStem: 9 61<2.31177 662.596> 146 61<2.31177 181.596> 284 61<122.404 301.688> 421 61<242.404 421.688> 559 61<363.312 542.596> 696 61<483.404 662.596> 834 61<2.31177 662.596>
LayerCount: 2
Fore
SplineSet
633 696 m 2
 513 696 l 2
 496 696 482 710 482 727 c 0
 482 744 496 757 513 757 c 2
 633 757 l 2
 650 757 664 744 664 727 c 0
 664 710 650 696 633 696 c 2
513 559 m 2
 392 559 l 2
 375 559 362 572 362 589 c 0
 362 606 375 620 392 620 c 2
 513 620 l 2
 530 620 544 606 544 589 c 0
 544 572 530 559 513 559 c 2
393 421 m 2
 272 421 l 2
 255 421 241 435 241 452 c 0
 241 469 255 482 272 482 c 2
 393 482 l 2
 410 482 423 469 423 452 c 0
 423 435 410 421 393 421 c 2
273 284 m 2
 152 284 l 2
 135 284 121 297 121 314 c 0
 121 331 135 345 152 345 c 2
 273 345 l 2
 290 345 303 331 303 314 c 0
 303 297 290 284 273 284 c 2
152 146 m 2
 31 146 l 2
 14 146 1 160 1 177 c 0
 1 194 14 207 31 207 c 2
 152 207 l 2
 169 207 183 194 183 177 c 0
 183 160 169 146 152 146 c 2
633 9 m 2
 31 9 l 2
 14 9 1 22 1 39 c 0
 1 56 14 70 31 70 c 2
 633 70 l 2
 650 70 664 56 664 39 c 0
 664 22 650 9 633 9 c 2
633 834 m 2
 31 834 l 2
 14 834 1 847 1 864 c 0
 1 881 14 895 31 895 c 2
 633 895 l 2
 650 895 664 881 664 864 c 0
 664 847 650 834 633 834 c 2
EndSplineSet
Validated: 1
EndChar

StartChar: percent
Encoding: 37 37 97
Width: 1024
VWidth: 0
Flags: W
HStem: 9 61<2.31177 180.688 363.312 662.596> 146 61<2.31177 180.688 363.312 662.596> 284 61<122.404 301.596> 421 61<242.404 421.596> 559 61<363.312 542.596> 696 61<2.31177 301.596 483.404 662.596> 834 61<2.31177 301.596 483.404 662.596>
VStem: 1 181<9.91782 69.0166 146.983 206.082> 482 182<697.404 755.688 835.312 893.596>
LayerCount: 2
Fore
SplineSet
272 834 m 2
 31 834 l 2
 14 834 1 847 1 864 c 0
 1 881 14 895 31 895 c 2
 272 895 l 2
 289 895 303 881 303 864 c 0
 303 847 289 834 272 834 c 2
272 696 m 2
 31 696 l 2
 14 696 1 710 1 727 c 0
 1 744 14 757 31 757 c 2
 272 757 l 2
 289 757 303 744 303 727 c 0
 303 710 289 696 272 696 c 2
633 146 m 2
 392 146 l 2
 375 146 362 160 362 177 c 0
 362 194 375 207 392 207 c 2
 633 207 l 2
 650 207 664 194 664 177 c 0
 664 160 650 146 633 146 c 2
633 9 m 2
 392 9 l 2
 375 9 362 22 362 39 c 0
 362 56 375 70 392 70 c 2
 633 70 l 2
 650 70 664 56 664 39 c 0
 664 22 650 9 633 9 c 2
633 834 m 2
 513 834 l 2
 496 834 482 847 482 864 c 0
 482 881 496 895 513 895 c 2
 633 895 l 2
 650 895 664 881 664 864 c 0
 664 847 650 834 633 834 c 2
633 696 m 2
 513 696 l 2
 496 696 482 710 482 727 c 0
 482 744 496 757 513 757 c 2
 633 757 l 2
 650 757 664 744 664 727 c 0
 664 710 650 696 633 696 c 2
513 559 m 2
 392 559 l 2
 375 559 362 572 362 589 c 0
 362 606 375 620 392 620 c 2
 513 620 l 2
 530 620 544 606 544 589 c 0
 544 572 530 559 513 559 c 2
392 421 m 2
 272 421 l 2
 255 421 241 435 241 452 c 0
 241 469 255 482 272 482 c 2
 392 482 l 2
 409 482 423 469 423 452 c 0
 423 435 409 421 392 421 c 2
272 284 m 2
 152 284 l 2
 135 284 121 297 121 314 c 0
 121 331 135 345 152 345 c 2
 272 345 l 2
 289 345 303 331 303 314 c 0
 303 297 289 284 272 284 c 2
152 146 m 2
 31 146 l 2
 14 146 1 160 1 177 c 0
 1 194 14 207 31 207 c 2
 152 207 l 2
 169 207 182 194 182 177 c 0
 182 160 169 146 152 146 c 2
152 9 m 2
 31 9 l 2
 14 9 1 22 1 39 c 0
 1 56 14 70 31 70 c 2
 152 70 l 2
 169 70 182 56 182 39 c 0
 182 22 169 9 152 9 c 2
EndSplineSet
Validated: 1
EndChar

StartChar: glyph98
Encoding: 271 9834 98
Width: 1024
VWidth: 0
Flags: W
HStem: 9 61<122.404 421.596> 146 61<2.31177 542.596> 284 61<122.404 662.596> 421 61<483.404 662.596> 559 61<483.404 662.596 724.312 903.596> 696 61<483.404 782.596> 834 61<483.404 662.596>
VStem: 482 182<422.404 480.688 560.312 618.596 835.312 893.596>
LayerCount: 2
Fore
SplineSet
392 9 m 2
 152 9 l 2
 135 9 121 22 121 39 c 0
 121 56 135 70 152 70 c 2
 392 70 l 2
 409 70 423 56 423 39 c 0
 423 22 409 9 392 9 c 2
513 146 m 2
 31 146 l 2
 14 146 1 160 1 177 c 0
 1 194 14 207 31 207 c 2
 513 207 l 2
 530 207 544 194 544 177 c 0
 544 160 530 146 513 146 c 2
633 284 m 2
 152 284 l 2
 135 284 121 297 121 314 c 0
 121 331 135 345 152 345 c 2
 633 345 l 2
 650 345 664 331 664 314 c 0
 664 297 650 284 633 284 c 2
633 421 m 2
 513 421 l 2
 496 421 482 435 482 452 c 0
 482 469 496 482 513 482 c 2
 633 482 l 2
 650 482 664 469 664 452 c 0
 664 435 650 421 633 421 c 2
633 559 m 2
 513 559 l 2
 496 559 482 572 482 589 c 0
 482 606 496 620 513 620 c 2
 633 620 l 2
 650 620 664 606 664 589 c 0
 664 572 650 559 633 559 c 2
753 696 m 2
 513 696 l 2
 496 696 482 710 482 727 c 0
 482 744 496 757 513 757 c 2
 753 757 l 2
 770 757 784 744 784 727 c 0
 784 710 770 696 753 696 c 2
633 834 m 2
 513 834 l 2
 496 834 482 847 482 864 c 0
 482 881 496 895 513 895 c 2
 633 895 l 2
 650 895 664 881 664 864 c 0
 664 847 650 834 633 834 c 2
874 559 m 2
 753 559 l 2
 736 559 723 572 723 589 c 0
 723 606 736 620 753 620 c 2
 874 620 l 2
 891 620 905 606 905 589 c 0
 905 572 891 559 874 559 c 2
EndSplineSet
Validated: 1
EndChar

StartChar: dollar
Encoding: 36 36 99
Width: 1024
VWidth: 0
Flags: W
HStem: 9 61<2.31177 662.596> 146 61<242.404 421.596 483.404 662.596> 284 61<122.404 542.596> 421 61<122.404 542.596> 559 61<2.31177 180.688 242.404 421.596> 696 61<122.404 662.596> 834 61<242.404 421.596>
VStem: 241 182<147.404 205.688 560.312 618.596 835.312 893.596>
LayerCount: 2
Fore
SplineSet
392 834 m 2
 272 834 l 2
 255 834 241 847 241 864 c 0
 241 881 255 895 272 895 c 2
 392 895 l 2
 409 895 423 881 423 864 c 0
 423 847 409 834 392 834 c 2
633 696 m 2
 152 696 l 2
 135 696 121 710 121 727 c 0
 121 744 135 757 152 757 c 2
 633 757 l 2
 650 757 664 744 664 727 c 0
 664 710 650 696 633 696 c 2
152 559 m 2
 31 559 l 2
 14 559 1 572 1 589 c 0
 1 606 14 620 31 620 c 2
 152 620 l 2
 169 620 182 606 182 589 c 0
 182 572 169 559 152 559 c 2
392 559 m 2
 272 559 l 2
 255 559 241 572 241 589 c 0
 241 606 255 620 272 620 c 2
 392 620 l 2
 409 620 423 606 423 589 c 0
 423 572 409 559 392 559 c 2
513 421 m 2
 152 421 l 2
 135 421 121 435 121 452 c 0
 121 469 135 482 152 482 c 2
 513 482 l 2
 530 482 544 469 544 452 c 0
 544 435 530 421 513 421 c 2
513 284 m 2
 152 284 l 2
 135 284 121 297 121 314 c 0
 121 331 135 345 152 345 c 2
 513 345 l 2
 530 345 544 331 544 314 c 0
 544 297 530 284 513 284 c 2
392 146 m 2
 272 146 l 2
 255 146 241 160 241 177 c 0
 241 194 255 207 272 207 c 2
 392 207 l 2
 409 207 423 194 423 177 c 0
 423 160 409 146 392 146 c 2
633 146 m 2
 513 146 l 2
 496 146 482 160 482 177 c 0
 482 194 496 207 513 207 c 2
 633 207 l 2
 650 207 664 194 664 177 c 0
 664 160 650 146 633 146 c 2
633 9 m 2
 31 9 l 2
 14 9 1 22 1 39 c 0
 1 56 14 70 31 70 c 2
 633 70 l 2
 650 70 664 56 664 39 c 0
 664 22 650 9 633 9 c 2
EndSplineSet
Validated: 1
EndChar

StartChar: m
Encoding: 109 109 100
Width: 1024
VWidth: 0
Flags: W
HStem: 9 61<2.31177 181.596 483.404 662.596> 146 61<2.31177 181.596 483.404 662.596> 284 61<2.31177 181.596 483.404 662.596> 421 61<2.31177 181.596 242.404 421.688 483.404 662.596> 559 61<2.31177 181.596 242.404 421.688 483.404 662.596> 696 61<2.31177 301.596 363.312 662.596> 834 61<2.31177 180.688 483.404 662.596>
VStem: 1 182<10.3118 68.5959 147.404 205.688 285.312 343.596 422.404 480.688 560.312 618.596 835.312 893.596> 241 182<422.404 480.688 560.312 618.596> 482 182<10.3118 68.5959 147.404 205.688 285.312 343.596 422.404 480.688 560.312 618.596 835.312 893.596>
LayerCount: 2
Fore
SplineSet
152 9 m 2
 31 9 l 2
 14 9 1 22 1 39 c 0
 1 56 14 70 31 70 c 2
 152 70 l 2
 169 70 183 56 183 39 c 0
 183 22 169 9 152 9 c 2
152 146 m 2
 31 146 l 2
 14 146 1 160 1 177 c 0
 1 194 14 207 31 207 c 2
 152 207 l 2
 169 207 183 194 183 177 c 0
 183 160 169 146 152 146 c 2
152 284 m 2
 31 284 l 2
 14 284 1 297 1 314 c 0
 1 331 14 345 31 345 c 2
 152 345 l 2
 169 345 183 331 183 314 c 0
 183 297 169 284 152 284 c 2
152 421 m 2
 31 421 l 2
 14 421 1 435 1 452 c 0
 1 469 14 482 31 482 c 2
 152 482 l 2
 169 482 183 469 183 452 c 0
 183 435 169 421 152 421 c 2
152 559 m 2
 31 559 l 2
 14 559 1 572 1 589 c 0
 1 606 14 620 31 620 c 2
 152 620 l 2
 169 620 183 606 183 589 c 0
 183 572 169 559 152 559 c 2
272 696 m 2
 31 696 l 2
 14 696 1 710 1 727 c 0
 1 744 14 757 31 757 c 2
 272 757 l 2
 289 757 303 744 303 727 c 0
 303 710 289 696 272 696 c 2
152 834 m 2
 31 834 l 2
 14 834 1 847 1 864 c 0
 1 881 14 895 31 895 c 2
 152 895 l 2
 169 895 182 881 182 864 c 0
 182 847 169 834 152 834 c 2
393 559 m 2
 272 559 l 2
 255 559 241 572 241 589 c 0
 241 606 255 620 272 620 c 2
 393 620 l 2
 410 620 423 606 423 589 c 0
 423 572 410 559 393 559 c 2
393 421 m 2
 272 421 l 2
 255 421 241 435 241 452 c 0
 241 469 255 482 272 482 c 2
 393 482 l 2
 410 482 423 469 423 452 c 0
 423 435 410 421 393 421 c 2
633 696 m 2
 392 696 l 2
 375 696 362 710 362 727 c 0
 362 744 375 757 392 757 c 2
 633 757 l 2
 650 757 664 744 664 727 c 0
 664 710 650 696 633 696 c 2
633 834 m 2
 513 834 l 2
 496 834 482 847 482 864 c 0
 482 881 496 895 513 895 c 2
 633 895 l 2
 650 895 664 881 664 864 c 0
 664 847 650 834 633 834 c 2
633 559 m 2
 513 559 l 2
 496 559 482 572 482 589 c 0
 482 606 496 620 513 620 c 2
 633 620 l 2
 650 620 664 606 664 589 c 0
 664 572 650 559 633 559 c 2
633 421 m 2
 513 421 l 2
 496 421 482 435 482 452 c 0
 482 469 496 482 513 482 c 2
 633 482 l 2
 650 482 664 469 664 452 c 0
 664 435 650 421 633 421 c 2
633 284 m 2
 513 284 l 2
 496 284 482 297 482 314 c 0
 482 331 496 345 513 345 c 2
 633 345 l 2
 650 345 664 331 664 314 c 0
 664 297 650 284 633 284 c 2
633 146 m 2
 513 146 l 2
 496 146 482 160 482 177 c 0
 482 194 496 207 513 207 c 2
 633 207 l 2
 650 207 664 194 664 177 c 0
 664 160 650 146 633 146 c 2
633 9 m 2
 513 9 l 2
 496 9 482 22 482 39 c 0
 482 56 496 70 513 70 c 2
 633 70 l 2
 650 70 664 56 664 39 c 0
 664 22 650 9 633 9 c 2
EndSplineSet
Validated: 1
EndChar

StartChar: y
Encoding: 121 121 101
Width: 1024
VWidth: 0
Flags: W
HStem: 9 61<242.404 421.688> 146 61<242.404 421.688> 284 61<242.404 421.688> 421 61<242.404 421.688> 559 61<122.404 301.596 363.404 542.596> 696 61<2.31177 181.596 483.404 662.596> 834 61<2.31177 180.688 483.404 662.596>
VStem: 1 182<697.404 755.688 835.312 893.596> 241 182<10.3118 68.5959 147.404 205.688 285.312 343.596 422.404 480.688> 482 182<697.404 755.688 835.312 893.596>
LayerCount: 2
Fore
SplineSet
152 834 m 2
 31 834 l 2
 14 834 1 847 1 864 c 0
 1 881 14 895 31 895 c 2
 152 895 l 2
 169 895 182 881 182 864 c 0
 182 847 169 834 152 834 c 2
152 696 m 2
 31 696 l 2
 14 696 1 710 1 727 c 0
 1 744 14 757 31 757 c 2
 152 757 l 2
 169 757 183 744 183 727 c 0
 183 710 169 696 152 696 c 2
272 559 m 2
 152 559 l 2
 135 559 121 572 121 589 c 0
 121 606 135 620 152 620 c 2
 272 620 l 2
 289 620 303 606 303 589 c 0
 303 572 289 559 272 559 c 2
393 421 m 2
 272 421 l 2
 255 421 241 435 241 452 c 0
 241 469 255 482 272 482 c 2
 393 482 l 2
 410 482 423 469 423 452 c 0
 423 435 410 421 393 421 c 2
393 284 m 2
 272 284 l 2
 255 284 241 297 241 314 c 0
 241 331 255 345 272 345 c 2
 393 345 l 2
 410 345 423 331 423 314 c 0
 423 297 410 284 393 284 c 2
393 146 m 2
 272 146 l 2
 255 146 241 160 241 177 c 0
 241 194 255 207 272 207 c 2
 393 207 l 2
 410 207 423 194 423 177 c 0
 423 160 410 146 393 146 c 2
393 9 m 2
 272 9 l 2
 255 9 241 22 241 39 c 0
 241 56 255 70 272 70 c 2
 393 70 l 2
 410 70 423 56 423 39 c 0
 423 22 410 9 393 9 c 2
513 559 m 2
 393 559 l 2
 376 559 362 572 362 589 c 0
 362 606 376 620 393 620 c 2
 513 620 l 2
 530 620 544 606 544 589 c 0
 544 572 530 559 513 559 c 2
633 696 m 2
 513 696 l 2
 496 696 482 710 482 727 c 0
 482 744 496 757 513 757 c 2
 633 757 l 2
 650 757 664 744 664 727 c 0
 664 710 650 696 633 696 c 2
633 834 m 2
 513 834 l 2
 496 834 482 847 482 864 c 0
 482 881 496 895 513 895 c 2
 633 895 l 2
 650 895 664 881 664 864 c 0
 664 847 650 834 633 834 c 2
EndSplineSet
Validated: 1
EndChar

StartChar: quotedbl
Encoding: 34 34 102
Width: 1024
VWidth: 0
Flags: W
HStem: 559 61<122.404 301.596 363.312 542.596> 696 61<122.404 301.596 363.312 542.596> 834 61<122.404 301.596 363.312 542.596>
VStem: 121 182<560.312 618.596 697.404 755.688 835.312 893.596> 362 182<560.312 618.596 697.404 755.688 835.312 893.596>
LayerCount: 2
Fore
SplineSet
272 834 m 2
 152 834 l 2
 135 834 121 847 121 864 c 0
 121 881 135 895 152 895 c 2
 272 895 l 2
 289 895 303 881 303 864 c 0
 303 847 289 834 272 834 c 2
272 696 m 2
 152 696 l 2
 135 696 121 710 121 727 c 0
 121 744 135 757 152 757 c 2
 272 757 l 2
 289 757 303 744 303 727 c 0
 303 710 289 696 272 696 c 2
272 559 m 2
 152 559 l 2
 135 559 121 572 121 589 c 0
 121 606 135 620 152 620 c 2
 272 620 l 2
 289 620 303 606 303 589 c 0
 303 572 289 559 272 559 c 2
513 834 m 2
 392 834 l 2
 375 834 362 847 362 864 c 0
 362 881 375 895 392 895 c 2
 513 895 l 2
 530 895 544 881 544 864 c 0
 544 847 530 834 513 834 c 2
513 696 m 2
 392 696 l 2
 375 696 362 710 362 727 c 0
 362 744 375 757 392 757 c 2
 513 757 l 2
 530 757 544 744 544 727 c 0
 544 710 530 696 513 696 c 2
513 559 m 2
 392 559 l 2
 375 559 362 572 362 589 c 0
 362 606 375 620 392 620 c 2
 513 620 l 2
 530 620 544 606 544 589 c 0
 544 572 530 559 513 559 c 2
EndSplineSet
Validated: 1
EndChar

StartChar: numbersign
Encoding: 35 35 103
Width: 1024
VWidth: 0
Flags: W
HStem: 9 61<122.404 301.596 363.312 542.596> 146 61<122.404 301.596 363.312 542.596> 284 61<2.31177 662.596> 421 61<122.404 301.596 363.312 542.596> 559 61<2.31177 662.596> 696 61<122.404 301.596 363.312 542.596> 834 61<122.404 301.596 363.312 542.596>
VStem: 121 182<10.3118 68.5959 147.404 205.688 422.404 480.688 697.404 755.688 835.312 893.596> 362 182<10.3118 68.5959 147.404 205.688 422.404 480.688 697.404 755.688 835.312 893.596>
LayerCount: 2
Fore
SplineSet
272 834 m 2
 152 834 l 2
 135 834 121 847 121 864 c 0
 121 881 135 895 152 895 c 2
 272 895 l 2
 289 895 303 881 303 864 c 0
 303 847 289 834 272 834 c 2
272 696 m 2
 152 696 l 2
 135 696 121 710 121 727 c 0
 121 744 135 757 152 757 c 2
 272 757 l 2
 289 757 303 744 303 727 c 0
 303 710 289 696 272 696 c 2
633 559 m 2
 31 559 l 2
 14 559 1 572 1 589 c 0
 1 606 14 620 31 620 c 2
 633 620 l 2
 650 620 664 606 664 589 c 0
 664 572 650 559 633 559 c 2
513 834 m 2
 392 834 l 2
 375 834 362 847 362 864 c 0
 362 881 375 895 392 895 c 2
 513 895 l 2
 530 895 544 881 544 864 c 0
 544 847 530 834 513 834 c 2
513 696 m 2
 392 696 l 2
 375 696 362 710 362 727 c 0
 362 744 375 757 392 757 c 2
 513 757 l 2
 530 757 544 744 544 727 c 0
 544 710 530 696 513 696 c 2
272 421 m 2
 152 421 l 2
 135 421 121 435 121 452 c 0
 121 469 135 482 152 482 c 2
 272 482 l 2
 289 482 303 469 303 452 c 0
 303 435 289 421 272 421 c 2
633 284 m 2
 31 284 l 2
 14 284 1 297 1 314 c 0
 1 331 14 345 31 345 c 2
 633 345 l 2
 650 345 664 331 664 314 c 0
 664 297 650 284 633 284 c 2
272 146 m 2
 152 146 l 2
 135 146 121 160 121 177 c 0
 121 194 135 207 152 207 c 2
 272 207 l 2
 289 207 303 194 303 177 c 0
 303 160 289 146 272 146 c 2
513 421 m 2
 392 421 l 2
 375 421 362 435 362 452 c 0
 362 469 375 482 392 482 c 2
 513 482 l 2
 530 482 544 469 544 452 c 0
 544 435 530 421 513 421 c 2
513 146 m 2
 392 146 l 2
 375 146 362 160 362 177 c 0
 362 194 375 207 392 207 c 2
 513 207 l 2
 530 207 544 194 544 177 c 0
 544 160 530 146 513 146 c 2
272 9 m 2
 152 9 l 2
 135 9 121 22 121 39 c 0
 121 56 135 70 152 70 c 2
 272 70 l 2
 289 70 303 56 303 39 c 0
 303 22 289 9 272 9 c 2
513 9 m 2
 392 9 l 2
 375 9 362 22 362 39 c 0
 362 56 375 70 392 70 c 2
 513 70 l 2
 530 70 544 56 544 39 c 0
 544 22 530 9 513 9 c 2
EndSplineSet
Validated: 1
EndChar

StartChar: x
Encoding: 120 120 104
Width: 1024
VWidth: 0
Flags: W
HStem: 9 61<2.31177 181.596 484.312 663.596> 146 61<2.31177 181.596 484.312 663.596> 284 61<122.404 301.596 363.404 542.596> 421 61<243.312 422.596> 559 61<122.404 301.596 363.404 542.596> 696 61<2.31177 181.596 483.404 662.596> 834 61<2.31177 181.596 483.404 662.596>
VStem: 1 182<10.3118 68.5959 147.404 205.688 697.404 755.688 835.312 893.596> 121 182<285.312 343.596 560.312 618.596> 362 182<285.312 343.596 560.312 618.596> 483 182<10.3118 68.5959 147.404 205.688 697.641 755.466 835.534 893.359>
LayerCount: 2
Fore
SplineSet
152 834 m 2xff
 31 834 l 2
 14 834 1 847 1 864 c 0
 1 881 14 895 31 895 c 2
 152 895 l 2
 169 895 183 881 183 864 c 0
 183 847 169 834 152 834 c 2xff
152 696 m 2
 31 696 l 2
 14 696 1 710 1 727 c 0
 1 744 14 757 31 757 c 2
 152 757 l 2
 169 757 183 744 183 727 c 0
 183 710 169 696 152 696 c 2
272 559 m 2
 152 559 l 2
 135 559 121 572 121 589 c 0
 121 606 135 620 152 620 c 2
 272 620 l 2
 289 620 303 606 303 589 c 0xfe80
 303 572 289 559 272 559 c 2
393 421 m 2
 272 421 l 2
 255 421 242 435 242 452 c 0
 242 469 255 482 272 482 c 2
 393 482 l 2
 410 482 424 469 424 452 c 0
 424 435 410 421 393 421 c 2
513 284 m 2
 393 284 l 2
 376 284 362 297 362 314 c 0
 362 331 376 345 393 345 c 2
 513 345 l 2
 530 345 544 331 544 314 c 0xfe40
 544 297 530 284 513 284 c 2
634 146 m 2
 513 146 l 2
 496 146 483 160 483 177 c 0
 483 194 496 207 513 207 c 2
 634 207 l 2
 651 207 665 194 665 177 c 0xfe20
 665 160 651 146 634 146 c 2
634 9 m 2
 513 9 l 2
 496 9 483 22 483 39 c 0
 483 56 496 70 513 70 c 2
 634 70 l 2
 651 70 665 56 665 39 c 0
 665 22 651 9 634 9 c 2
152 9 m 2
 31 9 l 2
 14 9 1 22 1 39 c 0
 1 56 14 70 31 70 c 2
 152 70 l 2
 169 70 183 56 183 39 c 0xff
 183 22 169 9 152 9 c 2
152 146 m 2
 31 146 l 2
 14 146 1 160 1 177 c 0
 1 194 14 207 31 207 c 2
 152 207 l 2
 169 207 183 194 183 177 c 0
 183 160 169 146 152 146 c 2
272 284 m 2
 152 284 l 2
 135 284 121 297 121 314 c 0
 121 331 135 345 152 345 c 2
 272 345 l 2
 289 345 303 331 303 314 c 0xfe80
 303 297 289 284 272 284 c 2
513 559 m 2
 393 559 l 2
 376 559 362 572 362 589 c 0
 362 606 376 620 393 620 c 2
 513 620 l 2
 530 620 544 606 544 589 c 0xfe40
 544 572 530 559 513 559 c 2
633 696 m 2
 513 696 l 2
 496 696 482 710 482 727 c 0
 482 744 496 757 513 757 c 2
 633 757 l 2
 650 757 664 744 664 727 c 0
 664 710 650 696 633 696 c 2
633 834 m 2
 513 834 l 2
 496 834 482 847 482 864 c 0
 482 881 496 895 513 895 c 2
 633 895 l 2
 650 895 664 881 664 864 c 0
 664 847 650 834 633 834 c 2
EndSplineSet
Validated: 1
EndChar

StartChar: l
Encoding: 108 108 105
Width: 1024
VWidth: 0
Flags: W
HStem: 9 61<2.31177 662.596> 146 61<2.31177 181.596 483.404 662.596> 284 61<2.31177 181.596> 421 61<2.31177 181.596> 559 61<2.31177 181.596> 696 61<2.31177 181.596> 834 61<2.31177 180.688>
VStem: 1 182<147.404 205.688 285.312 343.596 422.404 480.688 560.312 618.596 697.404 755.688 835.312 893.596>
LayerCount: 2
Fore
SplineSet
152 834 m 2
 31 834 l 2
 14 834 1 847 1 864 c 0
 1 881 14 895 31 895 c 2
 152 895 l 2
 169 895 182 881 182 864 c 0
 182 847 169 834 152 834 c 2
152 696 m 2
 31 696 l 2
 14 696 1 710 1 727 c 0
 1 744 14 757 31 757 c 2
 152 757 l 2
 169 757 183 744 183 727 c 0
 183 710 169 696 152 696 c 2
152 559 m 2
 31 559 l 2
 14 559 1 572 1 589 c 0
 1 606 14 620 31 620 c 2
 152 620 l 2
 169 620 183 606 183 589 c 0
 183 572 169 559 152 559 c 2
152 421 m 2
 31 421 l 2
 14 421 1 435 1 452 c 0
 1 469 14 482 31 482 c 2
 152 482 l 2
 169 482 183 469 183 452 c 0
 183 435 169 421 152 421 c 2
152 284 m 2
 31 284 l 2
 14 284 1 297 1 314 c 0
 1 331 14 345 31 345 c 2
 152 345 l 2
 169 345 183 331 183 314 c 0
 183 297 169 284 152 284 c 2
152 146 m 2
 31 146 l 2
 14 146 1 160 1 177 c 0
 1 194 14 207 31 207 c 2
 152 207 l 2
 169 207 183 194 183 177 c 0
 183 160 169 146 152 146 c 2
633 9 m 2
 31 9 l 2
 14 9 1 22 1 39 c 0
 1 56 14 70 31 70 c 2
 633 70 l 2
 650 70 664 56 664 39 c 0
 664 22 650 9 633 9 c 2
633 146 m 2
 513 146 l 2
 496 146 482 160 482 177 c 0
 482 194 496 207 513 207 c 2
 633 207 l 2
 650 207 664 194 664 177 c 0
 664 160 650 146 633 146 c 2
EndSplineSet
Validated: 1
EndChar

